<svg viewBox="0 0 203 27" fill="var(--white)" xmlns="http://www.w3.org/2000/svg" class="header_logo__x2KMD hide-on-mobile"><path d="m60 .8 5.5 18.5h-1.6L52 .8h-7V26h8.6L48.2 7.7h1.6l11.7 18.4h7.3V.8h-8.7Z"/><path d="m7 21 10-1v6.1H0V.8h7V21Z"/><path d="M18.2 15.8V.8h7.5l-.8 15c-.2 3.4 1.7 5.5 5.2 5.5s5.5-2 5.3-5.4L34.5.8H42v14.9c0 7.9-5 11-11.9 11-7 0-11.9-3-11.9-10.9Z"/><path d="M123.7 26.1h-7.3l.6-9.8h-9.1l.6 9.8h-7.3V.8h7.3l-.6 9.9h9.1l-.6-10h7.3v25.4Z"/><path d="M126.7 26.1V.8h12.7c5.8 0 8.4 2.6 8.4 6 0 3.9-3.4 5-7 5.2v1.9c3.9 0 7.6 2.1 7.6 5.8 0 3.7-2.9 6.4-8.5 6.4h-13.2Zm7-14.9h4.2c2 0 3.3-1.2 3.3-3.2 0-1.9-1.2-2.8-3.3-2.8h-4.3v6Zm0 10.4h4.8c2 0 3.3-1.1 3.3-3 0-2-1.2-3.2-3.3-3.2h-4.9v6.2Z"/><path d="M149.3 13.4c0-8 5.9-13.4 14.3-13.4 8.5 0 14.3 5.4 14.3 13.4 0 8.2-5.8 13.4-14.3 13.4-8.4 0-14.3-5.2-14.3-13.4Zm21.5 0c0-4.7-3-8-7.2-8s-7.2 3.3-7.2 8 3 8 7.2 8 7.2-3.3 7.2-8Z"/><path d="M91.5 15.5c-.2 3.2-2.5 6-6.2 6-4.2 0-7-3.4-7-8 0-4.9 2.8-8.2 7-8.2 3.7 0 6 2.8 6.2 5.9l7.3-.3c-.2-7-6-10.9-13.5-10.9C76.8 0 71 5.3 71 13.4c0 8.2 5.7 13.5 14.2 13.5 7.5 0 13.3-4.1 13.5-11.1l-7.3-.3Z"/><path d="M202.3.8H192v9h-1.7l-6-9H176l9.2 12.7L176 26h10.3v-9h1.6l6 9.2h8.3l-9-12.6L202.3.8Z"/></svg>