<svg viewBox="0 0 187 155" fill="none" xmlns="http://www.w3.org/2000/svg"><path d="M63 95.5h2.8c.3 0 .5 0 .7.2.5.2.7.7.4 1.2l-.3.6a33.3 33.3 0 0 0-6 15.6c-.1 1.9-.2 3.7 0 5.6.2 2.9.9 5.7 2 8.4a40 40 0 0 0 7.1 12 46.1 46.1 0 0 0 27.1 15.2 38.8 38.8 0 0 0 21.4-3 37 37 0 0 0 17.4-16.7 39 39 0 0 0 4.2-12.7c.2-.8.2-1.7.3-2.5.1-.8.4-1 1.1-.8l3.3.7c1.4.3 3 .3 4.5.3 1.4 0 2.9 0 4.3-.2 1.6 0 3.1-.2 4.7-.3 3.8-.3 7.5-.7 11.3-1.3a67 67 0 0 0 11.4-2.7 22 22 0 0 0 5.1-2.5c.4-.3.3-.8 0-1.1l-.8-.5-8.9-5.5-.2-.1c-.8-.5-.8-.8-.3-1.5a33 33 0 0 0 7-21.6 34.3 34.3 0 0 0-8.2-21 33.3 33.3 0 0 0-42.7-6.5c-1.1.6-1.8.6-2.8-.3a5.8 5.8 0 0 1-1.6-2.7l-.2-1-.2-.6c-.2-.4-.5-.7-.9-.7s-.7.3-.8.7l-.4 1.7-.6 2.7-.1.4c-.2.4-.4.6-.9.4l-2.2-.7-2.5-.7-.6-.1c-.8 0-1.2.5-1 1.3a737.3 737.3 0 0 0 2.6 4.5v.1c.4.8.3 1-.5 1.4l-2.1 1c-.3 0-.6.2-.8.4-.5.4-.5 1 0 1.5.1.2.4.3.6.4l2.5 1 .5.3c.5.2.6.5.3 1l-1.4 2.7c-.2.5-.5.6-1 .3l-1.6-1a5092.9 5092.9 0 0 1-7.3-4.5c-.4-.3-.5-.5-.3-1l1-1.9c.6-1.3 1.3-2.6 1.7-4a7 7 0 0 0 .2-3.5c-.5-2-2-3.6-4.1-3.8-1.3-.2-2.4.2-3.5.8-1.3.8-2.2 2-3 3.3-.5 1-1 2-1 3.2l-.1.3c-.2.7-.4.8-1.1.4a2307 2307 0 0 1-18.9-11.5l-3.8-2.3c-.5-.3-.9-.7-.9-1.5a13 13 0 0 0-.4-3.3 9 9 0 0 0-4.2-5.5l-12.2-7A58207.9 58207.9 0 0 0 14.7 1.4a10 10 0 0 0-6-1.4C7 .2 5.4 1 4 2.1A11.3 11.3 0 0 0 .6 7.3a12 12 0 0 0-.6 4.5 8 8 0 0 0 3.5 6.4l9.8 6.8 1.9 1.3c.8.7 1.7.9 2.7.9 1.7 0 3.4 0 5 .2l4.2.1c.6 0 1 .3 1 1a5 5 0 0 1-.2 3.6l-.3.8c-.3.9 0 1.6 1 1.8h1l3 .2 5 .3h1.3c.9 0 1.2.4 1.4 1.2a6 6 0 0 1-.5 3.6l-.2.5c-.4 1 0 2 1.2 2l1.9.2 4.6.2 3.8.3c.8 0 1 .3 1.2 1a6 6 0 0 1-1.1 4.3l-.5.7c-.4.6-.4 1.2.2 1.7l1.1.9 7.2 5a7 7 0 0 0 7.1.7l1-.4c.5-.2.8-.2 1.2.3a18.5 18.5 0 0 1 3.8 8c0 .6-.1.8-.7 1l-.5.1a7.9 7.9 0 0 0-4 2.4c-1.6 2-1.6 4.2-.2 6.3 1.7 2.3 5 3.6 8.2 2.2h.2c.6-.4 1.1-.3 1.6.2l2.3 2 4.1 3.4.5.5c.3.2.2.5 0 .7l-.5.2-4.7 2.3c-.6.3-1.1.4-1.7 0l-3-2a2 2 0 0 1-.8-1.3l-.7-3a7 7 0 0 0-.2-.7 1 1 0 0 0-1-.7 1 1 0 0 0-.9.6l-.3.7-1.2 4.2c-.3 1-.5 1.2-1.5 1l-3.7-1h-.7c-.8 0-1.3.7-1 1.5l.7 1.1 1.4 2.2.1.2c.5.8.4 1-.3 1.5l-3.9 2.2a5 5 0 0 0-.6.4 1 1 0 0 0-.4 1c0 .4.3.7.8.8l.7.1h2.7Zm37.4-12.8 5 .4c1.5.1 3 .4 4.6.7.8.2 1 .5.7 1.3a72.9 72.9 0 0 1-4 10l-2.7 5.5c-.6 1.3-1 2.5-1.2 3.9a3 3 0 0 0 1.7 3c.4.3.9.4 1.3.6 2.7 1 4.6 2.8 5.8 5.5.8 2 1.2 4.1 1.2 6.3l.1 3a7.5 7.5 0 0 0 3.4 5.7 6 6 0 0 0 6.8.3 7 7 0 0 0 2.7-2.7l1.4-2.7c1.2-2.8 2-5.8 2.8-8.7a189 189 0 0 0 3-14.5c.2-.3.4-.3.6 0l.5.7c1.3 2.2 2.3 4.5 3.1 7a26.1 26.1 0 0 1 1.2 10.8l-.5 4.1a37 37 0 0 1-23.5 28c-3.6 1.4-7.3 2-11 2h-2.6a42 42 0 0 1-16.7-4.7 45 45 0 0 1-12-9.2 38.6 38.6 0 0 1-7.6-11.5 29.2 29.2 0 0 1-2.2-13l.4-3.5a30 30 0 0 1 5-12c.3-.4.5-.5 1-.3.5.3 1.1.3 1.8.1 2.4-.7 4.5-2 6.2-3.8a7.4 7.4 0 0 0 2.1-5.5c0-.7.3-1 .9-1.4a44.4 44.4 0 0 1 20.7-5.4Zm80.6.7a29.6 29.6 0 0 1-5.6 18l-1.5 2c-.3.3-.6.3-1 .1l-.5-.5c-.3-.4-.3-.8 0-1.2.6-.9 1.2-1.7 1.5-2.6.4-1 .3-1.7-.6-2.2a20 20 0 0 1-5.7-4.6 29 29 0 0 1-7.4-18.5c0-.5-.2-1-.5-1.4a4 4 0 0 0-.4-.5l-4.2-3.8c-2.3-2-4.8-3.7-7.4-5.3-1-.6-1.9-.4-2.5.6-1 1.7-3 2.4-5 1.8-2.4-.7-3.7-2.6-3.6-4.6 0-.3.1-.6 0-.8 0-.8-.3-1.3-1-1.4-1-.2-2-.2-2.9-.1l-2.6.3h-.4l.2-.5.7-.4c1.5-.6 3.1-1.1 4.8-1.4.8 0 1.6-.3 2.3-.7a12 12 0 0 1 3.8-1.2c.7 0 1.4-.2 2 0 .3 0 .4.1.2.4l-.2.2L140 60c-.4.6-1 1.2-1.2 2-.2.5-.2 1 .2 1.4a1.8 1.8 0 0 0 2.7.3c.6-.6 1.2-1.1 2-1.4.8-.4 1.6-.7 2.4-.8l5.2-.7a22 22 0 0 0 3.7-.8c1.3-.5 2.7-.6 4.1-.6l.8.1c.3.1.5.4.5.7 0 .3-.2.5-.6.6h-1l-1.5.7c-.5.2-.8.6-.7 1 0 .4.4.7 1 .8h1.6c1.6-.3 3.1-1 4.7-1.5 1-.3 2.2-.6 3.3-.7 2.2 0 4.3.4 6.1 1.8l1 .8a31 31 0 0 1 6.8 19.8ZM1.7 10.9V9.8c0-.2.2-.3.3-.5.2-.2.4-.1.5.2v1.4a3 3 0 0 0 1 2.2c.7.5 1.5.5 2.2 0 .3-.4.7-.9.9-1.4.2-.6.5-1.3.9-1.9 2-3.3 6-4.6 9.5-3a32 32 0 0 1 3.5 1.8l6.5 4A23396.8 23396.8 0 0 1 39 20a32.6 32.6 0 0 1 12.3 10.2c1.7 2.2 2.9 4.7 3.5 7.4l.1.9c.2.6.8 1 1.4.6l.8-.7 1.1-1.5a11.6 11.6 0 0 1 5-4.4c.3-.1.6-.3.8-.2l1.4.9c.3.2.2.4 0 .5l-.6.3a11 11 0 0 0-3.8 2.5 15.8 15.8 0 0 0-3.3 4.6 16.5 16.5 0 0 0-1.5 10.5c0 .2.2.5 0 .7-.3.2-.6 0-.8-.2l-2.2-1.5c-.8-.6-.8-.8-.3-1.6.9-1.5 1.3-3 1-4.8-.2-2-1-3.7-2.7-5a7.3 7.3 0 0 0-8-.9l-.5.3c-.5.2-.6 0-.7-.4v-.7c0-2.5-1-4.5-3-6a7.2 7.2 0 0 0-6-1.4l-2 .9c-.7.3-.9.1-.9-.6l-.1-1.9a6.7 6.7 0 0 0-1.8-3.5 7.4 7.4 0 0 0-7-2.4c-1.5.3-2.8 1-3.9 2-.5.6-.7.6-1.4.2l-1.7-1.2L4.6 17A6 6 0 0 1 3 15.4 7.8 7.8 0 0 1 1.7 11Zm64.9 35.9c0 .8.2 1.6.6 2.5 1 2 2.4 3.5 4 4.9l6.1 5c.6.3 1 .7 1 1.4 0 1.8.9 3.3 2 4.7A18.3 18.3 0 0 0 93 72a10 10 0 0 0 3.4-.5c.2-.1.5-.2.6-.1.5.2 1 .4 1.3 1l1 2.2a10.2 10.2 0 0 0 7.3 5.8l3 .4c.9.2 1.8.3 2.8 0 .2 0 .4 0 .6.2l2.8 1.7c.3.1.4.4.5.6a10.6 10.6 0 0 0 2.5 4c.4.4.3.5-.1.8l-2 1.2-3.4 2.5-.6.2c-.3 0-.3-.4-.3-.6v-2.7l.3-4.5c0-.5 0-1-.5-1.3-.3-.3-.7-.5-1-.6a41.8 41.8 0 0 0-15.3-1c-3 .2-5.8.8-8.6 1.6-.8.2-1.4.2-2-.4L79 77.3l-.6-.5c-.3-.4-.2-.7.3-.8a8.5 8.5 0 0 1 5.2.3l1 .2c.6 0 1-.6.9-1.2l-.4-.6c-1.1-2-2.5-3.7-4.2-5.2a12.8 12.8 0 0 0-6-3c-1-.2-1.3-.7-1.4-1.6-.6-3-2-6-4-8.3-.5-.7-1.2-1.2-1.8-1.9a35.7 35.7 0 0 0-4.4-4.5c-.4-.4-.6-1-.6-1.6 0-.8.2-1.6.5-2.4.7-1.5 1.8-2.9 3-4 .8-.9 1-1 2-.3a12256.8 12256.8 0 0 1 23.7 14.4l6.4 4c.3.1.6.3.7.6l.7 2.2c0 .1-.1.2-.3.1 0 0-.2 0-.3-.2l-2.7-1.6A220487 220487 0 0 0 68 44.2c-.4-.3-.7-.3-.9.2-.4.8-.7 1.6-.6 2.4Zm100 67.3 2.7-.3 1.2-.2h3.4c2-.2 4-.6 5.8-1.3.3-.1.7 0 .7-.4a17596.6 17596.6 0 0 0-22.8-14l-.2-.1.2-.2 1.1-.3h.7l.7.4a4746.8 4746.8 0 0 1 19.7 12l3 1.8c.5.4.5.8 0 1.2l-.3.2-2 .8c-3.2 1.3-6.6 2-10 2.4l-2.8.3-4 .5a126.2 126.2 0 0 1-8.8.8l-3.6.1a32 32 0 0 1-5.7 0c-1.5-.2-3-.5-4.4-1-.6 0-1-.4-1-1v-1.6a35.2 35.2 0 0 0-5.5-15.6l-1.4-1.8c-.4-.5-1.3-.4-1.7.4l-.1.5c-.1.9-.3 1.7-.6 2.6a4.8 4.8 0 0 1-2.6 3c-1 .3-1.9.5-2.9.3-1.1-.1-1.5-.6-1.5-1.7 0-.6.1-1.2.3-1.7l.8-2 1.8-4.3c.3-.5.3-.5.8-.3l1.3.6c2 .7 4.2 1.4 6.4.7.3-.1.5 0 .7.1l1.1.7c.4.3.6.6.7 1l1 2.7c1.3 2.3 3.2 4 5.5 5.1 1.8 1 3.7 1.5 5.6 1.9 1.6.3 3.2.5 4.7 0l.7.1c.7.3 1.1.8 1.4 1.6a9 9 0 0 0 4.1 4.6c1.7 1 3.5 1.4 5.8 1.4Zm-38.1-27.7h.7c.3.1.4.4.2.7a32.5 32.5 0 0 0-11.1 17 47.9 47.9 0 0 0-2 15.2l-1-.3c-.3-.1-.3-.4-.3-.6v-.8l-.4-2.6c-.4-2-1.2-3.7-2.5-5.3a1 1 0 0 1-.2-1l.9-3.2a28.7 28.7 0 0 1 6-11V94c0-.6-.8-1-1.3-.4l-1.5 1.7a30.6 30.6 0 0 0-5 9.6c0 .2-.1.2-.2 0l-.1-.4c-.5-1.5-.9-3.1-1-4.8 0-.6 0-1.3.5-1.8 1.2-1.6 2.6-3.1 4.1-4.5 3.2-2.7 6.7-4.7 10.5-6.2 1.2-.5 2.4-.8 3.7-.8Zm21 0c0-1 .1-2 .4-3.1.8-2.2 2-4 3.6-5.6 1.2-1.4 2.8-2.4 4.2-3.5l.5-.3.1.6A30.8 30.8 0 0 0 168.5 96c.2.2.3.3.1.6l-1.8 2.7c-.4.5-.4.5-1 .2h-.2c-1.3-.8-2.5-1.6-3.6-2.5-.6-.4-.6-.3-.3-1l.2-.2a6.5 6.5 0 0 0-1-7.6 5.6 5.6 0 0 0-4.4-1.9 15 15 0 0 0-4.6 1.2l-1.6.7c-.3.1-.5 0-.7-.3v-1.5Zm-18-18.6c1.1 0 2 .3 2.7 1.1l1.3 1.7c.5.6.5 1.2.2 2l-1.6 4.3c-.2.6-.2.6-.8.4-.4-.3-1-.5-1.4-.6-.8-.3-1.7-.2-2.5-.3-.7 0-1.3 0-1.9-.5l-.8-.5-3.6-2.2c-.4-.2-.6-.5-.6-1-.1-.4 0-1 .2-1.4l1.6-3c.3-.4.5-.5.9-.1.6.6 1.3.8 2.1.9.4 0 .4 0 .3.4-.2.7 0 1.3.5 1.8a1.7 1.7 0 0 0 2.3 0c.8-.7.8-1.5.1-2.3l-.1-.2c-.2-.2-.1-.3.1-.3l1-.2Zm-24.3-.6.2-.8c.1-.4.3-.5.8-.3l.6.3L127.7 78l6.2 3.9 6.7 4 6 3.7c.8.5.9.8.3 1.4-.3.4-.4.4-.9.2l-1.8-1.1a493879.6 493879.6 0 0 0-36.5-22c-.3-.2-.6-.4-.5-.8Zm38.7 3.9h.9c1.4.4 2.7 1.2 3.6 2.4.4.5.4.5 0 1-1.3 1-2.3 2.2-3.1 3.6l-.7 1.3c-.3.5-.6.6-1 .4l-.6-.3-.9-.6c-.5-.4-1-.7-1.6-.7-1-.1-1.9-.1-2.8.3l-.7.3c-1 .4-2 .4-3.2 0-.4-.1-.5-.3-.3-.8l1-2.6.8-2.6c.2-.5.2-.5.8-.5h1.8l3.4-.8c.8-.2 1.7-.4 2.6-.4Zm-44.7-11.9c0-2.2.3-2.7 1.2-3.8.6-.7 1.2-1.3 2-1.7 1.5-.6 2.7-.2 3.5 1.1l.4 1c.5 1.9.2 3.6-.6 5.2l-.7 1.3a14 14 0 0 0-1.3 4.1l-.2 1.8c0 .3 0 .7-.4.8-.3.1-.5-.3-.6-.5-1-1.5-1.7-3-2.4-4.6-.6-1.5-1-3-1-4.7ZM69 72.7c0-1.6.9-3.1 2.4-4 1-.6 2-.9 3.2-.7a9 9 0 0 1 3.7 1.5c.6.5 1.2 1 1.7 1.8.3.6.5 1.2.2 1.9-.1.5-.4.9-1 1-1.5.1-3 .7-4.3 1.4l-1.3.5h-1.2c-1.9-.2-3.2-1.4-3.3-3.4ZM156 96a4 4 0 0 1-2.2-.6 10 10 0 0 0-6.3-1.6c-.5 0-.6-.2-.3-.6l.1-.2c1-1.1 2-2.1 3.2-3 1-.7 2.1-1.3 3.3-1.6 2.5-.7 4.6.3 5.7 2.6.6 1.4.5 2.8-.5 3.8a4 4 0 0 1-3 1.2Zm-9-10.9.1-1.6a12 12 0 0 1 3.4-6.9c.8-.9 1.9-1.6 2.8-2.4l.9-.7c1-1 .8-1.7 0-2.4l-2.4-2.3-3.6-2.8c-.8-.6-1.6-.7-2.4.3a5 5 0 0 1-3.1 1.8 9 9 0 0 1-7.1-2c-1-.8-1.5-2-1.4-3.2v-.4c0-1-.5-1.5-1.4-1.4l-1 .1c-1.6.3-3 .7-4.4 1.4A13 13 0 0 0 123 67l-.2.4h-.3c-.2-.4-.3-.7 0-1.1 1.4-2.4 3.4-4 5.9-5a12 12 0 0 1 5.9-1.1c.5 0 .7.2.7.7v.3a6 6 0 0 0 2.3 4.5c1 .9 2.2 1.4 3.5 1.5 2 .3 3.9-.3 5.3-1.8.8-1 1-.9 2-.3a95 95 0 0 1 8 6.2l.8.8c.4.4.3.7 0 1l-.6.4c-2 1.3-4 2.9-5.5 4.8a11 11 0 0 0-2.6 9.5l-.2.3-.4-.1-.3-.9-.2-1.9ZM57.6 48.7v-1.2a15.9 15.9 0 0 1 2.8-7.6c.6-.6 1.2-1.2 2-1.6.4-.2.7-.3 1-.2 1 .3 1.7 1.3 1.6 2.3 0 .7-.3 1.3-.8 1.8-.8 1-1.6 2.2-2.1 3.4-.8 1.8-1 3.7 0 5.5l.1.5c.1.3 0 .6-.2.9-.4.2-.8.4-1.3.4-1.2 0-2-.4-2.5-1.5a5 5 0 0 1-.6-2.7Zm7.8 45h-1.2c-.2 0-.7 0-.7-.3-.1-.3.3-.4.5-.5l1.7-1c1-.6 1.1-1.4.5-2.3l-1-1.6-.4-.7c-.1-.4 0-.5.4-.5h.5c.8.3 1.7.5 2.5.6 1 .2 1.5-.1 1.9-1l.3-1.2.4-1.1c0-.2.2-.2.3-.3l.3.3.2.5c.1.5.4 1 .9 1.3l.7.5 3 1.9c.8.5 1 1.2.8 2.1 0 .4 0 .4-.4.3l-1.5-.8c-1-.4-1.6-1-2-2-.5-.8-1.2-.9-1.8-.1l-.2.2-.5 1c-.2.4-.2.4-.6.3l-1.1-.3c-.4-.1-.8 0-1 .3-.3.3-.2.7 0 1l.2.5.2.3c.2.4.2.5-.2.7l-.7.2c-.4.2-.6.5-.5 1v.3c0 .4 0 .4-.4.4h-1.1ZM155 53l3.2.1c.7 0 .9.4.6 1-.4 1.1-1 2-1.9 2.8a8.7 8.7 0 0 1-4.3 1.9c-.2 0-.5 0-.6-.2-.2-.1 0-.4.1-.6.8-1.3 1-2.7.3-4.2-.3-.4-.1-.6.4-.8h2.2Zm-6.2.7c1 0 1.8.4 2.2 1.2.3.7.1 1.4-.2 2a3.8 3.8 0 0 1-3.8 1.8c-1.2-.2-2-1.2-2-2.4l.3-.4a6 6 0 0 1 2.4-1.9l1-.3h.1Zm-25.9 4.2c-.6 0-1 .2-1.2.7v.7l.7 1.8c.2.6.1.6-.4 1l-.3.1c-.7.5-.9 1-.6 1.8v.3h-.3l-1.3-.5c-.2 0-.5-.3-.5-.4 0-.3.3-.4.5-.5l1.3-.6c1-.5 1.3-1.3.8-2.2l-.2-.2-1.5-2.6a3 3 0 0 1-.3-.7c0-.3.1-.4.4-.4.2 0 .4 0 .6.2l2.8.8c1.3.4 2 0 2.2-1.2l.1-.5.2-.8c0-.2.2-.4.3-.5.3-.1.4.1.5.3l.3.4 1 1 .4.3c.1.1.3.4.1.6-.1.2-.3-.1-.5-.2l-.8-.7c-.7-.4-1.5 0-1.5.9l-.1 1c-.1.5-.2.5-.6.5l-1.4-.2-.7-.2Zm46.9 40.7 1.8.7c.1 0 .2.3.1.4-.4.7-.8 1.3-1.4 1.9-.2.2-.4.2-.7 0l-1.2-.7c-.2 0-.3-.2-.1-.4l1.2-1.7.3-.2ZM141 61.4l.1-.4.8-1.2 1-1.2c.4-.4.6-.4 1 0l.4.6c.3.5.3.7-.3 1l-2.5 1.1-.3.2-.2-.1Z" fill="black"/><path d="M100.4 82.7A44.4 44.4 0 0 0 79.7 88c-.6.3-.9.7-.9 1.4.1 2.1-.7 4-2.1 5.5a13.3 13.3 0 0 1-6.2 3.8 3 3 0 0 1-1.9 0c-.4-.3-.6-.2-.9.2l-1 1.4a30 30 0 0 0-4 10.5l-.4 3.5v1.7c-.1 4 .7 7.7 2.3 11.4a44.4 44.4 0 0 0 36.3 25.4h2.5a34.6 34.6 0 0 0 30.4-18.8 37 37 0 0 0 4.7-19.1 34 34 0 0 0-5-14.7c-.1-.3-.3-.3-.4 0l-.3.8a189 189 0 0 1-2.8 13.7 61.4 61.4 0 0 1-4.2 11.4 7 7 0 0 1-2.7 2.7 6 6 0 0 1-6.8-.4 7.5 7.5 0 0 1-3.4-5.6v-3c-.1-2.2-.5-4.3-1.3-6.3a9.6 9.6 0 0 0-5.8-5.5c-.4-.2-.9-.3-1.3-.6a3 3 0 0 1-1.7-3 11 11 0 0 1 1.2-3.9l2.7-5.6a73.1 73.1 0 0 0 4-9.9c.2-.8 0-1.1-.7-1.3-1.6-.3-3.1-.6-4.7-.7l-5-.4Zm-18 18.8v-1.3c0-1.4.2-2.8.5-4.2.6-3 1.7-5.7 3.6-8a11 11 0 0 1 3.8-3.3l.6-.2c.3 0 .7.2.8.5a.8.8 0 0 1-.2.9l-.5.3a8 8 0 0 0-2.3 1.8v.2h.1l1.8-.9L97 85c1.5-.5 3-1 4.7-1.2l1.3.1c.6.1 1.2.8.7 1.6-.1.3-.3.5-.6.7l-1.7 1.2a4 4 0 0 0-1.6 2.4 13 13 0 0 0-.3 2.3v2.6l-.1 3c-.2 1.5-.7 2.8-1.4 4-.3.5-.3.6.2 1 .3.2.6.5 1 .6.4.3.8.6 1 1.1.3.6 0 1.1-.5 1.4-.4.3-1 .3-1.5.3-1.3-.1-2.7 0-4 .2a13.2 13.2 0 0 0-9 5.6 5 5 0 0 1-.5.6c-.4.4-.8.4-1.1.2-.4-.3-.5-.7-.3-1.1l.5-.8c.2-.3.2-.5.1-.7a27 27 0 0 1-1.5-8.6Zm18.1 48.9a31.6 31.6 0 0 1-16.2-5.8 6.7 6.7 0 0 1-1.8-2.3c-.5-1.2-.1-2.4 1-3l1.4-.6a11 11 0 0 1 4.3-.1c3.8.5 7.6 1.8 11 3.7 1.4.7 2.7 1.6 3.8 2.8.5.5 1 1.1 1.1 1.8a2 2 0 0 1-.1 1.7c-.4.7-1 1.2-1.8 1.5l-2.7.3Zm-1-25.3v.3c-.1.4-.3.6-.6.8-.4.1-.6 0-.9-.3l-.4-.6a74.6 74.6 0 0 1-1.4-3c0-.3.2-.6.5-.7.3-.2.6-.2 1 0l.4.5 1.1 2.2c.2.2.2.6.3.8ZM76 116.4v.4c0 .3-.2.6-.5.8-.4.1-.7 0-1-.3l-.5-.8-.8-2.4v-.5c0-.5.4-.8.9-.8s.8.3 1 .7l.8 2.5v.4Zm-1.9 5v.2c0 .5-.3 1-.7 1-.4.1-.8-.1-1-.6l-.9-2.8v-.2c0-.6.3-1 .7-1 .4-.1 1 0 1.1.5.5 1 .7 2 .8 3Zm24.7 9.7c0 .4-.2.8-.6 1-.4 0-.7 0-1-.3l-.3-.3a64 64 0 0 1-1-2.3c-.1-.7.4-1.1 1-1 .2 0 .3.2.5.3a5.4 5.4 0 0 1 1.4 2.6Zm23.1 4.5.3-.6c.4-.3 1-.3 1.4 0l1.4 1.8c.3.4 0 1-.4 1.3a1 1 0 0 1-1.2-.2l-1.2-1.6c-.2-.2-.2-.4-.3-.7Z" fill="#FF65BE"/><path d="M181 83.3a31.5 31.5 0 0 0-6.9-19.7l-.9-.8a8.8 8.8 0 0 0-6.1-1.7c-1.1 0-2.2.3-3.3.6-1.6.5-3 1.2-4.7 1.4h-1.7a1 1 0 0 1-.9-.6c0-.5.2-.9.7-1.1l1.5-.6h.6l.4-.1c.4 0 .5-.3.6-.6 0-.3-.2-.6-.5-.7h-.8c-1.4-.1-2.8 0-4.1.5a22 22 0 0 1-3.7.8l-5.2.7c-.8.1-1.6.4-2.4.8-.8.3-1.4.8-2 1.4a1.8 1.8 0 0 1-2.7-.3c-.4-.4-.4-1-.2-1.4.3-.8.8-1.4 1.2-2l3.6-4.8.2-.2c.2-.3.1-.4-.1-.4-.7-.2-1.4 0-2.1 0a12 12 0 0 0-3.8 1.2c-.7.5-1.5.6-2.3.7-1.7.3-3.3.8-4.8 1.4l-.7.5-.2.3.4.2 2.6-.4h2.8c.8.2 1.2.7 1.2 1.5v.8c-.2 2 1.1 4 3.4 4.6 2 .6 4-.1 5.1-1.8.6-1 1.4-1.2 2.5-.6 2.6 1.6 5 3.4 7.4 5.3l4.2 3.9.4.4c.3.4.5.9.5 1.4a29 29 0 0 0 7.4 18.5 20 20 0 0 0 5.7 4.6c1 .5 1 1.3.6 2.2-.3 1-1 1.7-1.5 2.6-.3.4-.3.8 0 1.2l.5.5c.4.2.7.2 1-.2l1.5-1.9a32.8 32.8 0 0 0 5.3-14c.2-1.3.2-2.7.3-4Zm-7-6.2v1a.8.8 0 0 1-.7.5c-.4 0-.6-.1-.8-.4a3 3 0 0 1-.3-1l-.1-2.1v-1.2c0-.3.1-.6.5-.7.3-.1.6 0 .8.2l.4.8.2 2.9Z" fill="#FF65BE"/><path d="M1.7 10.9c0 1.7.3 3.1 1.2 4.4a8 8 0 0 0 1.6 1.6l9.6 6.6 1.7 1.2c.7.4.9.4 1.4-.1 1.1-1 2.4-1.8 3.9-2a7 7 0 0 1 7 2.3c1 1 1.6 2.2 1.8 3.5l.1 1.9c0 .7.2 1 .9.6l2.1-.8c2.2-.4 4.3 0 6 1.4 2 1.5 3 3.5 3 6v.7c0 .4.2.6.7.4l.5-.2a7 7 0 0 1 8 .8 7.4 7.4 0 0 1 1.6 9.7c-.4 1-.4 1.1.4 1.7l2.3 1.5c.1.1.4.4.6.2.3-.2.2-.5.1-.7A17.2 17.2 0 0 1 61 36.5c1.1-1 2.3-2 3.8-2.5l.6-.3c.2-.1.3-.3 0-.5l-1.4-.9c-.2 0-.5 0-.7.2a11 11 0 0 0-5.1 4.4l-1.1 1.5-.8.7c-.6.3-1.2 0-1.4-.6l-.1-1c-.6-2.7-1.8-5-3.4-7.3a32.6 32.6 0 0 0-10.5-9.3L39 20l-.4-.2L27 12.6l-6.4-4A32 32 0 0 0 17 6.8a7.5 7.5 0 0 0-9.5 3l-1 2c-.1.4-.4.9-.8 1.2-.7.6-1.5.6-2.2 0a3 3 0 0 1-1-2.1V9.5c0-.3-.3-.4-.5-.2a1 1 0 0 0-.2.5l-.1 1Z" fill="#07B8BA"/><path d="M66.6 46.8c0-.8.2-1.6.6-2.4.2-.5.5-.5 1-.2l4.2 2.5c8.1 5 16.3 9.8 24.4 14.7l2.7 1.6.3.2c.2.1.3 0 .3-.1l-.7-2.2c0-.3-.4-.5-.7-.7l-6.4-3.9-9.8-6L68.6 42c-1-.6-1.2-.6-2 .2a13.3 13.3 0 0 0-3 4.1c-.3.8-.5 1.6-.5 2.4 0 .6.2 1.2.6 1.6l1 1c1.2 1.2 2.4 2.3 3.4 3.5.6.7 1.3 1.2 1.8 1.9 2 2.4 3.4 5.2 4 8.3.1.9.5 1.4 1.4 1.5a15 15 0 0 1 6 3.1 21.5 21.5 0 0 1 4.6 5.8c.1.6-.3 1.2-.9 1.2a3 3 0 0 1-1-.2 8.5 8.5 0 0 0-5.2-.4c-.5.2-.6.5-.3.8l.6.6 6.3 5.2c.6.6 1.2.6 2 .4a43 43 0 0 1 25 0c.3.3.5.8.4 1.3l-.3 4.5v2.7c0 .2 0 .5.3.6.2 0 .4 0 .6-.2l3.3-2.5 2-1.2c.5-.3.6-.4.2-.8a11.4 11.4 0 0 1-2.5-4c-.1-.2-.2-.5-.5-.6l-2.8-1.7a1 1 0 0 0-.6-.1c-1 .2-2 0-2.9 0l-2.9-.5a10.2 10.2 0 0 1-7.3-5.8l-1-2.2c-.3-.6-.8-.8-1.3-1h-.6c-1.1.5-2.3.7-3.4.6a18.3 18.3 0 0 1-12.8-6.8 8.5 8.5 0 0 1-2-4.7c0-.7-.4-1-1-1.5-2-1.6-4.2-3.2-6.2-5-1.5-1.3-3-2.9-3.9-4.8a6 6 0 0 1-.6-2.5Z" fill="#FFFDDF"/><path d="M166.6 114c-2.3 0-4.1-.3-5.8-1.3a9 9 0 0 1-4-4.6c-.4-.8-.8-1.3-1.4-1.6-.3 0-.5-.1-.8 0a19 19 0 0 1-10.3-1.9 12.7 12.7 0 0 1-6.5-7.9c-.1-.4-.3-.7-.7-1l-1-.7c-.3-.1-.5-.2-.8-.1-2.2.7-4.3 0-6.4-.7l-1.3-.6c-.5-.2-.5-.2-.8.3l-1.8 4.3-.7 2a3 3 0 0 0-.4 1.7c0 1 .4 1.6 1.5 1.7 1 .2 2 0 3-.4a4.8 4.8 0 0 0 2.5-3c.3-.8.5-1.7.6-2.5l.1-.5c.4-.8 1.3-.9 1.7-.4l1.4 1.8a35.2 35.2 0 0 1 5.5 15.6v1.6c0 .6.4 1 1 1a23.3 23.3 0 0 0 10.1 1l3.6-.1a251.4 251.4 0 0 0 8.8-.8l4-.5 2.7-.3c3.5-.4 6.9-1.1 10.1-2.4l2-.8.3-.2c.5-.4.5-.8 0-1.2l-3-1.8a32151.9 32151.9 0 0 0-19.7-12c-.2-.1-.4-.3-.7-.3-.2-.1-.5-.2-.7-.1-.4 0-.8.2-1.1.3l-.2.2.1.2 1.9 1.1a54076.8 54076.8 0 0 1 21 12.8c0 .3-.4.3-.7.4a23 23 0 0 1-5.8 1.2l-3.4.1c-.4 0-.8 0-1.2.2l-2.7.3Z" fill="#FFFDDF"/><path d="M128.5 86.3c-1.3.1-2.5.4-3.7 1a36.6 36.6 0 0 0-10.5 6.1 29.8 29.8 0 0 0-4.1 4.5c-.5.5-.5 1.2-.5 1.8a21.8 21.8 0 0 0 1.1 5.2c.1.2.2.2.3 0l.2-.6a30.6 30.6 0 0 1 6.2-10.7c.5-.5 1.2-.2 1.4.4l-.1.6-.5.6c-2.6 3-4.3 6.5-5.5 10.3-.4 1-.6 2.2-.9 3.2 0 .4 0 .7.2 1 1.3 1.6 2.1 3.4 2.5 5.3l.3 2.6.1.8c0 .2 0 .5.3.6l1 .3.2-.3-.1-1.6a48.1 48.1 0 0 1 2-13.4c1.1-4 3-7.7 5.6-11a57 57 0 0 1 5.4-6c.2-.2.1-.5-.2-.6h-.7Z" fill="#FEED01"/><path d="M149.5 86.4v1l.1.5c.2.4.4.4.7.3l1.6-.7c1.5-.6 3-1.1 4.6-1.2 1.8 0 3.3.6 4.5 1.9a6.5 6.5 0 0 1 1 7.6l-.3.3c-.3.6-.3.5.3 1a27.6 27.6 0 0 0 3.7 2.4c.7.3.7.3 1.1-.2l1.8-2.7c.2-.3.1-.4 0-.7l-1.9-1.7a30.9 30.9 0 0 1-8.4-19.7v-.6l-.6.3c-1.4 1.1-3 2.1-4.2 3.5a15.8 15.8 0 0 0-3.6 5.6c-.3 1-.3 2-.4 3.1Z" fill="#FF65BE"/><path d="m131.6 67.8-1 .2c-.3 0-.4.1-.2.3l.1.2c.7.7.7 1.6 0 2.3a1.7 1.7 0 0 1-2.4 0c-.6-.5-.7-1-.5-1.8 0-.4 0-.4-.3-.4-.8-.1-1.5-.3-2.1-1-.4-.3-.6-.2-.9.2l-1.7 3c-.2.5-.2 1-.2 1.5.1.4.3.7.7.9l3.6 2.2.8.5c.6.4 1.2.5 1.9.5.8 0 1.7 0 2.5.3.5.1 1 .3 1.4.6.6.2.6.2.8-.4l1.6-4.4c.3-.7.3-1.3-.2-2-.5-.4-.8-1-1.3-1.6-.7-.8-1.6-1-2.6-1Z" fill="#FF65BE"/><path d="M107.2 67.2c0 .4.2.6.5.8a6247.4 6247.4 0 0 1 36.5 22l1.8 1c.5.3.6.3 1 0 .5-.7.4-1-.3-1.5l-6-3.7-6.8-4-6.2-3.9a44146.4 44146.4 0 0 0-19.5-11.8c-.5-.2-.7-.1-.8.3l-.2.8Z" fill="#FFFDDF"/><path d="M145.9 71.1c-1 0-1.8.2-2.6.4l-3.4.8h-1.8c-.6 0-.6 0-.8.5l-.9 2.6-1 2.6c0 .5 0 .7.4.8a4.8 4.8 0 0 0 4-.3c.8-.4 1.7-.4 2.7-.3.6 0 1.1.3 1.6.7l1 .6.5.3c.4.2.7 0 1-.4l.7-1.3c.8-1.4 1.8-2.6 3-3.7.5-.4.5-.4.1-1a6.8 6.8 0 0 0-3.6-2.2l-1-.1Zm-3 5.6c-.9.2-1.7-1-1.7-1.6 0-1 .8-1.7 2-1.7a1.6 1.6 0 0 1 1.5 1.7c0 1-.8 1.6-1.8 1.6Z" fill="#FF65BE"/><path d="M101.2 59.2c0 1.7.3 3.2 1 4.7a22 22 0 0 0 2.3 4.6c.1.2.3.6.6.5.4 0 .3-.5.4-.8 0-.6 0-1.2.2-1.8a14 14 0 0 1 1.3-4.1l.7-1.3c.8-1.6 1-3.3.6-5.1a4 4 0 0 0-.4-1c-.8-1.4-2-1.8-3.4-1.2-.9.4-1.5 1-2.1 1.7-1 1.1-1.2 1.6-1.2 3.8Z" fill="#FF65BE"/><path d="M69 72.7c.2 2 1.5 3.2 3.4 3.4h1.3l1.3-.5c1.4-.7 2.8-1.3 4.3-1.5.6 0 .9-.4 1-1 .3-.6.1-1.2-.2-1.8-.5-.7-1-1.3-1.7-1.8a9 9 0 0 0-3.7-1.5c-1.1-.2-2.2 0-3.2.7a4.9 4.9 0 0 0-2.4 4Z" fill="#FF65BE"/><path d="M156 96a4 4 0 0 0 3-1.2c1-1 1.2-2.5.6-3.8-1-2.3-3.2-3.3-5.7-2.6-1.2.3-2.3.9-3.3 1.6a18.5 18.5 0 0 0-3.3 3.2c-.3.4-.2.6.3.6h.4c2.2 0 4 .5 5.9 1.6a4 4 0 0 0 2.2.6Z" fill="#FF65BE"/><path d="M147 85.1c0 .7 0 1.3.2 2l.3.8.4.1.2-.3v-.4a11 11 0 0 1 2.6-9c1.5-2 3.4-3.6 5.5-5 .2 0 .4-.2.5-.3.4-.3.5-.6.1-1l-.8-.8a63.5 63.5 0 0 0-8-6.2c-1-.6-1.2-.6-2 .3a5.9 5.9 0 0 1-5.3 1.8 6.6 6.6 0 0 1-3.5-1.5 6 6 0 0 1-2.3-4.5v-.3c0-.5-.3-.7-.7-.7-2-.1-4 .2-6 1-2.4 1-4.4 2.7-5.8 5-.3.5-.2.8 0 1.1 0 .2.1.2.2 0l.3-.3a13 13 0 0 1 4.5-4.3c1.4-.7 2.8-1.1 4.3-1.4l1-.1c1 0 1.5.4 1.5 1.4v.4c-.1 1.3.3 2.4 1.4 3.2a9 9 0 0 0 7 2 5 5 0 0 0 3.2-1.8c.8-1 1.6-.9 2.4-.3l3.6 2.8 2.4 2.3c.8.7 1 1.3 0 2.4l-.9.7c-1 .8-2 1.5-2.8 2.4-2 2-3 4.2-3.4 6.9L147 85Z" fill="#FF65BE"/><path d="M57.6 48.7c0 1 .1 1.9.6 2.7.5 1 1.3 1.6 2.5 1.5.5 0 .9-.2 1.3-.4.3-.3.3-.6.2-.9l-.1-.5a6.3 6.3 0 0 1 0-5.5c.5-1.2 1.3-2.3 2.1-3.4a3 3 0 0 0 .8-1.8c.1-1-.5-2-1.5-2.3-.4 0-.7 0-1 .2-.9.4-1.5 1-2.1 1.6a15.9 15.9 0 0 0-2.8 7.6v1.2Z" fill="#07B8BA"/><path d="M65.4 93.7h1c.5 0 .5 0 .5-.4v-.4c-.1-.4.1-.7.5-.9l.7-.2c.4-.2.4-.3.2-.7l-.2-.3a5 5 0 0 1-.3-.5c-.1-.4-.2-.7 0-1 .3-.4.7-.4 1-.3l1.2.3c.4.1.4 0 .6-.3l.5-1 .2-.2c.6-.8 1.3-.8 1.7.2.5.9 1.2 1.5 2.1 1.9l1.5.8c.3.1.4 0 .4-.3.2-.9 0-1.6-.9-2.1l-2.9-2-.7-.5c-.5-.2-.8-.7-1-1.2l-.1-.5-.3-.3-.3.3-.4 1.1-.3 1.2c-.4.9-1 1.2-2 1l-2.4-.5-.5-.1c-.5 0-.5.1-.4.5l.4.7 1 1.6c.6 1 .5 1.7-.5 2.3l-1.7 1c-.2.1-.6.2-.5.5 0 .4.5.3.7.3h1.2Z" fill="#07B8BA"/><path d="M155 53h-2.2c-.5.1-.7.4-.4.8.7 1.5.5 2.9-.3 4.2-.1.2-.3.5 0 .6 0 .2.3.2.5.2 1.6-.3 3-.8 4.3-1.9.9-.7 1.5-1.7 2-2.8.2-.6 0-1-.7-1L155 53v.1Z" fill="black"/><path d="m148.8 53.7-1.1.3a6 6 0 0 0-2.4 1.9 1 1 0 0 0-.2.4c-.1 1.2.7 2.2 1.9 2.4 1.6.3 3.2-.7 3.8-1.8.3-.6.5-1.3.2-2-.4-.8-1.1-1.1-2.2-1.2Zm-1.2 1.4c.5 0 .8.3.8.6 0 .4-.5.8-.9.8s-.7-.3-.7-.7c0-.4.3-.7.8-.7Z" fill="#FFFDDF"/><path d="M123 57.9s.4 0 .6.2l1.4.2c.4 0 .5 0 .6-.4v-1.1c.1-.9.9-1.3 1.6-1l.8.8c.2 0 .3.4.5.2.2-.3 0-.5-.1-.6l-.4-.3a82 82 0 0 1-1-1l-.3-.4c-.1-.2-.2-.4-.5-.3l-.3.5-.2.8v.5c-.4 1.2-1 1.6-2.3 1.2l-2.8-.8-.7-.2c-.2 0-.3.1-.3.4l.3.7 1.5 2.6.2.2c.5 1 .2 1.7-.8 2.2l-1.3.6c-.2 0-.6.2-.5.5l.5.4 1.3.6h.3V64c-.3-.8-.1-1.3.6-1.8l.3-.2c.5-.3.6-.3.4-1l-.7-1.7v-.7c.2-.5.6-.7 1.2-.7Z" fill="#07B8BA"/><path d="M169.8 98.6c-.2 0-.3.1-.3.2l-1.2 1.7c-.2.2-.1.3 0 .4l1.3.8c.3.1.5 0 .7-.1.6-.6 1-1.2 1.4-1.9v-.4l-2-.7Z" fill="#FF65BE"/><path d="M141 61.4h.6L144 60c.6-.2.6-.4.3-1l-.4-.5c-.4-.4-.6-.4-1 0l-1 1.2-.8 1.2-.1.4Z" fill="black"/><path d="M82.3 101.5c.1 3 .5 5.8 1.5 8.6v.7a6 6 0 0 0-.6.8c-.2.4 0 .8.3 1 .3.3.7.3 1 0l.6-.7a13.2 13.2 0 0 1 9-5.6c1.3-.2 2.7-.3 4-.2.6 0 1 0 1.5-.3.6-.3.8-.8.5-1.4a2 2 0 0 0-1-1l-1-.7c-.5-.4-.5-.5-.2-1 .7-1.2 1.2-2.5 1.4-4l.2-3-.1-2.6c0-.8.1-1.5.3-2.3a4 4 0 0 1 1.6-2.4l1.8-1.2.5-.7a1 1 0 0 0-.7-1.6h-1.3a19 19 0 0 0-4.7 1.1l-6.3 2.3-1.8.9h-.2l.1-.2c.7-.7 1.4-1.3 2.3-1.8.2 0 .4-.2.5-.3a.8.8 0 0 0 .2-1 .8.8 0 0 0-.8-.4c-.2 0-.4 0-.6.2a11 11 0 0 0-3.8 3.2 21.5 21.5 0 0 0-4 12.2l-.2 1.4Zm4-3.4v-1c.1-.5.4-.5.7-.3l.4.3a7 7 0 0 0 4.6 1.6 7 7 0 0 0 3.4-.8l1.5-1h.5l.1.4-.1.8c-.5 2-1.5 3.8-3 5.4A5 5 0 0 1 92 105c-1 .2-1.8.6-2.7 1l-.5.2c-.4 0-.6 0-.8-.4l-.2-.3c-.8-2.4-1.3-4.8-1.4-7.4ZM92 97c-1.3 0-2.4-.4-3.4-1.2-1.1-.9-1.9-2.6-.7-4.3 1-1.4 2.3-2.2 4-2.4 1.4-.1 2.6.2 3.8 1 1.9 1.4 1.9 3.7.4 5.2a6 6 0 0 1-4 1.7Zm7.1-10.8.4.1v.4c-.6.7-1 1.4-1.4 2.2-.3.4-.5.5-.9.2l-.9-.6-.8-.6c-.3-.2-.2-.4 0-.5l.4-.2 1.9-.6 1.3-.4Z" fill="black"/><path d="M100.5 150.4c1 0 1.8 0 2.7-.3.8-.3 1.4-.8 1.8-1.5a2 2 0 0 0 .1-1.7c-.2-.7-.6-1.3-1-1.8-1.2-1.2-2.5-2-3.9-2.8a31.5 31.5 0 0 0-11-3.7 11 11 0 0 0-4.3 0l-1.4.6a2.4 2.4 0 0 0-1 3.1c.5 1 1.1 1.6 1.9 2.3a31.6 31.6 0 0 0 16.2 5.8Z" fill="#FFFDDF"/><path d="M99.5 125a39.7 39.7 0 0 0-1.9-3.5h-1c-.2.2-.5.5-.4.9a82 82 0 0 0 1.8 3.5c.2.2.5.4.9.3.3-.2.5-.4.5-.8v-.3Z" fill="black"/><path d="M76 116.4v-.4l-1-2.5c-.1-.4-.4-.8-1-.7-.4 0-.8.3-.9.8l.1.5a45.4 45.4 0 0 0 1.4 3.2c.2.3.5.4.9.3.3-.2.5-.5.5-.8v-.4Z" fill="black"/><path d="M74.1 121.4c-.1-1-.3-2-.8-2.9a1 1 0 0 0-1-.5c-.5 0-.8.5-.8 1v.2l.9 2.8c.2.5.6.7 1 .6.4 0 .7-.5.7-1v-.2Z" fill="black"/><path d="M98.8 131.1c-.3-1-.7-2-1.4-2.6a1 1 0 0 0-.5-.3c-.6-.1-1.1.3-1 1l.1.5a65.9 65.9 0 0 0 1.2 2.1c.3.3.6.4 1 .2.4 0 .6-.5.6-.9Z" fill="black"/><path d="M122 135.6c0 .3 0 .5.2.7l1.2 1.6a1 1 0 0 0 1.2.2c.5-.3.7-.9.4-1.3l-1.4-1.7a1 1 0 0 0-1.4 0l-.3.5Z" fill="black"/><path d="m175 76.9-.7-4c0-.5-.2-.9-.6-1.2-.3-.2-.7-.4-1.2-.2-.4.3-.7.6-.7 1.1 0 .6.2 1.1.3 1.6l.4 3.1.5 1.3c.2.4.6.6 1.1.5a1 1 0 0 0 .8-.8l.1-1.4Z" fill="#FFFDDF"/><path d="M142.9 76.7c1 0 1.8-.6 1.8-1.6a1.6 1.6 0 0 0-1-1.5l-.6-.2c-1.1 0-1.9.7-1.9 1.7 0 .7.8 1.8 1.7 1.6Z" fill="black"/><path d="M147.6 55.1c-.5 0-.8.3-.8.7 0 .4.3.7.7.7.4 0 1-.4 1-.8 0-.3-.4-.6-.9-.6Z" fill="black"/><path d="M86.4 98.1a25.5 25.5 0 0 0 1.6 7.7c.2.4.4.5.8.4l.5-.2c.9-.4 1.8-.8 2.7-1 1-.3 1.8-.8 2.5-1.5a12.3 12.3 0 0 0 3-6.2l-.1-.5-.5.1-1.5 1a7 7 0 0 1-3.4.8 7 7 0 0 1-5-2c-.3-.1-.6 0-.6.3v1.1Z" fill="black"/><path d="M92 97a6 6 0 0 0 4-1.7c1.6-1.5 1.6-3.8-.3-5.2a5.8 5.8 0 0 0-3.8-1c-1.7.2-3 1-4 2.4-1.2 1.7-.4 3.4.7 4.3 1 .8 2.1 1.1 3.4 1.2Zm.3-3.5c-.7 0-1.3-.5-1.3-1.2 0-.6.6-1.2 1.2-1.2.7 0 1.4.6 1.4 1.2 0 .7-.5 1.2-1.3 1.2Z" fill="#FFFDDF"/><path d="m99.1 86.2-1.3.4-2 .6s-.2 0-.3.2c-.3.1-.3.3 0 .5l.8.5.9.7c.4.3.6.2.9-.2.3-.8.8-1.5 1.3-2.2.1 0 .2-.3.1-.4l-.4-.1Z" fill="black"/><path d="M92.3 93.5c.8 0 1.3-.5 1.3-1.2 0-.6-.7-1.2-1.4-1.2-.6 0-1.2.6-1.2 1.2 0 .7.6 1.3 1.3 1.2Z" fill="black"/></svg>