<svg xmlns="http://www.w3.org/2000/svg" fill="none" viewBox="0 0 229 352"><path fill="#000" d="m189.4 104-.8.8-.5.5c-.8.9-1.4.9-2.2 0l-.7-.7c-.5-.5-1-.3-1.2.3l-.2.9a83 83 0 0 1-5.2 16l-3.8 8.6c-1 2.5-1.8 5-2.2 7.6-.2 1.5-.5 3-.1 4.5.1.6.3 1.2.7 1.6.8 1.3 1.8 2.5 2.7 3.8.6.9 1.4 1.3 2.5 1.5a26.9 26.9 0 0 1 15.8 7.7c4 3.7 6.9 8.2 9.4 13a153.7 153.7 0 0 1 11.5 37.3 83 83 0 0 0 6 19l5 11.5a32.3 32.3 0 0 1 1.7 22.6 54.7 54.7 0 0 1-6.3 13.6c-2.5 4.1-5.5 7.9-8.4 11.8L200.7 303c-5.9 8.3-11.6 16.8-17.8 24.9-2.9 3.8-5.9 7.5-9.1 11.1-2.8 3-5.8 6-9.1 8.4a24.2 24.2 0 0 1-7.6 4 13 13 0 0 1-12.5-2.8c-1.6-1.3-2.8-2.9-4.2-4.4a86 86 0 0 0-9.6-9.5c-5.5-4.7-11.3-8.9-17-13.2A194 194 0 0 1 92 302.6 104.8 104.8 0 0 1 72.3 274c-2.1-4.5-4-9-5.6-13.6a40.3 40.3 0 0 1-.8-27.1l3.3-11.2a63.2 63.2 0 0 0 2.6-17.3c.2-3.5.4-7 1-10.5.8-3.7 2-7.2 3.5-10.5l1.9-3.8c.5-1 .4-1.7-.5-2.4-8-7-14.4-15.3-19.7-24.5-.7-1.1-1.2-2.3-1.9-3.3a15 15 0 0 0-1.6-2.2c-1.5-1.6-3.3-1.9-5.3-1.2-1.7.6-3.2 1.7-4.5 2.9a34.6 34.6 0 0 0-5.1 5.4c-.3.4-.6.8-1 1-.2.2-.5.3-.8.2-.3 0-.4-.4-.4-.8.1-.8.2-1.7.5-2.5.6-2.5 1-5.1.8-7.7 0-1.4-.3-2.7-1-3.9-.6-1-1.5-1.6-2.7-1.7-1 0-2 .3-3 .7a57.8 57.8 0 0 0-8.9 4.8c-.4.2-.8.3-1.2 0-.3-.4-.2-.8 0-1.2l.8-1.2a38 38 0 0 0 3.8-7.9c.6-1.4.3-2.6-.8-3.6A12 12 0 0 0 17 127a20 20 0 0 0-4.2.5l-.9.1c-.3 0-.7 0-.8-.4-.1-.4 0-.7.3-.9l.7-.4c1.7-1 3.3-1.8 4.7-3a10 10 0 0 0 3.8-7.6l-.1-1c-.2-1-.8-1.5-1.8-1.7-1.8-.3-3.7-.2-5.5 0l-2.4.6c-.3 0-.5.1-.8 0-.2 0-.6-.1-.7-.4 0-.2 0-.6.3-.8.3-.3.8-.5 1.2-.7 2-1.3 4-2.7 5.6-4.7l.2-.3c1.1-1.5.9-2.6-.9-3.4-1.7-.8-3.5-1-5.4-1.2-2.4-.2-4.9 0-7.4 0a3 3 0 0 1-1-.2c-.5-.2-.6-.8-.2-1.2a3 3 0 0 1 1-.5 16.8 16.8 0 0 0 10.5-11.5c.2-.9 0-1.4-.8-1.8l-2.1-1c-2.2-.7-4.4-1-6.7-1.1-.5 0-1 0-1.4-.2-.4 0-.8-.2-.8-.7 0-.2.3-.6.5-.8l1.5-.7 4.8-2c1.2-.6 1.5-1.8 1.3-2.9-.5-2.3-1.7-4.1-3.2-5.9C4.8 69.4 3 68 1.1 66.3l-.9-.8c-.2-.3-.3-.7 0-1l.8-.2 1.8.8c2.2 1 4.5 2 6.9 2.4 1.9.4 3.8.7 5.7.2l1.2-.4c1-.5 1.5-1.2 1.1-2.4-.4-1.4-.8-2.8-1.4-4.1-.9-1.8-2-3.6-3-5.3l-.4-1.2c0-.5.3-.8.8-.6l.9.6a17.7 17.7 0 0 0 6.1 4.5c1 .5 1.8.2 2.3-.8.8-1.6 1.2-3.4.8-5.2l-.9-3-.2-1c0-.2.1-.5.3-.6.2-.1.5 0 .7.1l.7.8 2 2.3c.8 1 2 1.5 3.2 1.6h1c.9-.3 1.2-.8 1-1.7-.5-1.5-1.2-2.9-2.2-4.1a121 121 0 0 0-4.4-5c-1.7-2-3.4-3.8-4.7-6-1-2-1.6-4-1.8-6 0-1-.2-1.8-.3-2.6-.4-1.6-1-2.1-2.6-2.2h-2.3c-1.5-.1-2.6-1-3.4-2.3-.8-1.4-1.1-3-1.4-4.5l-2-12.2-.5-4v-1l.5-.5c.3 0 .6.2.7.4.3.3.4.7.5 1.2.8 2.8 2 5.5 3.8 8 2.6 4 6.2 7 10.6 9 3 1.4 6.1 2.2 9.3 2.8 4.8 1 9.5 2.3 14 4.3 4 1.8 7.4 4 10 7.4a3 3 0 0 0 2.5 1.2c1.6 0 3-.3 4.6-.7 1.1-.4 2.4-.5 3.6-.8l1.9-.4c1.9-.6 3.8-1 5.7-1.7l3.4-1.4c2.2-1 4.4-2 6.8-2.6 4-1 8-.8 12 .4l1.6.6c.8.3 1.5.2 2.2 0 2-1 4.2-1.5 6.4-1.7 3.3-.3 6.6 0 9.9.8 1.8.4 3.5 1.1 5.1 2 .8.6 1.7.6 2.5.4l4.5-1c3.5-.4 7 0 10.2 1.4 1.6.7 3.1 1.6 4.7 2.4l.4.2c1 .6 1.5.5 2.3-.3 1.5-1.6 3-3 5-4l3.8-1.8a18 18 0 0 0 7.6-5.8 40 40 0 0 0 7.3-16l.3-2 .4-1c.3-.6.9-.7 1.4-.2l.5 1c.6 1.4.8 3 1 4.6.2 3.3-.3 6.5-.8 9.7-.4 3.2-.9 6.5-.6 9.9.2 1.8.6 3.6 1.5 5.3l2.7 5.7 1 3.5c.3 1 .7 1.7 1.5 2.2l3.3 2.2a7 7 0 0 1 2 2.5c.4.7 1 1.2 1.7 1.6C190 53 193 57 194.8 62l.9 2.7c.2.9.6 1.6 1.5 2.2 1.6 1 3 2.3 4 4 1.1 1.6 1.7 3.4 1.8 5.4l.1 4c0 3.1-.7 6-2.3 8.7a14 14 0 0 1-4.7 4.7c-.8.6-1.3 1.2-1.1 2.3v.6a11.8 11.8 0 0 1-3.5 9.4c-.9.7-1.6.4-1.8-.7l-.3-1.2Zm-80 56c1 .3 1.5.2 1.8-.7l1-2.7c.3-1 0-1.4-1-1.5-.8-.2-1.7-.2-2.5-.2l-9.5.2c-3.6 0-7.2.2-10.8-.3l-1.2-.2c-.7 0-.9.4-.6 1l.4.8 1.6 2.8c1.8 3.8 2.3 8 2.4 12l-.1 4c0 1.1-.2 2.1 0 3.1l.8 7.9c.2 3 .1 6-.2 9a32.7 32.7 0 0 1-5.3 14.5 50 50 0 0 0-8.1 19c-.2 1-.2 1.8.3 2.6.4.8.5 1.6.5 2.4 0 1.4-.4 2.6-1 3.8-1 2-1.3 4-1.1 6 .3 2.6 1 5 2.5 7A8.7 8.7 0 0 0 85 254c.8.1 1.7.3 2.4.6a8 8 0 0 1 3.3 2.6c2 2.5 3.2 5.4 4.3 8.3a85.9 85.9 0 0 1 4 15.9 9.5 9.5 0 0 0 6 7.6l6.4 3a82 82 0 0 1 28 23.7c3.5 4.7 6.9 9.6 11 13.8 1.4 1.4 2.8 2.7 4.5 3.7 2 1.2 4 1.2 6-.1l3.5-2.6c1-.8 1.4-1.7 1.7-3 1.1-5 3-9.7 6-14 2.7-3.8 6.1-6.8 10.6-8.3 1.6-.5 3-1.3 4.5-2.2 2.1-1.5 4-3.3 5.9-5.2 2.6-2.8 5-5.8 7.1-9a123.2 123.2 0 0 0 12.8-23.7c.3-.8.4-1.6.3-2.5l-.1-2c0-4.3-.2-8.8.1-13.2l.3-6.7a58 58 0 0 0-1.2-13.2 36 36 0 0 0-3.9-10.5c-.6-1-1-2.1-1.5-3.2a111.5 111.5 0 0 1-7.4-25.8c-.7-4.2-1.6-8.3-3-12.2a43 43 0 0 0-6.1-11.3 24.3 24.3 0 0 0-7.9-7l-1-.4c-.5 0-.8.2-.8.7l.3 1.3c.7 2.8 1 5.6 1 8.5 0 1.6.4 1.8 2 1.5 1-.2 2-.2 3 .5.4.2.6.4.8.8.3.4 0 .8-.5.8-.3 0-.7-.2-1-.4-1-.4-2-.4-3 .1l-1.2.7-2.5 1.7c-3.5 2-7 1.9-10.4-.4l-2.4-1.6a9 9 0 0 0-5.3-1.6l-2 .2c-.5 0-1 .2-1.2-.3-.1-.4.2-.8.8-1v-.1c1-.1 2-.4 3-.3 1.6 0 3 .5 4.5 1.1 1 .5 1.5.3 1.9-.8l.1-.5a49 49 0 0 0 1.9-10c.1-1.9-.4-2.2-2.2-1.7a172.6 172.6 0 0 1-15 3.7c-.5.2-.6.6-.2 1l.3.3c1.2 1.1 2 2.4 1.9 4.2v1.3a2 2 0 0 1-.6 1.6 15 15 0 0 1-3.7 2.8l-2.8 1.2c-.3 0-.5.2-.9.4.8.5 1.5.6 2.2.7a20.8 20.8 0 0 1 13.4 6.8c.6.9 1.2 1.9 1 3l-1.2 3c-.2.4-.6.7-1 1a9.4 9.4 0 0 1-5.8 1.2c-1.7-.2-3-1.1-4.1-2.1-2.5-2-5.1-3.7-8.1-4.7l-5-1.5-2.7-1c-1.2-.7-1.5-1.5-1-2.7l.3-.6c.3-1.1 1-1.8 2.2-2l2.6-.6c.4 0 .8-.2 1.2-.4v-.2l-.8-.3-2.2-.6c-2-.5-4-1-5.9-2-1-.5-1.6-1.4-1.6-2.5v-2.2c0-.4.1-1 .3-1.3.3-.8 1-1 1.6-.8l.7.4c3.9 1.8 7.4 1.1 10.8-1.2l.6-.7-.6-.2h-2l-6.6-.1a35 35 0 0 1-12.7-2.9l-1.7-.7c-1-.4-1.5 0-1.5 1v1.8a24.6 24.6 0 0 0 3.1 10.8c.5 1 1 1 1.9.7l.6-.3c.6-.3 1.3-.4 2-.3.5 0 1 .3 1.4.6.3.1.4.5.2.8-.1.2-.4.3-.7.3l-.6-.1c-1.2-.3-2.1.1-2.9 1l-1 1.3a7.5 7.5 0 0 1-6.5 3.3c-1.4 0-2.9-.4-4.2-.8-1.4-.5-2.7-.4-3.7.8-.3.3-.7.6-1.2.5-.7-.3-1.2 0-1.7.5-.6.6-1.2 1.2-2 1.6-2.4 1.5-5 .5-6-2-.5-1.2-1.1-2.5-1.3-3.9-.2-2.3 0-4.4 1.2-6.5a16 16 0 0 1 5-5.1l4-2.7.7-.5c-.6-.5-1.2-.3-1.7-.3H102a20 20 0 0 1-6.4-1.5 2 2 0 0 1-.8-.5c-.2-.2-.3-.6-.3-.8.1-.2.4-.4.7-.5h3.5l8.8.3c.7 0 1.3 0 2 .2 1 .3 1.2 1.2.5 2l-.5.6Zm118 91.3a25 25 0 0 0-.4-5.2c-.7-3.6-2-7-3.4-10.4l-5.2-12a67.6 67.6 0 0 1-4.2-13.3 279 279 0 0 0-4.1-18.6c-2-7.4-4.5-14.6-8-21.3a45.7 45.7 0 0 0-9-12.4 26.2 26.2 0 0 0-13.8-7c-.8 0-1 .4-.8 1.2a4.4 4.4 0 0 0 2.7 3 22 22 0 0 1 8 5.5c2.6 2.7 4.6 5.7 6.3 9a55 55 0 0 1 5 15.8c.8 4.5 1.6 9 2.8 13.3a86.2 86.2 0 0 0 7 18.4 42 42 0 0 1 4.6 17.7c.2 3.1 0 6.2-.1 9.3l-.3 9.6.3 8.7c0 1.2-.1 2.4-.6 3.5l-3.4 7.3c-2.1 4.4-4.5 8.7-7.2 12.9a74.5 74.5 0 0 1-11.9 15 24.6 24.6 0 0 1-8.8 5.5 21.4 21.4 0 0 0-11.1 9.9 41.2 41.2 0 0 0-4.5 12c-.2 1-.5 1.7-1.2 2.3l-4.6 3.5a6.4 6.4 0 0 1-7 .4 20 20 0 0 1-4-3c-3.5-3.3-6.4-7-9.2-10.9a92 92 0 0 0-21.1-21.6c-5-3.6-10.3-6.6-16-9a9.5 9.5 0 0 1-4-2.7 12.1 12.1 0 0 1-2.8-6.2c-.8-5.1-2-10.1-3.8-15-1-2.8-2.1-5.5-4-8a6.9 6.9 0 0 0-4.7-3c-1.6-.1-3-.7-4.3-1.7a12 12 0 0 1-3.9-4.9c-1.4-3-2-6.1-1.2-9.4l1.2-3.1c.8-1.7 1-3.3 0-5-.3-.4-.3-1-.4-1.6l.3-1.2a53.5 53.5 0 0 1 7.4-18.4c1-1.6 2.2-3.3 3-5 2.2-4.3 3-9 3.2-13.7v-6l-.6-4.8c-.2-1.4-.5-2.8-.4-4.2.2-2 .3-3.9.2-5.8l-.4-4.9c-.4-2.7-1.3-5.2-2.6-7.6-1.2-2.2-3-3.8-5-5l-.8-.6c-.1-.2-.2-.6-.1-.8 0-.2.4-.3.6-.3l1.1.2c3 1 6.1 1.7 9.3 1.8 4 .3 8.1 0 12.1 0 2.7-.2 5.4-.2 8 0 1.5.2 2.2-.3 2.8-1.5.3-.8.1-1.4-.7-1.7-1.6-.5-3.2-1-4.8-1.3-2.3-.4-4.5 0-6.5 1s-4.1 1.7-6.4 1.8c-2.7 0-5.4-.2-8-.7l-9.6-1.8a16 16 0 0 0-3.3-.3c-1.3 0-1.8.7-1.3 2l1.1 2.3 4.5 6.2c1.4 2 2.6 4.2 3.4 6.6.6 2 .8 3.9.5 5.9-.3 1.7-1 3.3-1.8 4.9l-3.8 7.3c-2 4.2-3.3 8.7-3.8 13.4-.3 2.5-.4 5-.6 7.6l-.4 5.2c-.4 4.4-1.3 8.7-2.5 13-1 3.5-2.2 7-3.2 10.7a39.8 39.8 0 0 0 1.1 26.3 119 119 0 0 0 18.5 33.9c3 4 6.4 7.7 10.1 11.1l5.3 5c4.5 3.8 9.1 7.4 13.8 11l13.5 10.2c4.9 3.9 9.4 8.2 13.3 13 1.4 1.7 3 3.2 5 4.3 1.7 1 3.6 1.6 5.7 1.5a16 16 0 0 0 7-2.2c3-1.6 5.5-3.7 7.9-6 2.6-2.4 5-5 7.3-7.7 4.7-5.6 9.1-11.6 13.4-17.7 5.1-7.1 10-14.3 15.2-21.4 3.3-4.7 6.8-9.3 10.3-14 3.7-4.9 7.1-10 9.6-15.6 2-4.5 3.3-9.1 3.3-14.5ZM18.5 19.7c.7 1 1.6 1.5 2.5 2a34 34 0 0 0 8.5 3.6 40 40 0 0 1 8.7 3.3 22.3 22.3 0 0 1 12.4 25c-.3 1.6-.8 3.2-1.5 4.7-1 2.2-2.6 3.4-5 3.3a11 11 0 0 1-5-1.3l-4.3-2.5c-.4-.3-.8-.6-1.3-.4-.4.2-.6.5-.9.8-1.6 2-3.8 3-6.3 3.1-2.4.2-4.6-.3-6.7-1.3a4 4 0 0 0-.9-.4c-.5 0-.8.1-.7.7l.3 1c.4 1.3.9 2.6 1.2 4 .7 3.3.3 6.5-1.9 9.3l-3 3.2c-2 1.6-4.1 2.8-6.4 4-.4.1-1.1.3-1 1 0 .5.7.5 1.2.6l3.4 1c2.4 1 4.5 2.2 6.1 4.1A14 14 0 0 1 21 99.3c-.3 3.9-2 7.1-4.8 9.8l-.5.7c-.3.5-.2.8.4 1h.6l2.1.3c4.3.6 7.2 3 9 6.7 1.6 3.2 2 6.6 1.7 10.1-.3 3.8-1.4 7.3-3 10.6l-.6 1.8c-.2.4 0 .6.5.5a5 5 0 0 0 1-.4c1-.4 2-1 3-1.3 1.8-.8 3.7-1.7 5.6-2.3 2.8-.9 5.6-1.5 8.5-1.3 3.8.3 6.7 2 8.6 5.3 1.4 2.2 2.6 4.5 3.8 6.8 3.2 6.3 7 12.3 11.4 17.8a82.4 82.4 0 0 0 10.7 11c.5.1.8-.2.7-.6a20.7 20.7 0 0 0-1.2-1.7 182.3 182.3 0 0 1-24.7-37.6l-5.4-11.7-5.5-12a24 24 0 0 0-3-4.8c-1.5-1.8-3.3-3.2-5.8-3.3a2 2 0 0 1-1-.3l-.3-.5c0-.2.3-.5.5-.6h.5c1.5-.2 2.8.2 4 .9 1.8 1 3 2.4 4.2 4a56 56 0 0 1 4.7 9c2.4 5.4 4.7 10.7 7.2 16a167.5 167.5 0 0 0 25 39l1.2 1.3c.6.5 1.2.2 1.3-.6.1-.4 0-.9-.3-1.3l-2.7-3.5a202.1 202.1 0 0 1-14.6-20.8c-3.3-5.7-6.2-11.6-8.5-17.7l-6-16.3c-1.4-3.8-2.7-7.5-4.5-11a24.5 24.5 0 0 0-5.5-7.5c-3-2.5-6.2-3.5-10-2l-.6.3c-.4 0-.7 0-.8-.3 0-.2 0-.6.2-.8l1-.7c3-1.2 5.8-.9 8.6.6 2.3 1.2 4 3 5.6 5.1a37 37 0 0 1 5.2 9.8l6.4 17.5a118.3 118.3 0 0 0 13 26.7 213.3 213.3 0 0 0 12.7 17.3c.2.2.5.5.8.3.2-.2.3-.6.2-.8 0-.7-.2-1.3-.4-1.8-.8-2.3-2-4.2-3.4-6.1-2-2.7-3.9-5.3-5.5-8.2A174 174 0 0 1 56.9 116l-7-22.3c-.5-1.4-.9-2.9-.9-4.4 0-.6-.3-1.2-.7-1.6L45.6 85c-2-2-4.3-3.7-7-4.9-1.7-.8-3.6-1.3-5.5-1.4a12 12 0 0 0-7.5 2.1l-1 .5c-.2.1-.6.1-.8 0-.4-.2-.4-.6-.3-1 0-.3.3-.7.5-1a21 21 0 0 1 10.6-9c1.5-.5 3.1-.8 4.7-1.2.5 0 1 0 1.3-.8-.3-.3-.6-.8-1-1-.7-.8-1.6-1.5-2.4-2.2l-1.7-1.6c-.3-.3-.5-.8-.3-1.2.3-.4.7-.5 1.2-.4l1 .3c3.8 1 7.7 1.8 11.6 1.7 2.1-.1 4.1-.4 6-1.4l.8-.4c.3 0 .5 0 .7.2v.6a2 2 0 0 1-.6.7 9.8 9.8 0 0 1-3.7 1.4 25 25 0 0 1-8 .1l-3.1-.4c-.3 0-.9 0-1 .2-.3.4.1.8.4 1l2.2 2c.4.3.8.6 1 1 .6.7.3 1.4-.5 1.5l-1.3.2h-2c-3 .3-6 1.3-8.5 3-1.2.8-2.2 1.8-3.2 2.7-.3.3-.6.7-.5 1.2.6.3 1.1.1 1.7 0 2.5-.6 5-.4 7.6.4 3.7 1.1 6.8 3.3 9.6 6 2.6 2.4 5 5.2 7.3 8 .2.3.6.5 1 .8h.1v-.8c-.2-1.5-.5-2.9-.5-4.3-.2-3 .3-5.9 1.4-8.6 1-2.8 2.6-5.3 4.9-7.3 3.3-3 7.4-4.2 11.7-4.6 3.2-.3 6.4 0 9.5.5a57.2 57.2 0 0 0 22.2-.6l9.7-2.6a21.5 21.5 0 0 1 12.3.4c.7 0 1-.2 1-.9V63c0-2.2.8-4 2.5-5.3 1.2-1 1.1-1.4 0-2.3l-.3-.2a8 8 0 0 0-4.3-1.4 14 14 0 0 1-4.6-1 23 23 0 0 1-5-3l-4.2-3.2c-2-1.2-4.3-1.7-6.7-1.4-1.6.1-3.2 0-4.7-.7-1-.4-1.8-.9-2.6-1.4-1-.5-2.1-1-3.3-1-1.2 0-2.4.2-3.6.5-1.8.4-3.7.7-5.5.2-1.3-.3-2.5-.8-3.7-1.4a13 13 0 0 0-5.8-1c-2 .1-3.8.2-5.6-.4-1.7-.5-3.3-1-5-1.7-1.7-.7-3.5-1.2-5.3-1.6-.5 0-1-.1-1.4.4-.4.5 0 .9.1 1.3l.2.3 1.2 3.2c.2.4.2.8.2 1.1 0 .5-.7.7-1 .4a3 3 0 0 1-.5-1l-.8-1.9a21.4 21.4 0 0 0-6.4-8.8 30.3 30.3 0 0 0-7.4-4.2 75 75 0 0 0-12.5-3.7c-4.1-.8-8.1-2-12-3.8l-.7-.3ZM75 68.5c-1.6 0-3.6.2-5.6.6a15.8 15.8 0 0 0-12 10 20 20 0 0 0-1.3 10.1 12.7 12.7 0 0 0 7.5 9.9c2.8 1.5 5.7 2.3 8.8 2.9 2.5.5 5 .8 7.6 1l6.5.2 6.2-.3c3.6-.2 7.2-.8 10.7-1.7A34.1 34.1 0 0 0 122 88.8c2-2.2 3.9-4.4 6-6.4 2.6-2.7 5.7-4.6 9.4-5.5l1.2-.3c.7-.3.9-.7.5-1.4l-.3-.4c-.7-1-1.3-2.2-1.7-3.5l-1-4-.7-1.3c-.6-.7-1.5-.6-2 .2l-.4.8-1.3 1.4c-.7.5-1.6.2-2.3-.3-.7-.4-1.3-.9-2-1.2-4-1.7-8-2.1-12.2-1.2l-8 2a56.7 56.7 0 0 1-23.1 1.7c-2.9-.5-5.7-.9-9-.9Zm105.8 27.2h2.6c3.6-.2 7-.8 10.3-2.4 2.7-1.3 4.8-3.3 6.2-6 1.2-2.2 1.6-4.7 1.7-7.2v-3.4a10 10 0 0 0-2.9-6.7 16 16 0 0 0-5.5-3.5 41 41 0 0 0-14-3 96 96 0 0 0-11.9.3l-8 1c-1.3 0-2.3.4-3 1.6-.7 1.2-2 1.3-3.1.3l-.7-.6c-.6-.6-1-.5-1.3.4l-.2 1c-.3 2-.7 4-1.5 5.9l-.9 1.5c-.5 1-.3 1.4.7 1.7l1.1.2c2.8.5 5.2 1.6 7.4 3.3 1.7 1.3 3 3 4.2 4.7 1.2 1.7 2.3 3.5 3.6 5.1 1.8 2.4 4.1 4 7 4.8 2.6.9 5.4 1.1 8.2 1ZM9.8 14.5l-.2.8.4 2.9c.2 1.3.5 2.6 1 3.8.7 1.3 1.7 2 3 2h2c1.8 0 2.9.7 3.4 2.4.3 1 .5 2.3.6 3.4.2 2.3.9 4.3 2 6.2 1.1 1.8 2.5 3.3 3.9 4.8l4 4.5c2 2.6 3.5 5.4 3.8 8.7.1.9.6 1.5 1.3 2l2.3 1.6c1.8 1.1 3.6 2 5.7 2.4 2.3.4 3.8-.4 4.7-2.3a21 21 0 0 0 1.6-7c.3-2.7 0-5.5-.9-8.1-1-3.4-2.8-6.2-5.3-8.6-3-2.9-6.6-4.8-10.6-6.1l-6.3-2A31.8 31.8 0 0 1 13.4 18l-2.6-3c-.2-.4-.5-.7-1-.6Zm99 86.8v.2l1.2.3c1.5.3 2.7 1.2 3.4 2.6l.7 1.8c.3.8.7 1 1.4.7l.7-.4c1.1-.8 2.3-1.5 3.3-2.4 2.6-2.4 4.7-5.3 6.6-8.4.6-1.1 1-2.2.8-3.5-.1-2.5.5-4.8 1.9-6.8 1-1.4 2.6-2.4 4.4-1 .8.6 1.2.4 1.6-.5l.5-1.3c.8-1.4 2.2-1.6 3.3-.5l1.6 2c.5.9.8 1 1.5.3 1.3-1 2.3-1 3.5.2a13 13 0 0 1 2 3c.2.4.3.9.6 1.3.3.5.7.5 1 0l.8-1.4c.4-1 1-2 1.8-2.7 1-.8 2-.7 2.9.3l.6 1 .4.8c.4.6.7.6 1.2 0l.2-.2a4 4 0 0 1 2.2-1.9c.6-.1.7-.5.4-1l-1-1.2a14.9 14.9 0 0 0-8.3-4.3c-3-.6-6.2-.7-9.3-.4a19 19 0 0 0-8.1 2.7c-2 1.2-3.7 2.9-5.3 4.5-2.1 2.2-4 4.5-6 6.8a34.7 34.7 0 0 1-7.6 6.4l-4 2.2-1 .8Zm48-45.9c-.7 0-1.3 0-2 .2l-2.2.3c-.2.1-.5.3-.6.6 0 .2.2.5.4.6l1.1.7 1.6 1c1 .8 1.4 2 1.8 3.1.2 1 .7 1.4 1.8 1.4h.4l5-.6a76.9 76.9 0 0 1 16.8-.5c3.2.2 6.4.8 9.6 1.7l2 .6c1 .3 1.5-.1 1.2-1.1a18.9 18.9 0 0 0-8.7-11.6c-1.1-.6-1.7-.5-2.6.4a15 15 0 0 1-2 1.7 16 16 0 0 1-10 2.6c-2.8 0-5.6-.4-8.3-.7l-5.3-.4Zm-1.3 8.2a5 5 0 0 0-2.6-4.5l-2.3-1a6.6 6.6 0 0 0-4.2-.4l-2.1.5-3.7.6c-1.1 0-2.2-.3-3.4-.6a9 9 0 0 0-5 0c-3.7 1-4.3 5-2.4 8l.2.2c.6.6 1.2.6 1.6-.2l.6-1.1a2.4 2.4 0 0 1 3.4-1c1.3.9 1.8 2 2.1 3.5l.6 2.4a12 12 0 0 0 2.1 4.4c1.6 1.8 4 2.3 6 .7.6-.5 1-1.1 1.4-1.8 1-1.8 1.4-3.9 1.7-5.9.2-1 .3-2 .7-2.9.6-1.4 2.1-1.5 3-.3l.7 1c.5.5 1.1.4 1.4-.3l.2-1.3Zm25-14c.4-.1 1-.1 1.2-.6.2-.5-.2-.9-.5-1.2l-.9-.8-3.4-2.2a15 15 0 0 0-9-2.3l-5.3.4c-1.4 0-2.8.2-4.3 0-3.3-.5-6.2-1.8-9-3.7-2.2-1.6-4.4-3.3-6.7-4.8a22 22 0 0 0-10.8-3.9c-2.2-.1-4.4.1-6.5.7-1 .3-1.2.9-.6 1.7a8 8 0 0 0 4.6 3.2l2 .2c1.5.2 3 .5 4.3 1.2 1.6.8 3 2 4.3 3.3a11 11 0 0 1 2.8 4c.3.7.8 1 1.5.8h.8l4.8-1a29 29 0 0 1 13.6.6c4 1.2 7.8 2.3 11.8 3.3 1.7.5 3.5.7 5.3 1.1ZM139.4 160l3.3-.2c3-.1 6-.5 9-1a151.5 151.5 0 0 0 18-4.4c.7-.4 1-1.3.7-2.2-.2-.8-.7-1-1.7-.8h-.5a45 45 0 0 1-8 1.5l-10.6 1c-3.1.3-6.2.8-9.3.5l-7.5-.4-8.6-1-2.6-.5c-.5-.1-1 0-1.3.5-.7 1-.4 2.3.8 2.9a41.3 41.3 0 0 0 18.3 4Zm31.4-15.7c-.3.7 0 1.2.1 1.8a32 32 0 0 1 1 11.5 49 49 0 0 1-1.2 8.5l-1 4c-.2.7 0 1.3.5 1.7l.8.5a8 8 0 0 0 7.8-.2 3 3 0 0 0 1.7-2.7 34.3 34.3 0 0 0-8.8-24.5c-.3-.3-.6-.4-1-.6Zm-.5-126.6h-.3l-1.2 1.5-3 5a41.1 41.1 0 0 0-4.3 7.3 17.7 17.7 0 0 0-1.7 8c0 1.4.7 2 2 2l5.1-.4c2-.2 4-.2 6 .3l1 .3c.9.1 1.3-.2 1-1 0-.7-.2-1.3-.5-1.8-.9-2-1.8-4-2.8-5.8-.8-1.8-1.3-3.7-1.5-5.7a40 40 0 0 1 .3-7.7c0-.6.2-1.4-.1-2ZM110.7 44v.3l.8.7 2 1.3 4.3 3.2c2 1.5 4.2 2.5 6.7 2.7 1.6.1 3.1.3 4.5 1 1.2.6 2.2 1.4 3.1 2.2.7.6 1.5.8 2.3.9 1 0 2.2.2 3.2.5a11.3 11.3 0 0 0 7.4-.5c.4-.3.5-.6.3-1l-.4-.5a16 16 0 0 0-9.3-4.5c-2.7-.3-5.2-1-7.5-2.6l-3.5-2.3A11.8 11.8 0 0 0 117 43l-5.5.7c-.3 0-.5.2-.8.3Zm8.8-4.7v-.2a12 12 0 0 1-5.2-3.1l-1.9-1.7c-1-.9-2-1.2-3.3-1-1.2.1-2.3 0-3.4-.2a37 37 0 0 1-7.2-2.5 21.3 21.3 0 0 0-19.3.3c-1 .5-1 1 0 1.6l.2.1 2.7 2a6 6 0 0 0 3.7 1.5h3.4l8.7-1.4a15 15 0 0 1 5.6 0 9 9 0 0 1 4.6 1.9l1.4 1.4a7 7 0 0 0 4 2c1.5.2 3 .1 4.5-.2.5 0 1-.3 1.5-.5ZM109 131v-1.1c0-1.4-.3-2.8-.3-4.3a32.5 32.5 0 0 1 3.4-16c.7-1.3.7-2.7 0-4.2-.7-1.7-2.4-2.4-4.2-1.6-1 .4-1.8 1-2.4 1.8-2 2.2-3 4.8-3 7.7l.1 3.7c0 2.9.5 5.7 1.6 8.3a12 12 0 0 0 3.2 5c.4.4.8.7 1.6.7Zm10.2 18c-.8.3-1.2.8-1.6 1.2a26.9 26.9 0 0 0-5.6 15c0 2.3 0 4.4.2 6.6 0 1 .3 2.1.5 3.2.1.9.7 1.4 1.5 1.7a9 9 0 0 0 4.3.3c1.2-.2 2.3-.7 3.2-1.6.6-.6.7-1.3.4-2.1l-.7-1.4c-1-2-2-4.1-2.4-6.4l-.8-5.2v-4.4c.2-2 .7-3.8 1-5.8v-1ZM170 10l-.4.5-.7 1.6a43.8 43.8 0 0 1-5 9c-1.4 2-3 3.7-4.9 5.2-1.6 1-3.3 2-5 2.7a18 18 0 0 0-7 4.5c-.8 1-.8 1.6.2 2.4l3.3 2.4c1.8 1.3 3.7 2.2 5.8 2.7 1.4.4 2 0 2-1.5v-.1c0-1.2 0-2.4.2-3.6.4-2.7 1.5-5.2 2.9-7.5l5.9-9.6c1.3-2.3 2.4-4.6 2.8-7.2 0-.4.2-1-.1-1.5Zm-1 113.2c.8 0 .8-.1 1.4-.6 2.6-2.5 4.4-5.5 5.9-8.7 1.5-3.5 2.4-7.1 2.9-10.9.2-1.8-.5-3.1-2.1-4a7.3 7.3 0 0 0-3.6-.6c-1 0-2 .2-2.8.7-1.5.8-2 2-1.5 3.5l.4 1a24 24 0 0 1 .7 14c-.3 1.6-.8 3.1-1.2 4.7l-.1 1ZM144.2 175H141c-.8 0-1.6.2-2.3.4-.6.2-.6.7-.1 1l1 .5 2 .5c4.4 1.2 8.5 3.1 12 6.1l1.4 1c2.2 1.3 4.3.9 6.4-.2 1-.5 1.1-1.3.6-2.3l-1.1-1.5a18.5 18.5 0 0 0-7.7-4.5c-3-.9-6-1.1-9-1Zm-101-38-4.2.7c-1 .2-1.2.7-.6 1.6a13 13 0 0 1 1.8 7.3l-.2 3c0 .4-.2 1 .3 1.1.5.3.8-.2 1.1-.5l2-1.8c2.4-2.2 5-4 8.6-3.9.7 0 1-.4.7-1L52 142a9.8 9.8 0 0 0-2.8-3.2 11 11 0 0 0-6-1.8Zm55.3 37 .4 2.6c.6 1.8 2.3 2.4 4 1.5 1-.6 1.8-1.4 2.2-2.5l.7-2.9c.3-1.8 1-3.4 2.5-4.5l1.3-1c.3-.4.6-.7.7-1.1l.3-3c0-.7-.4-1-1-1-.8 0-1.4.3-2 .7a43.4 43.4 0 0 0-6.4 4.8 9.2 9.2 0 0 0-2.7 6.4Zm58-120h1.3l6.9.6c1.2.1 1.7-.2 2.2-1.3.5-1 .6-2 .6-3.1 0-1.6-.5-2.2-2-2.6l-4.4-1.2c-1.6-.4-3.3-.7-5-.6-.8 0-1.5.1-2 .9a7 7 0 0 0-.6 6.4c.2.6.7 1 1.4 1h1.5Zm-54.7-24.2c.3.6.2.6.8.8 2 .9 4.2 1.6 6.5 1.2a5 5 0 0 1 4.2 1.4l3.1 2.7c1.3 1.1 2.7 1.8 4.4 1.3h4.3l1-.2-.7-1.1a93.9 93.9 0 0 0-3.5-3.6 15.2 15.2 0 0 0-6.5-3.1c-3-.8-6-1-9-.8-1.2.1-2.3.4-3.5.7-.5 0-1 .2-1.1.7ZM7.3 99.6c.6.4.7.4 1.5.5l2.6.2c2 .2 3.9.6 5.6 1.6 1 .6 1.7.6 2.1-1v-.2a14 14 0 0 0-.2-7.3 9.6 9.6 0 0 0-2.7-4.3c-.7-.8-1.3-.6-1.8.4l-1 2.4c-1.2 2.6-3 4.7-5.2 6.5-.4.3-.8.6-.9 1.2Zm20.8 26.3-.4-3.5C27 119.6 26 117 24 115c-.4-.3-.8-.8-1.4-.6-.6.2-.5.9-.5 1.3-.2.9-.2 1.8-.5 2.6-.5 1.9-1.6 3.5-3 5-.4.2-.7.6-1 1-.4.4-.2.8.3 1l1 .2c2.7.4 5 1.6 7.2 3.4l.6.4c.4.3.8.2 1-.3l.2-.7.2-2.5ZM80.3 105v-.2l-1-.3-3.6-.5c-3.6-.4-7-1.1-10.3-2.4-1.5-.6-3-1.4-4.4-2.1l-1-.4c0 .7.4 1.2.7 1.6l4.8 5.5 3.5 3.4c.3.3.8.7 1.3.7 1.3.1 2.7-.1 3.6-1.3l1.4-1.6c1-1 2.4-1.5 3.8-1.9l1.2-.5Zm52.8 60.4c.1.7.3 1 1 1.2l3.1 1.1c2 .7 4.2 1 6.4 1.1 2.5.1 5-.2 7.1-1.4a7 7 0 0 0 2.5-2c.3-.5.4-1 .1-1.6a2.6 2.6 0 0 0-2.5-1.6c-.9 0-1.8 0-2.7.3-1.5.3-2.8 1-4.1 1.8a12.5 12.5 0 0 1-9.8 1.2l-1.1-.1ZM84 105.2l1.5.8c1.2.7 2.3 1.5 3 2.6.9 1.2 1.3 1.2 2.4.3 2.3-2.2 6.3-3.2 9.5-1 1 .7 1.4.6 1.9-.4.8-1.7 2-3 3.3-4.4l.5-.7c-.9-.2-1.6 0-2.2.2-4 1-8.1 1.7-12.2 2l-5.8.1c-.6 0-1.2 0-2 .5Zm23-62-.9-1-2-2a7.7 7.7 0 0 0-4.5-2c-1.5-.3-3-.1-4.4 0-3.8.6-7.6 1.2-11.5 1.2-.4 0-1 0-1.3.4 0 .5.4.6.7.8a8 8 0 0 0 4.8.9l4.2-.8c2-.4 4 0 5.7 1l1.3.8c2.2 1.3 4.6 1.3 7 1 .3 0 .5-.2.8-.3ZM74.8 111c0 .4.2 1 .4 1.4.4 1 .9 1 1.5.2.4-.6.9-1 1.5-1.3 1.8-.7 5.1-.6 6.7 1.9l.5.6c.2.4.6.5 1 .4 1.2-.4 2.1-1.9 1.7-3.1a6 6 0 0 0-3-3.6 8 8 0 0 0-5.9-.5c-1.2.3-2.2.7-3.1 1.6-.7.6-1.3 1.3-1.3 2.4Zm59.6-18.4c-.1-2.2-.7-4.2-1.5-6l-.6-.9c-.6-.5-1.1-.6-1.7-.1l-1 1a11 11 0 0 0-1.2 3.6c-.1 1-.2 2.1.2 3.1a129 129 0 0 0 2.6 5.3c.3.7 1 .9 1.5 0 1-2 1.5-4 1.7-6Zm6.2 1.6a21.6 21.6 0 0 0-2-9.5c-.2-.5-.6-1-1-1.3-.4-.4-1-.3-1.2.3-.2.4-.4 1-.4 1.4l-.2 5.2.3 2 2 6.9.2.7c.3.5.7.5 1 0l.5-1c.6-1.6.8-3.2.8-4.7ZM18 70c0-1-.4-1.3-1.2-1.1l-2 .4c-2 .3-4 0-6-.4l-1.4-.3c-.6 0-.8.3-.5.8l.8 1a16 16 0 0 1 3.2 6.2c.3 1 .9 1.2 1.8.6 1.8-1.3 3.3-2.8 4.4-4.7.5-.8.8-1.7.9-2.5Zm144 18-.3.2v1c0 1 .2 2 .4 3 .4 2.2 1 4.5 2.3 6.5a11 11 0 0 0 1.8 2c.5.5 1 .3 1.3-.2l.2-.4a5 5 0 0 1 2.8-2.6l1-.5c.4-.3.5-.5.1-.8l-.9-.5c-2.8-1.1-5-3-6.8-5.4l-1.3-1.7-.7-.5Zm-20 1.4c0 .7.2 1.5.4 2.3.3 1.4.8 2.7 1.2 4l1.1 3.4c.4.9 1 1 1.5.2 1-1.3 1.5-2.8 1.3-4.3 0-2-.6-3.8-1.3-5.6a11 11 0 0 0-1.6-3.3c-.3-.4-.7-.7-1.3-.6-.6.1-.8.6-.9 1l-.5 2.9Zm12.6 2.6c0-1.6-.3-3.2-.8-4.6-.2-.6-.4-1.2-1-1.2-.7-.1-1 .5-1.4 1-1 1.8-1.7 3.7-2.2 5.7v1c.6 1.5 1 3 1.7 4.3.3.9.9 1 1.5.2l.3-.3c1.1-1.9 1.8-4 2-6.1Zm-54 19c0-.4-.4-1.2-1-1.7a5.1 5.1 0 0 0-4.3-1 5.9 5.9 0 0 0-4.7 3.6c-.3.7-.1 1.4.4 2 .6.7 1 .6 1.5-.2l.3-.5c1-1.8 3.1-2.4 5-1.2l1 .7c.3.2.6.3 1 0 .5-.4.8-1 .9-1.7ZM83 37.4l-.6-.7-1.6-1.4a8.6 8.6 0 0 0-8.6-1.8c-.4.2-1 .2-1 .8-.1.6.4.7.8 1a23 23 0 0 0 8.5 2.4c.8 0 1.6.3 2.5-.3ZM26 59.8a7 7 0 0 0 4-1.3 5 5 0 0 0 2-2.4c.4-1 0-1.5-1-1.6h-2l-2.1-.8c-1-.3-1.4 0-1.5 1l-.3 1.8-.7 2c-.2.8 0 1.2.8 1.3h.5ZM125.6 39v.3l1.3.7c1.4.8 2.6 1.7 3.7 2.9l2.5 2.7a6 6 0 0 0 3.6 1.8c.3 0 .9.2 1-.3.1-.2-.2-.7-.4-1-.8-.8-1.5-1.9-2-3-.6-1-1.3-1.7-2.2-2a27 27 0 0 0-4.5-1.6c-1-.3-2-.3-3-.5Zm30.7 53.1 1 4.5c.2.7.8.7 1.2.2.3-.3.5-.8.7-1.2.6-1 1.2-2.3 1.2-3.5-.1-1.4-.5-2.7-.8-4 0-.5-.3-1-.9-1-.5 0-.7.3-1 .7l-.2.6a57 57 0 0 0-.9 2.3l-.3 1.4ZM121 41.6c.3.2.6.5 1 .6 1.6.8 3.1 1.7 4.6 2.7 1.3 1 2.6 1.7 4 2.4.3.2.8.3 1.3.4.3.1.5 0 .6-.4-1-1-1.9-2.2-2.8-3.3a8.2 8.2 0 0 0-7.4-3c-.5 0-1 0-1.3.6Zm-9.1 0-1-.7c-1.2-.7-2.3-1.6-3.3-2.6a6.8 6.8 0 0 0-4.2-2.1c-.7-.1-1.4-.3-2 .2v.3l.8.5c1.6.7 2.8 1.8 4 3 .9 1 1.9 1.6 3.1 1.8.8.2 1.7.3 2.6-.4Zm-37.4-3.2-.6-.5-1.7-.9c-1.7-.8-3.4-1.6-5.4-1.7-.6 0-1.3 0-1.9.2-.2 0-.5.3-.5.5s.2.4.4.6l.4.2c1 .4 2.2 1 3.3 1.3 1.2.4 2.5.6 3.8.8.7.1 1.5.1 2.2-.5Zm57.7 0v.2l1.1.7c1.5.7 2.7 1.7 3.4 3.2.4.8 1 1.6 1.5 2.2a10 10 0 0 0 2 1.6c.2.1.7.2.9 0 .2-.1.2-.6.1-.9-.2-.7-.5-1.4-1-1.9-.8-1-1.8-2-2.9-3a9 9 0 0 0-3.6-2c-.5-.2-1-.3-1.5-.1Zm54.5 59.1c0-.2-.2-.3-.5-.4h-1.4c-1.4.2-2.7.4-4 .2-.5 0-1 0-1.5.2-.5 0-.6.4-.4.8.5 1 1.5 1.2 2.4.6l.6-.3c.5-.3 1.1-.3 1.7.1l.7.5.8.2c.5 0 1.6-1.3 1.6-1.9ZM108 175.8v.3c.1.7.3.9 1 .6l1.5-.9c.2-.2.5-.6.5-.9 0-.9-.2-1.8-.4-2.7-.1-.6-.7-.7-1.1-.3-.4.3-.7.7-.8 1l-.7 3Zm78-73.7c0 .8.3 1.3.8 1.4.6.2.8-.3 1-.7.5-1 1-1.9 1.3-2.8.1-.4.1-.8-.2-1-.4-.3-.8-.1-1 .1l-1.7 2.1-.3 1Zm-5 .5.4 1c.2.5.5.6.8.2.6-.6 1-1.3 1.3-2.2 0-.5-.2-1-.6-1.2-.4-.2-.8-.1-1.2.3-.4.4-.6 1-.6 1.9Zm12.3-3v-.4c-.2-.2-.3-.6-.5-.7-.2 0-.6 0-.7.2-.3.2-.5.6-.5.9v1.9c0 .2.3.4.4.5.2 0 .5-.2.6-.4l.8-2Zm-1-3.5c-.7-.2-1.3 0-1.8.2-.3.1-.5.3-.4.6 0 .4.4.5.7.4.7-.2 1-.6 1.5-1.2Zm-22 44.1c.6-.8.7-2 .3-2.7-.4.8-.8 1.6-.3 2.7ZM122.7 39.1v-.2h-1v.2h1Z"/><path fill="#FEED01" d="m109.4 160 .5-.7c.7-.8.5-1.6-.6-1.9l-2-.2-8.8-.3h-3.4c-.3 0-.6.3-.7.5 0 .2.1.6.3.8l.8.5a23 23 0 0 0 6.4 1.5h4.4c.5 0 1-.2 1.6.3l-.7.5-3.8 2.7a16 16 0 0 0-5 5.1 10.5 10.5 0 0 0 0 10.5 4 4 0 0 0 6 2c.8-.5 1.4-1.1 2-1.7.5-.5 1-.8 1.7-.6.5.2.9 0 1.2-.4 1-1.2 2.3-1.3 3.6-.8 1.4.4 2.9.8 4.3.8 2.7 0 4.9-1 6.4-3.3l1.1-1.4c.8-.8 1.7-1.2 2.9-.9l.6.1c.3 0 .6-.1.7-.3.2-.3.1-.7-.2-.8-.4-.3-1-.5-1.4-.6-.7-.2-1.4 0-2 .3l-.6.3c-1 .3-1.4.2-1.9-.7l-1.5-3.4c-.8-2.4-1.4-4.8-1.5-7.4 0-.6-.2-1.2-.1-1.9 0-1 .6-1.3 1.5-1l1.7.8c4 1.8 8.3 2.7 12.7 2.9l6.6.1h2l.6.2-.6.7c-3.4 2.3-7 3-10.8 1.1l-.7-.3c-.7-.2-1.4 0-1.6.8a5 5 0 0 0-.3 1.3v2.2c0 1.1.6 2 1.6 2.5 1.9 1 3.9 1.5 5.9 2l2.2.6c.3 0 .5.2.8.3v.2l-1.2.4-2.6.6c-1.2.2-2 .8-2.2 2l-.3.6c-.5 1.2-.2 2 1 2.6.9.4 1.8.8 2.8 1l4.9 1.6c3 1 5.6 2.7 8 4.7 1.3 1 2.5 1.9 4.2 2 2 .3 4 0 5.9-1.2.3-.2.7-.5.9-.9.4-1 .9-2 1.1-3 .3-1.1-.3-2.1-1-3a20.8 20.8 0 0 0-13.4-6.8c-.6 0-1.3-.2-2-.7l.8-.4 2.8-1.3a11 11 0 0 0 3.7-2.8c.4-.4.6-1 .6-1.5v-1.4c0-1.7-.7-3-2-4.1l-.2-.3c-.4-.4-.3-.8.2-1l1.6-.4c4.6-.9 9-2 13.4-3.3 1.8-.5 2.3-.2 2.2 1.7a50 50 0 0 1-2 10.5c-.4 1-1 1.3-2 .8a11 11 0 0 0-4.4-1.1l-3 .3c-.6.3-1 .7-.8 1 .2.6.7.5 1.1.4l2-.2a9 9 0 0 1 5.4 1.6l2.4 1.6a9.4 9.4 0 0 0 10.4.4l2.5-1.7 1.2-.7c1-.5 2-.5 3 0l1 .3c.5 0 .8-.4.5-.9l-.7-.7c-1-.7-2-.7-3.2-.5-1.6.3-1.8 0-1.8-1.5a35.2 35.2 0 0 0-1.4-9.8c0-.5.2-.8.8-.7a24.3 24.3 0 0 1 9 7.4 43 43 0 0 1 6 11.3c1.4 4 2.3 8 3 12.2a111.2 111.2 0 0 0 9 29 48.5 48.5 0 0 1 4.9 23.7c0 2.2 0 4.4-.2 6.7-.3 4.4-.2 8.8-.1 13.3l.1 2a5 5 0 0 1-.3 2.4 117.5 117.5 0 0 1-12.8 23.7 74.1 74.1 0 0 1-7.1 9 36 36 0 0 1-6 5.2 18 18 0 0 1-4.4 2.2c-4.5 1.5-8 4.5-10.6 8.3-3 4.3-4.9 9-6 14a4.6 4.6 0 0 1-1.7 3l-3.5 2.6c-2 1.3-4 1.3-6 .1-1.7-1-3.1-2.3-4.5-3.7-4.1-4.2-7.5-9.1-11-13.8a82.2 82.2 0 0 0-34.5-26.7 9.5 9.5 0 0 1-5.9-7.6 85.9 85.9 0 0 0-4-15.9c-1-3-2.3-5.8-4.3-8.3a8 8 0 0 0-3.3-2.6c-.7-.3-1.6-.5-2.4-.6a8.7 8.7 0 0 1-5.6-3.6c-1.5-2-2.3-4.4-2.5-7a11 11 0 0 1 1.1-6c.6-1.2 1-2.4 1-3.8a5 5 0 0 0-.5-2.4c-.5-.8-.5-1.6-.3-2.5 1.3-7 4.1-13.3 8-19 3-4.5 4.7-9.4 5.3-14.6.4-3 .5-6 .3-9-.2-2.7-.6-5.3-.9-7.9v-3l.2-4c-.1-4.2-.6-8.3-2.4-12.1l-1.6-2.8-.4-.8c-.3-.6 0-1 .6-1l1.2.1c3.6.6 7.2.5 10.8.4l9.5-.2c.8 0 1.7 0 2.5.2 1 .1 1.3.5 1 1.5l-1 2.7c-.3.8-.8 1-1.8.7Zm31.6 70.2c-.2-1.1-.2-2.3-.5-3.5-1-4-3.7-6.6-7-8.7-1.4-1-3-1-4.7-.3l-1 .3c-4.7 1.5-8 4.7-10.3 9-1 1.7-1.5 3.6-2 5.5a15 15 0 0 0-.5 3.7c0 4 2.3 7.3 6.2 8.4 3.3 1 6.7 1.3 10.1.4 4.3-1.1 7.2-3.6 8.4-8l.8-3.1.5-3.7Zm23 8a10 10 0 0 0-3.8.4 14 14 0 0 0-10 11 8 8 0 0 0 .4 5.5 18.2 18.2 0 0 0 3.1 5.3 16 16 0 0 0 12.6 3.6c3.6-.5 6.1-2.4 7.9-5.5 1.2-2 1.8-4.1 2-6.4.2-2.1 0-4.2-1-6.2l-1-2.4a8.5 8.5 0 0 0-4.1-4.1c-1.9-1-3.9-1.3-6.1-1.3Zm-1.5-15.8c1.3 0 2.6-.2 4-.6 1.8-.7 3-2 3.6-4 .2-.7.3-1.3.7-2a7 7 0 0 0 .6-4.3 23 23 0 0 0-3.2-8.8c-2-3.2-5-5-8.8-5a28.3 28.3 0 0 0-12.2 3.2c-1.4.8-2.4 2-2.9 3.6l-.8 2.2a5.9 5.9 0 0 0-.4 4c.6 2.4 1.9 4.3 3.7 5.9a27 27 0 0 0 15.7 5.8ZM104.9 199c.1 1.3.1 2.6.4 4a7 7 0 0 0 6.1 5.9c2.8.3 5.5.2 8.2-.5 2-.6 4-1.6 5.4-3.3a10 10 0 0 0 2.4-6.5v-4.2a8.5 8.5 0 0 0-6-8 15 15 0 0 0-9.8.1 7.9 7.9 0 0 0-5.3 4.9c-1 2.4-1.3 5-1.4 7.6Zm91-2.4a13 13 0 0 0-1-4.9l-2.2-4a14 14 0 0 0-6.3-6.2 8.9 8.9 0 0 0-10.4 1.8c-1.8 1.6-2.1 3.5-1.1 5.5 1 2.2 2 4.5 3.5 6.5s2.2 4.4 2.3 6.8c.1 2.7 1.4 4.8 2.6 7 .6 1 1.6 1.4 2.7 1.3 1 0 1.8-.3 2.6-.8a14 14 0 0 0 4.5-4.3c1.7-2.5 2.8-5.2 2.8-8.7Zm11.5 37.8-.4-2.6-1.2-3.5a7.6 7.6 0 0 0-2.2-3.4l-3-2.3c-3.2-2-6.5-3.6-10.1-4.6a9 9 0 0 0-3.8-.4c-1.4.2-2.2 1-2.5 2.3-.3 2.1-.3 4.3.2 6.4l1.4 4.9c.8 2.8 2 5.4 4 7.6a12 12 0 0 0 7.9 4.1c5.6.5 9.7-3.3 9.7-8.5ZM125 269l-.3-3.4c-.4-2.4-1.2-4.7-2.8-6.7a6 6 0 0 0-5-2.4 17 17 0 0 0-5.5 1c-1.6.6-3 1.5-3.6 3.1l-1 2a4 4 0 0 0-.6 2.8 26.5 26.5 0 0 0 6.1 14c1.1 1.4 2.4 2.5 4 3.2 1.5.6 3 .7 4.3-.4.6-.6 1-1.3 1.5-2l.8-1.7c1.6-2.9 2-6 2.1-9.5Zm45.3 27.4a15 15 0 0 0 7.5-1.6 8 8 0 0 0 4.6-8l-.6-3c-.8-3.5-2.8-5.9-6-7.4a14 14 0 0 0-6.7-1.5 9 9 0 0 0-4 .8c-3.6 1.8-5.2 4.8-5.5 8.6 0 2 .4 3.8 1 5.6a7.9 7.9 0 0 0 3.7 4.9c2 1.2 4.1 1.7 6 1.6Zm-26.4 3.2 3.5-.4a6.6 6.6 0 0 0 5.4-7 8 8 0 0 0-1-4l-1-2c-.9-2.3-2.4-4.2-4.3-5.7a13.5 13.5 0 0 0-5.3-2.9c-2.9-.7-5.7-.2-8.4 1.2a6.8 6.8 0 0 0-3 3.1 9.4 9.4 0 0 0 0 8.1l1 2.1c1 2.9 3 4.7 5.6 5.9 2.4 1 4.9 1.5 7.5 1.6Zm-38.4-70c0-3.6-2-6.1-5.1-7-1.5-.6-3-.8-4.6-.9-1.2 0-2.3.3-3.2 1.1-.6.5-1.2 1-1.7 1.7a21 21 0 0 0-3.5 6.6 10.7 10.7 0 0 0 2.7 12 14 14 0 0 0 7.8 3.6c2.9.3 4.7-1.3 5.4-3.4.4-1.2.6-2.5.8-3.8l.8-6.1.6-3.9Zm36.8 42.2 2-.3c1.9-.4 3.5-1.4 5-2.7a3 3 0 0 0 1.1-2.6c0-.8-.2-1.7-.5-2.5a18.6 18.6 0 0 0-5.2-7.2 12 12 0 0 0-2.5-1.7 3.4 3.4 0 0 0-3.8.3l-.7.5c-1.4.8-2.1 2-2.4 3.6a17.4 17.4 0 0 0 .5 8 6.9 6.9 0 0 0 6.5 4.6Zm54.8-19.7c-2.2-.1-5.2 1.4-7.2 3.6a16.6 16.6 0 0 0-3.2 6c-.8 2.2-1.3 4.6-1 7 .5 3.2 2.5 5.7 5.7 6.3 2.2.4 4.3 0 6.3-.9a16 16 0 0 0 8.6-10.5 9 9 0 0 0-1-7.5c-1.8-2.7-4.4-4-8.2-4Zm-16.5-24.7c-.3-.3-.5-.5-.8-.5h-1l-2.2 1.2c-1 .7-2 1.2-3 1.4-.9.1-1.6.5-2.4.8-.3.2-.6.5-.4.9.1.4.5.5.9.3l1.2-.3c2-.6 3.3-.2 4.6 1.4l1.5 2.2c.1.3.3.5.6.6.4.3.9 0 .8-.5 0-.4-.1-.8-.4-1.1-.6-1-1.2-2-2-2.8-.8-1-.7-1.7.4-2.2l1.5-.7.7-.7Zm-31.3 80.7c1.2-.3 2.3.2 3.3.9.5.4 1 .8 1.7 1 .3.3.8.3 1.2.4.2 0 .5-.2.5-.3l-.1-.7-.7-.5c-.4-.3-1-.5-1.4-.9a7.3 7.3 0 0 0-6-1.5c-1.3.3-2.7 0-4-.8-.2-.1-.5-.3-.8-.3-.5-.1-.8.3-.6.7.1.4.4.7.7.9 1 .7 2.1 1 3.4 1h2.8Zm-14-115.4h-.2c-.5 0-.9.2-1 .6 0 .4.4.6.7.8l.8.2c.8.4 1 .8.9 1.6v.5c-.1.7.3 1 .9.7l.6-.4a4.3 4.3 0 0 1 4-.7c.3.1.6.2 1 .1.1 0 .4-.1.5-.3 0-.2 0-.5-.2-.7-.1-.2-.4-.4-.7-.5-.8-.4-1.7-.4-2.6-.3-1 .2-2 0-2.7-.8-.6-.5-1.3-.7-2-.8Zm54.6-15.2v-.3c-.6-.8-1-1.6-1.7-2.3-.4-.5-1-.6-1.6-.4a18 18 0 0 1-4.2 1.4l-.5.6c0 .4.3.6.6.7h1l2.3-.7c1.2-.4 1.6-.3 2.3.7l.5.6c.1.1.3.3.5.3.5.2.8 0 .8-.6Zm-91.5 32.7c-.9 0-1.8.2-2.2.5-.3.3-.6.6-.4 1 .2.4.6.4 1 .3l1.3-.2a6 6 0 0 1 4.2 1.5l.6.5c.2.1.5.3.7 0 .3-.2.4-.5.2-.8a4 4 0 0 0-.8-1 7.8 7.8 0 0 0-4.6-1.8Zm76.3-2.1.4 1.2c0 .2.4.4.6.3.2 0 .4-.3.5-.5v-1c.1-1.3.7-2.3 1.8-3l.8-.6c.2-.2.3-.5.2-.7 0-.1-.3-.3-.5-.3l-1 .1a5.3 5.3 0 0 0-2.8 4.5Zm-15.2 25.4c.1 0 .5-.2.5-.4.1-.2 0-.5-.2-.7-.2-.2-.6-.5-.9-.5-2-.5-3.8 0-5.6 1-.2.3-.4.6-.4.9.1.4.5.4.9.4l1.4-.5c1.2-.5 2.4-.7 3.7-.3l.6.1Zm27 19.6c-2 0-3.4.7-4.7 1.9l-.5 1c-.1.5.3.8.7.6.3 0 .5-.2.8-.5a5 5 0 0 1 3.5-1.5l1-.2c.4-.2.5-.8 0-1l-.8-.3Zm-33.1 64.3c0 .2.2.5.4.6l.7-.1.8-1c.6-.7 1.2-.9 2-.4l.6.2c.3.2.7.3 1-.1.3-.4 0-.7-.2-1l-.3-.3c-.8-.7-1.7-1-2.7-.6a4 4 0 0 0-2.3 2.7Zm13-48c-1.4-.2-3.2 1.3-3.3 2.7 0 .2.1.5.3.7l.6-.1.8-.9c.7-.9 1.3-1 2.3-.5l.4.2c.4.2.7.2 1-.1.3-.3.1-.7-.1-1-.6-.6-1.2-1-2-1ZM94.3 164.7c.3.6.8.7 1.4.6.5-.2 1-.3 1.4-.6.8-.5 1.5-1 2.5-1.1.2 0 .5-.3.5-.5 0-.3-.1-.6-.3-.8l-.7-.2c-.7 0-1.2.3-1.7.6A7 7 0 0 1 95 164c-.4 0-.7.3-.7.8Zm17 86c-.6 0-1.4.1-2 .6-.3.3-.5.6-.3 1 .2.3.6.3 1 .2a3 3 0 0 1 3.4.6c.3.3.7.5 1 .2.4-.3.2-.7 0-1.1a2 2 0 0 0-.4-.5 4 4 0 0 0-2.7-1Zm8.9.9c-.2 0-.6 0-.8.2-.6.2-1 .5-1.2 1l.1.8c.1.2.5.1.7.1l.2-.1c.8-.5 1.6-.4 2.4 0l1.1.5c.4.1.7.1 1-.2.1-.3 0-.7-.3-.9-.9-.7-2-1.3-3.2-1.4Zm46.1-61.6c-.6.2-1.2.3-1.7.6-.5.2-.6.5-.5 1 0 .3.4.4 1 .3 1-.3 2-.3 2.8 0 .4.2.7.2 1 .2.4 0 .7-.1.8-.5 0-.4-.2-.7-.5-.8l-2.9-.8Zm-40.2-27c.7 0 1-.4.8-.9a1 1 0 0 0-.3-.4 5 5 0 0 0-2.4-1.1c-.6-.1-1.2-.2-1.7.2-.3.2-.6.5-.4 1l.7.3h.5c.7 0 1.4.2 2 .5l.8.4Zm37.7-3c-1.1 0-2 .4-2.6 1-.3.3-.4.7-.2 1 .2.3.6.2.9.2l.4-.2c.8-.5 1.5-.5 2.3-.2.4 0 .8.1 1-.3.2-.2 0-.7-.3-1-.5-.4-1-.6-1.5-.5ZM96 188c.4.3.8.2 1.2-.1.7-.6 1.5-1 2.4-.8.4 0 .9 0 1-.5 0-.5-.4-.8-.8-1h-.3c-1.4-.2-2.5.3-3.3 1.3-.3.3-.4.7-.2 1.1Z"/><path fill="#FF65BE" d="M227.5 251.3c0 5.4-1.3 10-3.3 14.5-2.5 5.7-6 10.7-9.6 15.7-3.5 4.6-7 9.2-10.3 13.9L189 316.9c-4.2 6-8.7 12-13.4 17.6a94.6 94.6 0 0 1-7.3 7.8c-2.4 2.3-5 4.3-7.9 6-2.2 1.1-4.5 2-7 2-2 .2-4-.4-5.7-1.4-2-1-3.6-2.6-5-4.3-4-4.8-8.4-9-13.3-13-4.4-3.5-9-6.8-13.5-10.3-4.6-3.5-9.3-7-13.7-11-1.9-1.5-3.6-3.2-5.4-4.8A102.9 102.9 0 0 1 77 279.8a119 119 0 0 1-8.6-19.4 39.8 39.8 0 0 1-1.2-26.3l3.2-10.7c1.2-4.3 2.2-8.6 2.5-13l.4-5.2c.2-2.6.3-5.1.6-7.6.5-4.7 1.7-9.2 3.8-13.4l3.8-7.3a12.8 12.8 0 0 0 1.3-10.8c-.8-2.4-2-4.5-3.4-6.6l-4.5-6.2-1.1-2.3c-.5-1.3 0-2 1.3-2 1.1 0 2.3 0 3.3.3L88 151c2.6.5 5.3.8 8 .7 2.3-.1 4.4-.8 6.4-1.7 2-1 4.2-1.5 6.5-1 1.6.2 3.2.7 4.8 1.2.9.3 1 .9.7 1.7-.6 1.3-1.3 1.7-2.7 1.5-2.7-.2-5.4-.1-8 0-4 0-8.1.3-12.2 0-3.2-.1-6.2-.8-9.3-1.8l-1-.2c-.3 0-.7.1-.7.3-.1.3 0 .6.1.8.2.3.5.4.7.5 2.2 1.3 3.9 3 5.1 5.1 1.4 2.4 2.2 5 2.6 7.6l.4 5c.1 1.8 0 3.8-.2 5.7-.1 1.4.2 2.8.4 4.2l.5 4.9c.1 2 .2 4 .1 5.9-.1 4.7-1 9.4-3.1 13.7l-3 5a54 54 0 0 0-7.5 18.4c-.1.4-.3.8-.2 1.3 0 .5 0 1.1.3 1.5 1 1.7.8 3.3 0 5-.4 1-.9 2-1.2 3.1-.7 3.3-.2 6.4 1.2 9.5a12 12 0 0 0 4 4.9c1.2.9 2.6 1.5 4.2 1.7a7 7 0 0 1 4.7 3 29 29 0 0 1 4 8 84 84 0 0 1 3.8 14.9c.4 2.3 1.2 4.5 2.8 6.2 1.2 1.3 2.5 2.2 4 2.8a83.7 83.7 0 0 1 37.1 30.6c2.8 3.8 5.7 7.5 9.2 10.8a20 20 0 0 0 4 3 6.4 6.4 0 0 0 7-.3c1.6-1.1 3-2.4 4.6-3.6a4 4 0 0 0 1.2-2.2 39.6 39.6 0 0 1 8.5-17.5c2-2 4.4-3.6 7.1-4.5a23 23 0 0 0 8.8-5.5c4.8-4.4 8.5-9.6 12-15 2.6-4.1 5-8.5 7.1-13 1.2-2.3 2.3-4.8 3.4-7.2.5-1.1.6-2.3.6-3.5l-.3-8.7.3-9.6c.2-3 .3-6.2 0-9.3a41.8 41.8 0 0 0-4.5-17.7c-3.2-5.8-5.2-12-7-18.4a123 123 0 0 1-2.8-13.3 54.1 54.1 0 0 0-5-15.7 36.7 36.7 0 0 0-6.3-9 22 22 0 0 0-8-5.6 4.4 4.4 0 0 1-2.7-3c-.3-.8 0-1.2.9-1.1a26.3 26.3 0 0 1 13.7 7c3.7 3.4 6.6 7.7 9 12.3 3.5 6.8 6 14 8 21.3 1.6 6.1 2.9 12.4 4.1 18.6a68 68 0 0 0 4.2 13.4l5.2 12a36.1 36.1 0 0 1 3.9 15.5Z"/><path fill="#07B8BA" d="m18.5 19.7.8.3c3.8 1.9 7.8 3 12 3.8 4.2.9 8.4 2 12.4 3.7 2.7 1.1 5.2 2.4 7.4 4.2 3 2.4 5 5.4 6.4 8.8l.8 2 .5.9c.4.3 1 .1 1-.4l-.1-1-1.3-3.3-.2-.3c-.1-.4-.4-.8-.1-1.3.4-.5 1-.5 1.4-.4 1.9.4 3.7 1 5.4 1.6a72 72 0 0 0 5 1.7c1.7.6 3.6.5 5.5.4 2-.1 4 .3 5.8 1l3.7 1.4c1.9.5 3.7.2 5.6-.2 1.1-.3 2.3-.6 3.5-.5 1.2 0 2.3.4 3.3 1l2.6 1.4c1.5.7 3.1.8 4.7.7 2.4-.3 4.6.2 6.7 1.4l4.3 3.1a23 23 0 0 0 5 3.1c1.4.6 3 .9 4.5 1a8 8 0 0 1 4.4 1.4l.2.2c1.2.8 1.2 1.3 0 2.3a6.2 6.2 0 0 0-2.4 5.3v1c0 .6-.4.8-1 .8l-.8-.2a21.5 21.5 0 0 0-11.6-.2l-9.7 2.6a51.4 51.4 0 0 1-22.2.5 37 37 0 0 0-9.4-.4 20 20 0 0 0-11.8 4.6c-2.3 2-3.9 4.5-5 7.3-1 2.7-1.4 5.6-1.3 8.5 0 1.5.4 3 .5 4.4v.7l-.2.1-.9-.8a93.6 93.6 0 0 0-7.3-8.1 24.8 24.8 0 0 0-9.6-6 15 15 0 0 0-7.6-.3c-.5.1-1 .3-1.6 0-.2-.5.1-.9.4-1.2 1-.9 2-1.9 3.2-2.7 2.6-1.7 5.4-2.7 8.5-3h2c.4 0 .9 0 1.3-.2.8-.2 1-.8.6-1.5l-1-1-2.2-2c-.3-.3-.7-.6-.5-1 .2-.2.7-.2 1-.2 1 0 2 .3 3 .4 2.8.4 5.5.5 8.1 0 1.4-.3 2.6-.7 3.7-1.5.3-.2.5-.4.6-.7v-.6a.9.9 0 0 0-.6-.2c-.3 0-.6.2-.9.4a13 13 0 0 1-6 1.3 35 35 0 0 1-11.6-1.6l-1-.3c-.5 0-1 0-1.1.4-.3.4-.1.9.2 1.2l1.7 1.6 2.5 2.1 1 1c-.3.8-.9.8-1.4 1-1.6.3-3.2.6-4.7 1.1a21 21 0 0 0-10.6 9l-.5 1c-.1.4 0 .8.3 1h.9c.3 0 .6-.3 1-.5a12 12 0 0 1 7.4-2.1c2 0 3.8.6 5.6 1.4 2.6 1.2 4.9 2.9 7 5l2.6 2.6c.4.5.7 1 .7 1.7 0 1.5.5 3 1 4.4l6.9 22.3a173.9 173.9 0 0 0 15.4 35.7c1.6 2.9 3.6 5.5 5.5 8.2 1.4 1.9 2.6 3.8 3.4 6l.5 1.8c0 .3 0 .7-.3.9-.2.2-.5 0-.8-.3a118.2 118.2 0 0 1-25.8-44.1l-6.4-17.5c-1.3-3.5-3-6.8-5.1-9.8-1.6-2-3.4-4-5.7-5.2a9.6 9.6 0 0 0-8.5-.5L28 92c-.2.2-.2.6-.2.8.1.3.5.4.8.3l.7-.2c3.7-1.6 7-.6 9.9 1.9 2.4 2 4 4.7 5.5 7.4 1.9 3.6 3.2 7.3 4.5 11l6 16.4c2.3 6.1 5.2 12 8.6 17.6 4.3 7.3 9.3 14.2 14.5 20.9l2.8 3.5c.3.4.3.8.3 1.3-.1.8-.7 1-1.3.6l-1.3-1.3a176.5 176.5 0 0 1-25-39l-7.2-16c-1.3-3-2.7-6.1-4.7-9a13 13 0 0 0-4.1-4c-1.3-.7-2.6-1-4-1h-.6l-.5.7.4.5.9.3c2.5 0 4.3 1.5 5.9 3.3a24 24 0 0 1 3 4.8l5.4 12 5.4 11.7A167.7 167.7 0 0 0 78.4 174l.9 1 .3.7c.1.5-.2.8-.6.6l-1-.7a82.3 82.3 0 0 1-9.8-10.2 110 110 0 0 1-11.4-17.8l-3.7-6.8c-2-3.3-4.9-5-8.6-5.3-3-.2-5.8.4-8.6 1.3-2 .6-3.8 1.4-5.7 2.2l-2.8 1.4c-.3.2-.7.4-1 .4-.5.1-.7-.1-.6-.5l.7-1.8c1.5-3.4 2.7-6.8 3-10.6.3-3.5-.2-7-1.7-10.1a11.3 11.3 0 0 0-9-6.7l-2.2-.3H16c-.6-.2-.7-.5-.4-1l.6-.7c2.7-2.7 4.4-6 4.7-9.8.4-4-.4-7.7-3-10.8a14.4 14.4 0 0 0-6.1-4l-3.5-1c-.5-.2-1.1-.2-1.2-.8-.1-.6.6-.8 1-1a29 29 0 0 0 9.5-7.1c2-2.8 2.5-6 1.8-9.4l-1.2-4-.2-.9c-.1-.6 0-.8.7-.7l.8.4a13 13 0 0 0 6.7 1.3 8.7 8.7 0 0 0 6.3-3.2l.9-.7c.5-.2 1 0 1.4.4l4.3 2.5a11 11 0 0 0 5 1.3c2.4 0 4-1.1 5-3.3.7-1.5 1.1-3 1.4-4.7 1.3-7.2-.2-13.7-5-19.3a25 25 0 0 0-7.4-5.7 43.2 43.2 0 0 0-8.7-3.3c-3-.8-5.8-2-8.5-3.6a7 7 0 0 1-2.4-2Zm78.2 38h3.4c2 0 4-.3 6-1.1l1-.7c.8-.6.7-1.5-.2-2l-1.9-.4-8.7-1c-3.2-.3-6.3-1-9.2-2.4L82.4 48a20 20 0 0 0-5.9-1.7c-2.8-.2-5.6.4-8.1 1.7l-3.6 1.7a20.8 20.8 0 0 1-11.6 2c-.2 0-.4 0-.6.2-.6.2-.8.6-.4 1.2.2.4.6.7 1 1l3.2 1.9a72.1 72.1 0 0 0 17.7 5.5c3.4.5 6.6.2 9.7-1.3 2.4-1.2 4.8-2 7.4-2.2l5.5-.2Z"/><path fill="#FFFDDF" d="M75 68.5c3.4 0 6.2.4 9 .9a51.5 51.5 0 0 0 23.3-1.6 72 72 0 0 1 8-2c4-1 8.1-.6 12 1.1.8.3 1.4.8 2.1 1.2.8.5 1.6.8 2.3.3.5-.3.9-.9 1.3-1.4l.4-.8c.5-.8 1.4-1 2-.2l.7 1.4 1 4c.4 1.2 1 2.3 1.7 3.4l.3.4c.4.7.2 1.1-.5 1.4l-1.2.3c-3.7.9-6.8 2.8-9.5 5.5-2 2-4 4.2-5.9 6.4a34.1 34.1 0 0 1-18.6 12.4c-3.5 1-7 1.5-10.7 1.7-2 .1-4.1.3-6.2.3l-6.5-.3a53 53 0 0 1-7.6-1c-3-.5-6-1.3-8.8-2.8-2.1-1-4-2.5-5.4-4.5a11.8 11.8 0 0 1-2-5.4 20 20 0 0 1 1.3-10c2.1-5.5 6.2-8.7 11.9-10 2-.5 4-.7 5.6-.7Zm0 11.6c.5 0 .8-.4.7-.8l-.5-.9c-.8-1.2-.7-1.6.3-2.5.2 0 .3-.2.4-.3l.5-.6c.3-.5 0-1-.6-.9-.3 0-.5.2-.7.3l-.8.6c-.8.5-1.4.4-2-.3l-.8-.8c-.3-.3-.6-.4-1-.2-.3.3-.2.6 0 1l.6 1c.5.9.5 1.3-.3 2l-1 1c-.1.2-.3.5 0 .8.2.4.6.3 1 .1l1.2-.8c.6-.4 1.2-.3 1.7.2l.5.6.8.5Zm36.2-6.8c0-.5-.2-.7-.6-.7-.3 0-.6.2-.8.4l-.7.8c-.7.7-1.2.8-2 .2a28 28 0 0 0-1-.5c-.3-.3-.7-.4-1 0-.2.3 0 .7.2 1l.8.8c.7.6.8 1.1.3 2l-.7 1c-.2.3-.4.7 0 1 .2.3.6.2 1-.2l.8-.8c.7-.8 1.3-.8 2.1-.3l.8.5c.3.2.7.3 1 0 .2-.4 0-.8-.2-1l-.7-.7c-.7-.8-.7-1.2-.2-2l.5-.7.4-.8ZM75.5 86.2c0-.4 0-.9-.5-1-.4 0-.6.2-.8.5l-.3.9c-.5 1.2-1 1.5-2.2 1.1-.4 0-.8-.2-1.1-.1-.3 0-.7.2-.7.4-.1.2.1.6.4.7.4.3.9.4 1.3.6.9.3 1.1.8 1 1.7l-.2 1.1c0 .3.2.6.4.7.3.2.6 0 .8-.3l.4-1c.4-1 .9-1.2 2-1l1 .2c.5.1.9 0 1-.4 0-.4-.2-.7-.6-.9l-1.1-.4c-1-.3-1.2-.8-1-1.9l.2-1Zm21 2.2c0-.5-.3-.7-.6-.7l-1.4.4c-1.2.4-1.6.2-2.2-1l-.6-.9c-.2-.2-.5-.4-.8-.2-.2.2-.3.5-.3.8 0 .4.2.7.3 1 .4 1.2.2 1.6-.9 2.1l-1 .5c-.4.3-.5.6-.4 1 .2.4.6.4 1 .3l.6-.2c1.6-.6 1.9-.5 2.6 1l.4.5c.2.1.6.3.8.2.2 0 .3-.5.3-.7 0-.4-.2-.7-.3-1.1-.2-1 0-1.4.8-1.8L96 89l.5-.6Zm-3.7-6.8c.7 0 1-.4.6-1l-.7-.9c-.6-.7-.6-1.2 0-1.8 0-.1 0-.2.2-.3l.6-.7c.3-.5.3-1 0-1.1-.4-.4-.7-.1-1 .1l-.7.7c-1 1-1.7.6-2.4 0l-.8-.6c-.3-.2-.7-.3-1 0v.9l.7.8c.9 1 .9 1.4 0 2.4l-.7 1c-.2.2-.2.6 0 .8h.9l.8-.7c1-1 1.5-1 2.6-.1l.9.5Zm19.9 8.3c.5 0 .8-.2.6-.8l-.2-.4a2 2 0 0 1 0-1.8l.2-.7c0-.4-.2-.6-.6-.5a1 1 0 0 0-.5.2c-.7.5-1.4.6-2.2.2a1 1 0 0 0-.9 0c-.3.2-.2.7 0 1 .6.7.6 1.4 0 2.2 0 .3-.2.7.2.9.2.1.6.1.8 0 .8-.6 1.5-.7 2.4-.3h.2Zm68.1 5.8c-2.8.1-5.6-.1-8.3-1-2.8-.8-5.1-2.4-6.9-4.7-1.3-1.7-2.4-3.5-3.6-5.2a17.4 17.4 0 0 0-11.5-8l-1.2-.2c-1-.3-1.2-.7-.7-1.6l.9-1.6c.8-1.8 1.2-3.8 1.5-5.8l.2-1.1c.2-.9.7-1 1.3-.4l.7.6c1 1 2.4 1 3.1-.3.7-1.2 1.7-1.6 3-1.7 2.7-.2 5.3-.6 8-.9a53.5 53.5 0 0 1 12-.2c4.7.3 9.4 1 13.9 2.9 2 .9 4 2 5.5 3.5 1.8 2 2.8 4 2.8 6.7l.1 3.4c0 2.5-.5 5-1.7 7.3a13.5 13.5 0 0 1-6.2 6 26.2 26.2 0 0 1-10.3 2.3h-2.6Zm3.9-12.4c0-.4-.4-.8-.8-.7a5 5 0 0 0-1 .4c-1.2.4-2 .4-2.5-.9-.1-.3-.3-.6-.6-.8a1 1 0 0 0-.7-.3c-.4 0-.4.4-.4.7l.2.8.3.6c.2.8 0 1.3-.6 1.7l-1 .5-.6.5c-.1.2-.2.5-.1.7 0 .1.3.3.5.3l1-.2 1-.4c.5-.2.9 0 1.2.4l.5.8.5.6c.2.2.5.3.7.2l.3-.6-.3-1.2c-.3-1 0-1.4.8-1.9l1-.6.6-.6ZM166 73.6l-.6-1c-.6-1-.5-1.4.3-2.2l1-.9c.1-.2.3-.6 0-.9-.3-.3-.6-.2-.9 0l-1 .7c-1 .6-1.4.6-2.2-.3l-.4-.4-.5-.4c-.2 0-.7-.2-.8 0a1 1 0 0 0-.1.7c0 .4.3.7.5 1 .7 1 .7 1.4-.2 2.2l-.6.5-.5.7.1.7c.2.1.5.2.7 0 .4-.1.8-.4 1.3-.7.9-.6 1.3-.6 2 .2l1 .8c.5.3.9 0 .9-.7Zm26-1.5c-.7 0-1 .3-.7.8l.7 1c.8 1 .8 1.5 0 2.4a7 7 0 0 0-.8.9c-.1.3-.2.6 0 .9.4.3.7.2 1 0l1-.8c.8-.8 1.3-.8 2.2 0l.5.4c.3.2.7.4 1.1 0 .3-.1.2-.6-.2-1 0-.3-.3-.4-.4-.6-.7-.8-.7-1.2 0-2l.8-1.1c.2-.3.3-.7 0-1-.3-.2-.6-.1-1 0 0 .2-.2.4-.4.5l-.8.7c-.5.4-1 .4-1.5 0l-1-.8-.6-.3Zm-8-2.2c0-.5-.4-.8-.9-.6l-1.2.9c-.8.7-1.4.7-2.3 0l-1-.7a.5.5 0 0 0-.7 0 1 1 0 0 0 0 .8c0 .3.3.5.5.8 1 1.3 1 1.4 0 2.8-.2 0-.3.2-.4.3-.1.2-.3.4-.3.7-.1.4.2.7.6.7l.7-.4.6-.6c1-.8 1.4-.8 2.4 0l.7.5c.3.2.6.3.9 0 .2-.3.1-.6 0-.9l-.7-.8c-.6-.8-.6-1.3.1-2.2l.6-.6.3-.7Zm-11.6 11.7-.6-.5h-.7c-.7.2-1.2 0-1.7-.5-.2-.3-.5-.8-1-.6-.5.3-.4.8-.3 1.2 0 .7-.1 1.2-.7 1.5l-.3.4-.2.7c.1.2.5.3.7.4l.7-.1c.4 0 .8 0 1.1.4.2 0 .3.2.5.3.2.2.5.5.8.2.2-.2.3-.5.3-.8-.1-.8.2-1.4.8-1.8l.6-.8Zm22.9 5.6c.7 0 .9-.3.7-.8 0-.1 0-.3-.2-.4-.3-.5-.3-1 0-1.6.1-.4.5-.9 0-1.3-.4-.4-.8 0-1.2.3-.5.3-1 .4-1.6 0l-.7-.1c-.5 0-.9.3-.6.8.6.9.7 1.7.1 2.7-.3.5.3 1 .8.8.9-.6 1.8-.9 2.7-.4Z"/><path fill="#FF65BE" d="M9.7 14.5c.6-.1.9.2 1.1.5.9 1 1.7 2.1 2.7 3 3.5 3.7 7.9 6.2 12.7 7.9l6.3 2c4 1.3 7.6 3.2 10.6 6a21.6 21.6 0 0 1 4.6 23.7c-1 2-2.4 2.8-4.7 2.4-2-.3-4-1.3-5.7-2.4L35 56a2.9 2.9 0 0 1-1.3-2 16 16 0 0 0-3.8-8.7l-4-4.5c-1.4-1.5-2.8-3-3.9-4.8a15 15 0 0 1-2-6.2c-.1-1.1-.3-2.3-.6-3.4-.5-1.7-1.6-2.5-3.4-2.5h-2c-1.4 0-2.3-.6-3-1.9-.5-1.2-.8-2.5-1-3.8l-.4-2.9.1-.8Zm99 86.8 1-.8 4-2.2c2.8-1.8 5.3-4 7.5-6.4l6.1-6.8c1.6-1.6 3.2-3.3 5.3-4.5a19 19 0 0 1 8.1-2.7c3.1-.3 6.2-.2 9.3.4a14.8 14.8 0 0 1 9.3 5.5c.3.5.2.8-.4 1a4 4 0 0 0-2.2 1.9l-.2.3c-.5.5-.8.4-1.2-.1l-.4-.9-.6-.9c-.8-1-2-1.1-3-.3-.7.8-1.3 1.7-1.7 2.7l-.8 1.4c-.3.5-.7.5-1 0l-.7-1.3a9.9 9.9 0 0 0-2-3c-1.2-1.2-2.1-1.2-3.4-.2-.7.6-1 .5-1.6-.2l-1.5-2c-1.1-1.2-2.5-1-3.3.4l-.5 1.3c-.4.9-.8 1-1.6.5-1.8-1.4-3.5-.4-4.4 1a11 11 0 0 0-1.9 6.8 6 6 0 0 1-.8 3.5c-1.9 3-4 6-6.6 8.4-1 .9-2.2 1.6-3.3 2.4l-.7.4c-.7.3-1.2 0-1.4-.7l-.7-1.8a4.6 4.6 0 0 0-3.4-2.6l-1.2-.3v-.2Z"/><path fill="#07B8BA" d="m156.8 55.4 5.3.4c2.7.3 5.5.6 8.3.7 3.6.2 7-.5 10-2.6.8-.5 1.4-1.1 2-1.7 1-1 1.5-1 2.6-.4a18.8 18.8 0 0 1 8.7 11.6c.3 1-.1 1.4-1.2 1.1l-2-.6c-3.2-1-6.4-1.5-9.6-1.7a80 80 0 0 0-16.9.5l-4.9.6h-.4c-1 0-1.6-.4-1.8-1.4a5.6 5.6 0 0 0-1.9-3l-1.5-1.1-1.1-.7c-.2-.1-.4-.4-.4-.6 0-.2.4-.5.6-.6l2.2-.3 2-.1Z"/><path fill="#FFFDDF" d="M155.5 63.6c0 .4 0 .9-.2 1.3-.3.7-.9.8-1.4.2l-.6-.9c-1-1.2-2.5-1.1-3.1.3-.4 1-.5 2-.7 3-.3 2-.7 4-1.7 5.8-.3.6-.8 1.3-1.4 1.8-2 1.6-4.4 1-6-.7-1-1.3-1.6-2.8-2.1-4.4l-.6-2.5c-.3-1.3-.8-2.6-2-3.3a2.4 2.4 0 0 0-3.5.9l-.6 1.1c-.4.7-1 .8-1.6.2l-.2-.2c-1.9-3-1.3-7 2.5-8a9 9 0 0 1 5 0c1 .3 2.2.6 3.3.6 1.3 0 2.5-.4 3.7-.6l2-.5a7 7 0 0 1 4.3.4l2.3 1c1.7 1 2.7 2.4 2.6 4.5Z"/><path fill="#07B8BA" d="M180.5 49.6c-1.8-.4-3.6-.6-5.3-1.1-4-1-7.9-2.1-11.8-3.3a29 29 0 0 0-13.6-.6l-4.8 1h-.8c-.7.1-1.2-.1-1.5-.8a11 11 0 0 0-2.8-4c-1.3-1.2-2.7-2.5-4.3-3.3-1.4-.7-2.8-1-4.3-1.2l-2-.2a8 8 0 0 1-4.6-3.2c-.6-.8-.3-1.4.6-1.7 2.1-.5 4.3-.8 6.5-.7a22 22 0 0 1 10.8 4c2.3 1.4 4.5 3 6.8 4.7 2.7 2 5.6 3.2 9 3.7 1.4.2 2.8 0 4.2 0l5.4-.4a15 15 0 0 1 9 2.3l3.4 2.2.8.8c.3.3.7.7.5 1.2-.2.5-.8.5-1.2.6Z"/><path fill="#000" d="M139.4 160a41.2 41.2 0 0 1-18.3-4.1c-1.2-.6-1.5-1.8-.8-3 .3-.4.8-.5 1.3-.4l2.6.4c2.8.4 5.7.8 8.6 1 2.5.3 5 .3 7.5.5 3.1.3 6.2-.2 9.3-.5l10.5-1a48 48 0 0 0 8-1.4l.6-.1c1-.2 1.5 0 1.7.8.3.9 0 1.8-.7 2.2l-.7.2a154 154 0 0 1-17.2 4.2c-3 .5-6 .9-9 1l-3.4.2Z"/><path fill="#FF65BE" d="M168.7 151.5a48.5 48.5 0 0 1-8.6 1.5c-3.5.2-7 .7-10.5 1-3.1.3-6.2.8-9.3.5l-7.5-.4-8.6-1-2.6-.5c-.5-.1-1 0-1.2.4a49.1 49.1 0 0 0 5.4 2.6c4.4 1.5 9 2 13.6 2l3.3-.1c3-.1 6-.6 9-1a151.9 151.9 0 0 0 18.4-4.8c-.3-.3-.7-.3-1.4-.2Z"/><path fill="#FFFDDF" d="m170.8 144.3.9.6a35.4 35.4 0 0 1 8.8 24.5 3 3 0 0 1-1.7 2.7 8 8 0 0 1-8.6-.3c-.5-.4-.7-1-.5-1.6l1-4a50 50 0 0 0 1.3-8.6c.3-4 0-7.7-1.1-11.5-.2-.5-.4-1.1-.1-1.8Z"/><path fill="#FF65BE" d="M170.3 17.7c.3.6.2 1.4 0 2-.3 2.6-.4 5.2-.2 7.7.2 2 .7 3.9 1.6 5.7a235.8 235.8 0 0 1 3.3 7.5c.2.9-.2 1.3-1 1-.4 0-.7 0-1-.2-2-.5-4-.5-6-.3l-5.2.4c-1.3 0-2-.5-2-2 0-2.8.5-5.4 1.7-8 1.2-2.6 2.7-5 4.2-7.4l3.1-5 1.2-1.5.3.1ZM110.7 44c.3-.1.5-.3.8-.3l5.5-.7c2.8-.2 5.3.8 7.6 2.4l3.5 2.3c2.3 1.5 4.8 2.3 7.5 2.6a15.9 15.9 0 0 1 9.7 5c.2.4.1.8-.3 1l-.7.3c-2.2.7-4.5.9-6.8.2-1-.3-2-.4-3-.5-1 0-1.7-.3-2.4-.9-1-.8-2-1.6-3-2.2-1.5-.7-3-.9-4.6-1-2.5-.2-4.7-1.2-6.7-2.7l-4.2-3.2-2-1.3-1-.7.1-.3Zm8.8-4.7-1.5.5c-1.5.3-3 .4-4.5.2a7 7 0 0 1-4-2l-1.4-1.4a9.1 9.1 0 0 0-4.6-2c-1.9-.3-3.7-.1-5.6.1l-8.7 1.4h-3.4a6 6 0 0 1-3.7-1.5l-2.7-2-.3-.1c-.8-.6-.8-1.1.1-1.6a21.4 21.4 0 0 1 19.3-.3c2.4 1 4.7 2 7.2 2.5 1.1.2 2.2.3 3.4.2 1.2-.2 2.4.1 3.3 1 .6.6 1.3 1 1.9 1.7 1.5 1.4 3.1 2.6 5.2 3.1v.2Z"/><path fill="#FFFDDF" d="M109 130.9a2 2 0 0 1-1.6-.7 13 13 0 0 1-3.2-5c-1-2.6-1.6-5.4-1.6-8.3v-3.7c0-3 .9-5.5 2.9-7.7a6 6 0 0 1 2.4-1.8c1.8-.8 3.5-.1 4.3 1.7.6 1.4.6 2.8-.1 4.2a32.3 32.3 0 0 0-3.4 16l.3 4.2v1.1Zm10.2 18.1v1c-.3 2-.8 3.9-1 5.8v4.4l.8 5.2a25.3 25.3 0 0 0 3 7.8c.4.8.3 1.5-.3 2.1-1 1-2 1.4-3.2 1.6-1.5.3-2.9 0-4.3-.3-.8-.3-1.4-.8-1.5-1.7-.2-1-.5-2.1-.5-3.2-.2-2.2-.3-4.3-.2-6.5a27 27 0 0 1 5.6-15.1c.4-.4.8-.9 1.6-1.2Z"/><path fill="#07B8BA" d="M170 10c.4.5.2 1 .2 1.4-.4 2.6-1.5 5-2.8 7.2l-6 9.6a21 21 0 0 0-2.8 7.5l-.3 3.6c0 1.5-.5 2-1.9 1.6-2-.5-4-1.4-5.8-2.7l-3.3-2.4c-1-.8-1-1.4-.1-2.4 1.9-2 4.2-3.5 6.8-4.5a31 31 0 0 0 5.1-2.7c2-1.5 3.5-3.2 5-5.2a43.8 43.8 0 0 0 5.6-10.6c0-.2.2-.3.4-.5Z"/><path fill="#FFFDDF" d="M169 123.2v-1c.5-1.5 1-3 1.3-4.6.6-2.6.9-5.3.7-8-.2-2-.7-4-1.4-6l-.4-1c-.5-1.6 0-2.7 1.5-3.5.8-.5 1.8-.7 2.8-.7 1.2 0 2.4 0 3.6.7 1.6.8 2.3 2 2 4-.4 3.7-1.3 7.3-2.8 10.8a26 26 0 0 1-6 8.7c-.5.5-.5.5-1.3.6Z"/><path fill="#FF65BE" d="M144.2 175c3-.2 6 0 9 .9 3 .8 5.5 2.4 7.7 4.5l1.1 1.5c.5 1 .4 1.8-.6 2.3-2 1.1-4.2 1.5-6.4.2l-1.4-1a29.7 29.7 0 0 0-14-6.6 4 4 0 0 1-1-.4c-.5-.4-.5-.9 0-1a11 11 0 0 1 2.4-.5h3.2ZM43.1 136.9c2.2.1 4.3.5 6 1.7 1.3 1 2.2 2 3 3.3l.6 1.4c.2.7 0 1.1-.7 1.1-3.5 0-6.2 1.7-8.6 3.9l-2 1.8c-.3.3-.6.7-1.1.5-.5-.2-.3-.7-.3-1l.2-3c0-1.9 0-3.7-.7-5.4l-1-2c-.7-1-.6-1.4.5-1.7l4.1-.6ZM98.5 174c0-2.6 1-4.7 2.7-6.5a29.6 29.6 0 0 1 6.4-4.8c.6-.4 1.2-.7 2-.7.6 0 1 .3 1 1l-.3 3c0 .4-.4.7-.7 1l-1.3 1a6.8 6.8 0 0 0-2.5 4.6l-.7 2.9c-.4 1-1.2 1.9-2.2 2.5-1.7 1-3.4.3-4-1.5l-.4-2.6Z"/><path fill="#FFFDDF" d="M156.4 54H155c-.7 0-1.2-.4-1.4-1a7 7 0 0 1 .6-6.4c.5-.8 1.2-1 2-1 1.7 0 3.4.3 5 .7l4.4 1.2c1.5.4 2 1 2 2.6 0 1-.1 2.1-.6 3.1-.5 1.1-1 1.4-2.2 1.3l-6.9-.5h-1.4Zm6.5-5.7c-.9 0-1.5.6-1.6 1.5 0 .8.7 1.5 1.5 1.5 1 0 1.6-.6 1.6-1.5s-.6-1.5-1.5-1.5Z"/><path fill="#07B8BA" d="M101.8 29.7c.2-.5.6-.6 1-.7 1.3-.3 2.4-.6 3.6-.7 3-.2 6 0 9 .8a15.2 15.2 0 0 1 7.9 4.4 90 90 0 0 1 2 2.3l.9 1-1.2.3h-4.2c-1.8.5-3.1-.2-4.4-1.3l-3.1-2.7a5 5 0 0 0-4.2-1.4c-2.3.4-4.4-.4-6.5-1.2-.6-.2-.5-.2-.8-.8Z"/><path fill="#FF65BE" d="M7.3 99.6c0-.6.5-.9.9-1.2 2.2-1.8 4-4 5.2-6.5l1-2.4c.5-1 1-1.1 1.8-.4a9.6 9.6 0 0 1 2.7 4.3c.7 2.4.8 4.9.2 7.4v.1c-.4 1.6-1 1.6-2.1 1-1.7-1-3.7-1.4-5.6-1.6l-2.6-.2c-.8 0-1-.1-1.5-.5Zm20.8 26.3-.2 2.5-.2.7c-.2.5-.6.6-1 .3-.3 0-.4-.3-.6-.4-2.1-1.8-4.5-3-7.3-3.4l-.9-.2c-.6-.2-.7-.6-.3-1l1-1c1.4-1.5 2.5-3 3-5 .3-.8.3-1.7.5-2.6 0-.4 0-1 .5-1.3.6-.2 1 .3 1.4.6 2 2 3.1 4.5 3.7 7.3l.4 3.5ZM80.3 105l-1.2.5c-1.4.4-2.7 1-3.8 2L74 109c-1 1.2-2.2 1.4-3.6 1.3-.5 0-1-.4-1.3-.7l-3.5-3.4-4.8-5.5A3 3 0 0 1 60 99l1 .4c1.5.7 2.9 1.5 4.4 2a41 41 0 0 0 10.3 2.5l3.7.5.9.3v.2Zm52.8 60.4 1 .1c3.5 1 6.8.5 9.9-1.2 1.3-.7 2.6-1.5 4.1-1.8a12 12 0 0 1 2.7-.3c1.1 0 2 .5 2.5 1.6.3.5.2 1.1-.1 1.6-.7.9-1.6 1.5-2.5 2a12.4 12.4 0 0 1-7 1.4 28.5 28.5 0 0 1-9.6-2.2c-.7-.3-.9-.5-1-1.2ZM84 105.2c.7-.5 1.3-.5 1.9-.5l5.8-.2a58 58 0 0 0 12.2-1.9c.6-.2 1.3-.4 2.2-.2l-.5.7a17 17 0 0 0-3.3 4.4c-.5 1-1 1-2 .4-3.1-2.2-7.1-1.2-9.4 1-1 1-1.5 1-2.3-.3-.8-1.1-1.9-2-3.1-2.6l-1.5-.8Z"/><path fill="#000" d="m107 43.2-.8.3c-2.5.3-4.9.3-7-1l-1.4-.8a7.8 7.8 0 0 0-5.7-1l-4.2.8a8 8 0 0 1-4.8-.9c-.3-.2-.7-.3-.7-.8.4-.4.9-.4 1.3-.4 3.9 0 7.7-.6 11.5-1.1 1.5-.2 3-.4 4.5-.2 1.6.3 3.1 1 4.3 2.1l2.1 2 .8 1Z"/><path fill="#FFFDDF" d="M74.9 111c0-1 .6-1.7 1.3-2.3.9-.9 2-1.3 3.1-1.6 2-.4 4-.5 6 .5 1.4.8 2.3 2 2.9 3.6.4 1.2-.5 2.7-1.7 3-.4.2-.8 0-1-.3l-.5-.6c-1.6-2.5-4.9-2.6-6.7-2a4 4 0 0 0-1.5 1.4c-.6.8-1.1.7-1.5-.2l-.4-1.4Zm59.6-18.3c-.2 2-.7 4-1.7 6-.5.9-1.2.7-1.5 0-1-1.8-1.8-3.5-2.6-5.3-.4-1-.3-2-.2-3.1.2-1.3.6-2.5 1.3-3.6.2-.4.5-.7.9-1 .6-.5 1.1-.4 1.7 0l.6 1c.8 1.8 1.4 3.8 1.5 6Zm6.2 1.6c0 1.5-.2 3.1-.8 4.7l-.5 1c-.3.5-.7.5-1 0a3 3 0 0 1-.2-.7l-2-7a43.5 43.5 0 0 1-.1-7.1c0-.5.2-1 .4-1.4.3-.6.8-.7 1.2-.3.4.4.8.8 1 1.3l1.2 3.3c.5 2 .8 3.9.8 6.2Z"/><path fill="#FF65BE" d="M18 70c-.1.8-.4 1.7-1 2.5a13 13 0 0 1-4.3 4.7c-.9.6-1.5.5-1.8-.6-.5-2.4-1.7-4.3-3.2-6.1l-.8-1.1c-.3-.5 0-.8.5-.8l1.3.3c2 .4 4 .7 6.1.4.7 0 1.3-.3 2-.4.8-.2 1.2 0 1.2 1.1Zm144 18 .6.6 1.3 1.7a18 18 0 0 0 6.8 5.4c.3 0 .6.3.9.5.4.3.3.5 0 .8l-1 .5a5 5 0 0 0-2.9 2.5l-.2.5c-.4.5-.8.7-1.3.2a8.6 8.6 0 0 1-1.8-2c-1.3-2-2-4.3-2.3-6.6l-.4-2.8v-1.1l.2-.1Z"/><path fill="#FFFDDF" d="m142 89.4.4-2.8c.1-.5.3-1 .9-1.1.6 0 1 .2 1.3.6a21.5 21.5 0 0 1 3 8.8 7 7 0 0 1-1.4 4.4c-.6.8-1.2.7-1.5-.2l-1-3.4c-.5-1.3-1-2.6-1.3-4l-.5-2.3Zm12.6 2.6c0 2.2-.8 4.2-2 6.1 0 .1 0 .2-.2.3-.6.7-1.2.7-1.5-.2l-1.6-4.2v-1.1c.4-2 1.1-4 2.1-5.7.3-.5.7-1.1 1.4-1 .6 0 .8.6 1 1.2.5 1.4.8 3 .8 4.6Zm-53.9 19c-.1.7-.4 1.3-1 1.7-.3.3-.6.2-1 0l-1-.7a3.4 3.4 0 0 0-4.9 1.2l-.3.5c-.5.8-.9.9-1.5.1-.5-.5-.7-1.2-.4-1.9a5.9 5.9 0 0 1 4.7-3.6c1.6-.3 3.1 0 4.4 1 .5.5 1 1.3 1 1.7Z"/><path fill="#07B8BA" d="M82.9 37.4c-1 .6-1.8.4-2.5.3-3-.3-5.8-1-8.5-2.5-.4-.2-1-.3-.9-.9.1-.6.7-.6 1.1-.8 3.2-1 6-.4 8.6 1.8l1.6 1.4.6.7Z"/><path fill="#000" d="M25.8 59.8h-.5c-.7-.1-1-.5-.8-1.2l.7-2 .3-2c.1-1 .5-1.2 1.5-.9.6.3 1.3.6 2 .7l1.8.1c1.1 0 1.5.5 1.1 1.6a5 5 0 0 1-2 2.4 7 7 0 0 1-4 1.3ZM125.7 39c1 .2 2 .2 3 .5l4.5 1.5c1 .4 1.6 1.2 2.1 2.1.6 1.1 1.3 2.2 2.1 3 .2.3.5.8.4 1-.1.5-.7.4-1 .3a6 6 0 0 1-3.6-1.8c-1-.9-1.7-1.8-2.5-2.7-1-1.2-2.3-2.1-3.7-2.9l-1.4-.7V39Z"/><path fill="#FFFDDF" d="m156.4 92.1.3-1.4a57 57 0 0 1 1.2-2.9c.2-.4.4-.8 1-.7.5 0 .7.5.8 1 .3 1.3.7 2.6.8 4 0 1.2-.6 2.4-1.2 3.5-.2.5-.4.9-.7 1.2-.4.5-1 .5-1.2-.2l-1-4.5Z"/><path fill="#07B8BA" d="M121 41.6c.3-.6.8-.6 1.3-.6 3-.2 5.4.7 7.4 3l2.8 3.3c0 .4-.3.5-.6.5l-1.4-.5-3.9-2.4c-1.5-1-3-2-4.6-2.7-.4-.1-.7-.4-1-.6Zm-9.1 0c-1 .7-1.8.6-2.6.4a5.5 5.5 0 0 1-3-1.7 13.7 13.7 0 0 0-4.1-3.2c-.3 0-.5-.2-.7-.4l-.2-.3c.7-.5 1.4-.3 2-.2 1.7.2 3.2.8 4.4 2 1 1.1 2 2 3.3 2.7l.9.7Z"/><path fill="#FF65BE" d="M74.5 38.4c-.7.6-1.5.6-2.2.5-1.3-.2-2.6-.4-3.8-.8-1.1-.3-2.2-.9-3.3-1.3l-.4-.2c-.2-.2-.5-.4-.5-.6 0-.2.4-.5.6-.5.6-.2 1.3-.2 2-.2 1.9 0 3.6 1 5.3 1.7l1.7 1c.2 0 .3.2.6.4Zm57.7 0c.5-.2 1 0 1.5 0 1.4.5 2.6 1.2 3.6 2.2l3 3c.4.4.7 1.2 1 1.8 0 .3 0 .8-.2 1l-1-.1c-.6-.5-1.4-1-1.9-1.6a9.6 9.6 0 0 1-1.5-2.2 6.9 6.9 0 0 0-3.4-3.2l-1.2-.7.1-.2Zm54.5 59.1c0 .6-1.1 2-1.6 2-.3 0-.5-.2-.8-.3l-.7-.5c-.6-.4-1.2-.4-1.7-.1l-.6.3c-1 .6-1.9.3-2.4-.6-.2-.4 0-.8.4-.9h1.5c1.3.1 2.6-.1 4-.2h1.4c.3 0 .5.1.5.3Z"/><path fill="#000" d="m108 175.8.7-2.8c.1-.4.4-.8.8-1.1.4-.4 1-.3 1 .3.3.9.4 1.8.5 2.7 0 .3-.3.7-.5 1l-1.6.8c-.6.3-.8.1-.8-.6v-.2h-.1Z"/><path fill="#FFFDDF" d="M186 102.1c0-.2 0-.6.3-.9.4-.7 1-1.4 1.6-2 .2-.3.6-.5 1-.2.3.2.3.6.2 1l-1.3 2.8c-.2.4-.4.9-1 .7-.5-.1-.8-.6-.9-1.4Zm-5 .5c0-.9.3-1.5.7-2 .4-.3.8-.4 1.2-.2.4.2.7.7.6 1.2a5 5 0 0 1-1.3 2.2c-.3.3-.6.3-.8-.1l-.3-1.1Zm12.4-3-.8 2c-.1.2-.4.3-.6.4-.1-.1-.4-.3-.4-.5v-2c0-.2.2-.6.5-.8.1-.1.5-.3.7-.2.2.1.3.5.5.8v.2Z"/><path fill="#000" d="M192.3 96.1c-.4.6-.8 1-1.5 1.2-.3 0-.6 0-.7-.4-.1-.3.1-.5.4-.6.5-.2 1-.4 1.8-.2Zm-22 44.1c-.5-1 0-1.9.3-2.7.4.7.3 2-.3 2.7ZM122.7 39l-1 .1V39h1v.2ZM141 230.2l-.5 3.7a35 35 0 0 1-.8 3.1 10.9 10.9 0 0 1-8.4 8c-3.4.9-6.8.6-10.1-.4a8.7 8.7 0 0 1-6.2-8.4 22 22 0 0 1 2.5-9.3c2.4-4.2 5.6-7.4 10.4-9l1-.2c1.6-.8 3.2-.7 4.7.3 3.2 2 6 4.7 6.9 8.7.3 1.2.3 2.4.5 3.5Zm-14 11.3c1.5 0 2.9-.1 4.3-.4a9.5 9.5 0 0 0 7.1-5.8 13 13 0 0 0 .6-8.5 10 10 0 0 0-7.5-7.4c-.6-.1-1.2-.2-1.9-.1-1.6 0-3.1.7-4.6 1.6a18 18 0 0 0-4.9 4.6c-1.7 2.4-3 5-2.9 8.1 0 3.7 2.1 6.4 5.7 7.3l4.2.6Zm1.9 1.8c-.8 0-1.6 0-2.3-.2a39 39 0 0 1-2.4-.3l-2.3-.5c-.7-.1-1.4-.6-2.3-.6 1.6 1.7 6.5 2.6 9.3 1.6Zm35.1-5.2c2.2 0 4.2.3 6 1.3a8 8 0 0 1 4.1 4l1.2 2.5c1 2 1.1 4 .9 6.2-.2 2.3-.8 4.4-2 6.4-1.8 3-4.3 5-7.9 5.5a17 17 0 0 1-7.1-.6c-2.1-.6-4-1.5-5.5-3a11 11 0 0 1-1.8-2.5l-1.3-2.8a8.7 8.7 0 0 1-.5-5.5A14 14 0 0 1 164 238Zm9.5 10-.1-1.3a7 7 0 0 0-4.7-6.4 12.7 12.7 0 0 0-17.1 9.6c-.3 1.8-.2 3.4.7 5a8.6 8.6 0 0 0 3.6 3.3c2.4 1.3 5 1.7 7.7 1.7 3 0 5.3-1.2 7.1-3.5 2-2.4 2.7-5.2 2.8-8.5Zm-12.2 13.7c.5.5 1.1.6 1.7.6 3.3.5 6.2-.2 8.4-2.7.6-.7 1.1-1.4 1.2-2.4l-1 .8c-2 2-4.5 3.3-7.4 3.5l-3 .2Zm1.2-39.4a26.8 26.8 0 0 1-15.7-5.8 11.6 11.6 0 0 1-3.7-5.8c-.4-1.4-.2-2.8.4-4.1l.8-2.2a6.3 6.3 0 0 1 2.9-3.6 28.5 28.5 0 0 1 12.2-3.1 10 10 0 0 1 8.8 4.9 23 23 0 0 1 3.2 8.8c.2 1.5 0 3-.6 4.4-.3.5-.5 1.2-.7 1.9-.5 2-1.8 3.3-3.7 4-1.3.4-2.6.6-4 .6Zm-4.6-23.1c-1.7 0-4.5.6-7.3 1.6-1.2.4-2.3 1-3.3 1.7a4 4 0 0 0-1.5 3.4c0 1 .4 2 .9 2.9a12 12 0 0 0 4.3 4.5c3.7 2.3 7.8 3.6 12.1 4 1.5 0 3 0 4.3-.7 1.3-.6 2.3-1.5 2.5-3v-2.2c-.5-2.2-1.1-4.4-2.1-6.5-1.8-3.7-4.5-5.8-10-5.7ZM145 209.8c-.5.7-.2 1.2 0 1.7a11 11 0 0 0 4.3 5.1c2.8 1.9 6 3.1 9.2 3.8 1.9.4 3.7.6 5.6.4 1-.2 2-.4 2.8-1 .4-.3.6-.6.4-1.1h-1.2c-1.2 0-2.3.2-3.5.1-2.4-.2-4.8-.7-7-1.6a19.8 19.8 0 0 1-9.9-6.8l-.7-.6ZM105 199c0-2.6.4-5.2 1.3-7.6 1-2.5 2.8-4 5.3-4.9a15 15 0 0 1 9.8 0 8.5 8.5 0 0 1 6 7.9v4.2a10 10 0 0 1-2.4 6.5 10.6 10.6 0 0 1-5.4 3.3 21 21 0 0 1-8.2.5 7 7 0 0 1-6.1-6c-.3-1.3-.3-2.6-.4-3.9Zm20.8-3.8a7 7 0 0 0-5.4-7.5c-3.2-.9-6.4-.7-9.5.7a5.7 5.7 0 0 0-3 3.3c-.4.8-.7 1.6-.9 2.5-.5 2.3-.7 4.5.1 6.8.7 2 2 3.3 4 3.7 3.3.5 6.4.3 9.5-.9a7.6 7.6 0 0 0 3.2-2.3c1.5-1.8 2-3.9 2-6.3Zm-15.6 11.2c.3.5.8.7 1.2.8 1.5.3 3 .2 4.5.1 1.3 0 2.6-.3 3.9-.9l.6-.3v-.2c-3.4.7-6.8.9-10.2.5Zm85.7-9.8c0 3.5-1.1 6.2-2.8 8.7a14.2 14.2 0 0 1-4.5 4.3c-.8.5-1.6.8-2.6.9-1.1 0-2.1-.4-2.7-1.4a14.8 14.8 0 0 1-2.6-7c0-2.4-.8-4.7-2.3-6.8-1.4-2-2.5-4.3-3.5-6.5-1-2-.7-3.9 1-5.5a8.9 8.9 0 0 1 10.5-1.9 14 14 0 0 1 6.3 6.2l2.1 4.1c.8 1.7 1.2 3.4 1.1 5Zm-3-2.2v-1.5c-.7-4.2-2.8-7.5-6.4-9.7a7.5 7.5 0 0 0-9.5 1.2c-1 1-1.4 2.3-.8 3.7l.8 1.5 2 3.2c1.8 2.9 3 6 3.3 9.5 0 .8.2 1.6.5 2.4.4 1.2 1.3 1.6 2.5 1.3l.8-.3c1.6-.8 3-2 4-3.6 1.6-2.3 2.9-4.8 2.8-7.7Zm.4 6.6-.2-.1-.6.7-.7 1a14.1 14.1 0 0 1-6.4 5.2c-.3.2-.3.6 0 .8.2.2.5.2.7.2.8 0 1.6-.3 2.2-.8 2.2-1.5 3.8-3.6 4.8-6l.2-1Zm14.1 33.4c0 5.2-4.2 9-9.7 8.5a12 12 0 0 1-7.9-4.1c-2-2.2-3.2-4.8-4-7.6-.5-1.6-1-3.2-1.4-5-.5-2-.5-4.2-.2-6.3.3-1.3 1.1-2 2.5-2.3a9 9 0 0 1 3.7.4 37.6 37.6 0 0 1 13.2 7c1 .8 1.7 2 2.2 3.3l1.2 3.5.4 2.6Zm-10 4.1h.6c2-.1 3.7-.6 5-2a7.6 7.6 0 0 0 1.5-7.2 8 8 0 0 0-3.5-4.6c-2.8-2-5.9-3.6-9.1-4.7-1.3-.5-2.6-.7-4-1-1.4-.2-2.1.5-2.3 2v.7a18.5 18.5 0 0 0 6.4 14.9 9.1 9.1 0 0 0 5.5 2ZM195 240v.3c.2.2.5.5 1 .6 2 .8 4.2.7 6.2-.3 1-.4 1.8-1.1 2.3-2 .2-.3.4-.7 0-1.1-1.3 1-2.8 1.9-4.4 2.3-1.7.4-3.4.2-5.1.2Zm-70 29.1c-.1 3.5-.5 6.6-2 9.5l-1 1.8c-.3.6-.8 1.3-1.4 1.9-1.3 1-2.8 1-4.3.4a11 11 0 0 1-4-3.1 26.4 26.4 0 0 1-6.1-14.1 4 4 0 0 1 .6-2.8l1-2c.7-1.6 2-2.5 3.6-3 1.8-.7 3.6-1 5.4-1a6 6 0 0 1 5.1 2.3c1.6 2 2.4 4.3 2.8 6.7l.3 3.4Zm-1.5.3v-1.2c-.1-1.8-.5-3.4-1-5-.4-1.2-1-2.2-1.7-3.1a4.9 4.9 0 0 0-4.4-2c-2 .2-3.8.5-5.4 1.4-1.6.8-2.1 1.8-1.9 3.5.7 4.6 2.5 8.8 5.4 12.5 1 1.2 2.1 2.3 3.6 3 1.4.6 2.6.3 3.5-.9l.6-1c1-2.2 1.2-4.7 1.3-7.2Zm-12.8 3.6-.3.1.3 1 1.6 2.9c.9 1.3 1.9 2.5 3.2 3.5.8.5 1.6 1 2.6 1 .3 0 .6 0 .9-.2.3-.2.3-.5 0-.8l-.6-.2-1.8-.9a16 16 0 0 1-4.2-4l-1.7-2.4Zm59.6 23.5c-1.9 0-4-.4-6-1.6a8.2 8.2 0 0 1-3.8-4.9c-.5-1.8-1-3.7-.8-5.6a9.5 9.5 0 0 1 5.4-8.6 14 14 0 0 1 10.8.6c3 1.6 5.1 4 5.9 7.5l.6 3a8 8 0 0 1-4.6 8 15 15 0 0 1-7.5 1.6Zm0-3.7c2 0 4-.3 5.7-1.1a7 7 0 0 0 3.6-9.6c-1-2-2.7-3.5-4.7-4.4-2.2-1-4.5-1.3-6.8-1.1-1.4 0-2.7.6-3.9 1.5a8.5 8.5 0 0 0-3 5.5 7.7 7.7 0 0 0 4.8 8.5c1.4.6 2.8.7 4.2.7Zm-26.4 6.9c-2.6 0-5.1-.5-7.5-1.6a10 10 0 0 1-5.7-5.9c-.2-.7-.6-1.4-1-2.1a9.4 9.4 0 0 1 .1-8 6.8 6.8 0 0 1 3-3.2c2.7-1.4 5.5-1.9 8.4-1.2 2 .5 3.7 1.6 5.3 2.9 2 1.5 3.4 3.4 4.4 5.7l.9 2a8 8 0 0 1 1 4c0 3.3-1.7 6.2-5.4 7l-3.5.4Zm-1-4.7c.5 0 1.5 0 2.4-.2 2.3-.3 4-1.8 4.4-3.9.3-1.5.1-3-.4-4.4a12 12 0 0 0-4.5-5.3 9.7 9.7 0 0 0-3.9-2 10 10 0 0 0-7 1c-.8.3-1.4.8-2 1.4-1.7 2-1.8 4.5-1 7a8.1 8.1 0 0 0 4.2 4.7c2.3 1.3 4.8 1.7 7.8 1.7Zm7.9-1.6-1.4 1c-.9 1-2 1.5-3.1 1.8-2.3.5-4.6.4-7 .2-.6 0-1.2-.3-2.1 0l1.2.7c1.9.8 4 1 6 1a10 10 0 0 0 3.9-.7 4.1 4.1 0 0 0 2.6-3.1l-.1-1Zm-45.3-63.8-.6 3.9-.8 6.1c-.2 1.3-.4 2.6-.8 3.8a4.8 4.8 0 0 1-5.4 3.4c-3-.4-5.6-1.6-7.8-3.7-1.9-1.7-3-3.9-3.4-6.5a12 12 0 0 1 .7-5.4 20 20 0 0 1 3.5-6.6c.5-.6 1-1.2 1.7-1.7.9-.8 2-1.1 3.2-1 1.6 0 3.1.2 4.6.7a7 7 0 0 1 5.1 7Zm-1.5 0c0-2.7-1.3-4.6-4-5.5-1-.4-2.3-.6-3.5-.7-2.2-.3-3.4.8-4.1 2.2-.5 1-1 2-1.3 3-.7 1.8-1 3.8-.5 5.9a10 10 0 0 0 4.3 5.8c1.8 1.2 3.6 2 5.8 2 1 0 1.5-.5 1.7-1.5l.3-1.9.8-6.3.5-3Zm-15.2 5.2h-.3l-.2.8c-.1 1.2.1 2.3.6 3.4 1.1 2.4 3 4 5.4 5.2a9 9 0 0 0 4.5 1 3 3 0 0 0 1.3-.3c.5-.3.4-.8-.2-1l-1.3-.4a13 13 0 0 1-9.1-7.4l-.7-1.3Zm53.5 37.1c-3 0-5.4-1.7-6.5-4.7a17.6 17.6 0 0 1-.5-8 5 5 0 0 1 2.4-3.5l.7-.5c1.2-.8 2.5-.9 3.8-.3.9.5 1.8 1 2.5 1.7 2.3 2 4 4.4 5.2 7.2.3.8.5 1.7.5 2.5a3 3 0 0 1-1.1 2.6 11.4 11.4 0 0 1-5 2.7l-2 .3Zm-4.1-10.8c0 1.7.2 3.2.8 4.7a4.7 4.7 0 0 0 2.7 2.8c2.3.9 4.5.4 6.5-.9.7-.4.8-1.1.7-2-.3-1.5-1-2.9-2-4.1a15 15 0 0 0-4.7-5c-1.8-1-3.2-.5-3.7 1.6l-.3 3Zm58.9-8.9c3.8 0 6.4 1.3 8.2 4a8.8 8.8 0 0 1 1 7.5 16 16 0 0 1-8.6 10.5c-2 1-4 1.3-6.3 1-3.2-.7-5.2-3.2-5.7-6.4-.3-2.4.2-4.8 1-7 .7-2.2 1.7-4.3 3.2-6 2-2.2 5-3.7 7.2-3.6Zm-9.9 15v1a5.6 5.6 0 0 0 4.6 5.4c1.3.3 2.5.2 3.7-.2a12 12 0 0 0 6.3-4.3 13 13 0 0 0 3.3-8.7 6.5 6.5 0 0 0-3.5-5.6 8.3 8.3 0 0 0-10.4 1.9c-2.7 3-3.7 6.6-4 10.5Zm-6.6-39.7-.7.7-1.5.7c-1 .5-1.2 1.2-.4 2.2a18 18 0 0 1 2 2.8c.3.3.4.7.4 1.1 0 .5-.4.8-.8.5a2 2 0 0 1-.6-.6l-1.5-2.2c-1.3-1.6-2.7-2-4.6-1.4l-1.2.4c-.4 0-.8 0-1-.4 0-.4.2-.7.5-.8.8-.4 1.5-.8 2.3-.9 1.2-.2 2.1-.7 3-1.3a10 10 0 0 1 2.3-1.2c.3-.2.7-.2 1-.1.3 0 .5.2.8.5Zm-31.3 80.7h-2.8c-1.3 0-2.4-.4-3.4-1.1-.3-.2-.6-.5-.7-.9-.2-.4.1-.8.6-.7l.9.3c1.2.8 2.6 1 4 .8 2.2-.3 4.2.1 6 1.5l1.3 1c.3 0 .5.2.7.4.1.2.2.5.1.7 0 .1-.3.3-.5.3-.4 0-.9-.1-1.2-.3l-1.7-1.1c-1-.7-2-1.2-3.3-1Zm-13.9-115.4c.6 0 1.3.3 1.9.8a3 3 0 0 0 2.7.8c.9 0 1.8 0 2.6.3.3.1.6.3.7.5.2.2.3.5.2.7 0 .2-.4.3-.6.4a2 2 0 0 1-.8-.2 4.3 4.3 0 0 0-4 .7l-.7.4c-.6.2-1 0-1-.7v-.4c.2-.9 0-1.3-.8-1.7l-.8-.2c-.3-.2-.7-.4-.6-.8 0-.4.4-.6 1-.6h.2Zm54.6-15.2c-.1.6-.4.8-.9.6-.2 0-.4-.2-.5-.3l-.5-.6c-.7-1-1.1-1.1-2.3-.7l-2.2.7h-1.1c-.3 0-.6-.3-.6-.7 0-.2.3-.4.5-.6 1.5-.3 2.9-.8 4.2-1.4.6-.2 1.2 0 1.6.4l1.6 2.3.1.3Zm-91.6 32.7c1.7.1 3.3.6 4.6 1.7.4.3.6.7.8 1.1.2.3.1.6-.2.9-.2.2-.5 0-.7-.1l-.6-.5a6 6 0 0 0-4.2-1.5l-1.3.2c-.4.1-.8.1-1-.3-.2-.4 0-.7.4-1 .4-.3 1.3-.6 2.2-.5Zm76.3-2.1c.2-2.2 1.1-3.6 2.9-4.5l.8-.1c.3 0 .6.2.6.3 0 .2 0 .5-.2.7l-.8.6a3.5 3.5 0 0 0-1.7 3l-.1 1c0 .2-.3.5-.5.5s-.5-.1-.6-.3l-.4-1.2Zm-15.2 25.4h-.6a5.4 5.4 0 0 0-3.7.2l-1.4.5c-.4 0-.8 0-.9-.4 0-.3.2-.6.3-.8h.1c1.7-1 3.6-1.6 5.6-1.1.3 0 .7.3 1 .5 0 .2.2.5.1.7 0 .2-.4.3-.5.4Zm27 19.6c.2 0 .5 0 .8.3.5.2.4.8 0 1a3 3 0 0 1-1 .2c-1.4 0-2.5.6-3.6 1.5l-.7.6c-.5.1-.8-.2-.7-.6 0-.4.3-.9.5-1.1a6.8 6.8 0 0 1 4.7-2Zm-33.1 64.3a4 4 0 0 1 2.3-2.7c1-.4 2-.1 2.8.6l.2.3c.2.3.5.6.2 1s-.7.3-1 .1l-.5-.2c-1-.5-1.5-.3-2.1.5l-.8.9c-.2.1-.5.2-.7 0-.2 0-.3-.3-.4-.5Zm13-48.1c.8 0 1.4.5 2 1 .2.4.4.8 0 1.1-.2.3-.5.3-.9 0a8 8 0 0 0-.4-.1c-1-.5-1.6-.4-2.3.5l-.8.9c-.1 0-.5.2-.6 0-.2 0-.4-.4-.3-.6.1-1.4 2-2.9 3.3-2.8ZM94.3 164.8c0-.5.3-.7.8-.8a7 7 0 0 0 2.3-1.2c.5-.3 1-.6 1.7-.6.2 0 .5 0 .7.2.2.2.4.5.3.8 0 .2-.3.5-.5.5-1 .1-1.7.7-2.5 1.1-.4.3-1 .4-1.4.6-.6 0-1.1 0-1.4-.6Zm17 85.9a4 4 0 0 1 2.7 1l.4.6c.2.3.4.8 0 1-.3.4-.7.2-1 0-1-1-2.1-1.2-3.4-.7-.4.1-.8.1-1-.2-.2-.4 0-.7.3-1 .6-.5 1.4-.6 2-.7Zm8.9 1c1.3.1 2.3.7 3.2 1.4.3.2.4.6.2.9-.2.3-.5.3-.9.2l-1-.5c-.9-.4-1.7-.5-2.5 0l-.2.1h-.7a1 1 0 0 1-.1-.8c.1-.6.6-.9 1.2-1.1l.8-.2Zm46.1-61.7 2.9 1c.3 0 .6.3.5.7 0 .4-.4.5-.8.5a3 3 0 0 1-1-.1c-.9-.4-1.8-.4-2.8-.2-.6.2-1 .1-1-.2-.1-.5 0-.9.5-1 .5-.3 1.1-.4 1.7-.6Zm-40.2-27-.8-.4c-.6-.3-1.3-.5-2-.5h-.5c-.2 0-.6-.2-.7-.4-.2-.4 0-.7.4-1 .5-.3 1.1-.2 1.7-.1a5 5 0 0 1 2.4 1.1l.3.4c.2.5 0 .9-.8.9Zm37.7-3c.5 0 1 .1 1.5.5.4.3.5.8.3 1-.2.4-.6.4-1 .3-.8-.3-1.5-.3-2.3.2l-.4.2c-.3 0-.7.1-1-.2-.1-.3 0-.7.3-1 .7-.6 1.5-1 2.6-1ZM96 188.1c-.2-.4-.1-.8.2-1.1.8-1 1.9-1.5 3.3-1.3h.3c.4.2.8.5.7 1 0 .5-.5.6-1 .5a3 3 0 0 0-2.3.8c-.4.3-.8.4-1.2.1Zm.7-130.4-5.5.2c-2.6.1-5 1-7.4 2.2a16.5 16.5 0 0 1-9.7 1.3 72.7 72.7 0 0 1-17.7-5.5 29 29 0 0 1-3.3-2c-.3-.2-.7-.5-1-1-.3-.5-.1-1 .5-1.1.2-.1.4-.2.6-.1 4.1.6 8-.5 11.6-2.1l3.6-1.7a14.9 14.9 0 0 1 14 0l4.7 2.2c2.9 1.4 6 2 9.2 2.4l8.7 1c.7 0 1.3.2 1.9.5.9.4 1 1.3.3 2l-1.1.6c-2 .8-4 1.1-6 1.2h-3.4ZM77 60.1c1.6 0 3.1-.3 4.6-.8a4 4 0 0 0 2.1-1.4c1.2-1.4 2-3 2-4.8.2-1.4 0-1.9-1.3-2.5-1.3-.7-2.7-1.3-4-1.8a13 13 0 0 0-10.6 0c-1 .6-1.6 1.3-1.7 2.4a9 9 0 0 0 2.3 7c.7.8 1.6 1.4 2.8 1.5l3.8.4ZM75 80l-.8-.4-.5-.6c-.5-.5-1.1-.6-1.7-.2l-1.3.8c-.3.2-.7.3-1 0-.3-.4 0-.7.2-1l1-.9c.7-.7.7-1.1.2-2l-.7-1c-.2-.4-.2-.7.1-1 .3-.2.7 0 1 .2l.8.8c.6.7 1.2.8 2 .3l.8-.6c.2-.1.4-.3.7-.3.6 0 .9.4.6.9l-.5.6-.4.3c-1 1-1 1.3-.3 2.5l.4.9c.2.4-.1.8-.6.8Zm36.2-6.7-.4.8-.5.6c-.6.9-.5 1.3.2 2l.7.7c.3.3.4.7.1 1-.2.4-.6.3-.9.1l-.8-.5c-.8-.5-1.4-.5-2.1.3l-.8.8c-.4.4-.8.5-1 .2-.4-.3-.2-.7 0-1l.7-1c.5-.9.4-1.4-.3-2l-.8-.8c-.3-.3-.4-.7-.2-1 .3-.4.7-.3 1 0l.9.5c.8.6 1.3.5 2-.2l.8-.8.8-.4c.4 0 .6.2.6.7ZM75.5 86.2l-.2 1c-.2 1 0 1.4 1 1.8l1.1.4c.4.2.7.4.6.9-.1.3-.5.5-1 .4l-1-.2c-1.1-.2-1.6 0-2 1 0 .4-.2.7-.4 1-.2.3-.5.5-.8.3a1 1 0 0 1-.4-.7l.2-1.2c.1-.9-.1-1.3-1-1.6-.4-.2-1-.3-1.3-.6-.3-.1-.5-.5-.4-.7 0-.2.4-.4.7-.4l1 .1c1.4.3 1.8.1 2.3-1.1l.3-.9c.2-.3.4-.6.8-.5.4.1.5.6.5 1Zm21 2.2-.5.6-1.1.6c-.9.4-1 .9-.8 1.8l.2 1c0 .3-.1.7-.3.8-.2.1-.6 0-.8-.2-.2-.1-.2-.4-.3-.6-.8-1.4-1.1-1.5-2.6-1l-.8.3c-.3 0-.7 0-.9-.3-.1-.4 0-.7.4-1l1-.5c1-.5 1.3-1 .9-2-.1-.4-.3-.7-.3-1.1 0-.3.1-.6.3-.8.3-.2.6 0 .8.2l.6 1c.6 1.1 1 1.3 2.2.9a6 6 0 0 1 1.4-.4c.3 0 .6.2.6.7Zm-3.7-6.8-.9-.5c-1.1-.9-1.5-.9-2.6.1l-.8.7c-.2.1-.6.1-.8 0-.3-.2-.3-.6 0-.9l.7-1c.8-1 .8-1.4-.1-2.3-.2-.3-.5-.5-.6-.8-.1-.3-.2-.7 0-.9.2-.3.6-.2.9 0l.8.6c.7.6 1.4 1 2.4 0l.6-.7c.4-.2.7-.5 1.1-.1.3.2.3.6 0 1l-.6.8-.3.3c-.5.6-.5 1.1 0 1.8l.8 1c.3.5 0 1-.6 1Zm19.9 8.4-.2-.1c-.9-.4-1.6-.3-2.4.2-.2.2-.6.2-.8 0-.4-.1-.3-.5-.1-.8a2 2 0 0 0 0-2.3c-.3-.2-.4-.7 0-.9.1-.1.5-.2.8 0 .8.4 1.5.3 2.2-.2.2-.2.4-.2.5-.2.4 0 .6.1.6.5 0 .3 0 .5-.2.7a2 2 0 0 0 0 1.8l.2.4c.2.6-.1.9-.6.8Zm72-6.7-.5.6-1.1.6c-.9.5-1 1-.8 1.9l.3 1.2-.3.6c-.2 0-.5 0-.7-.2l-.5-.6-.5-.8c-.3-.4-.7-.6-1.2-.4l-1 .4a3 3 0 0 1-1 .2c-.2 0-.5-.2-.5-.3l.1-.7.7-.5.9-.5c.6-.4.8-.9.6-1.7l-.3-.6-.2-.8c0-.3 0-.6.4-.7.3 0 .6.1.7.3.3.2.5.5.6.8.5 1.3 1.3 1.3 2.4.9a5 5 0 0 1 1-.4c.5 0 .9.3.9.7ZM166 73.6c0 .7-.4 1-.8.7l-1-.8c-.8-.8-1.2-.8-2.1-.2a8 8 0 0 1-1.3.8l-.7-.1v-.7c0-.3.3-.5.4-.7l.6-.5c.9-.8 1-1.2.2-2.2l-.5-1c-.1-.2 0-.6.1-.8l.8.1c.2 0 .3.3.5.4l.4.4c.8.9 1.2.9 2.2.3l1-.7c.3-.2.6-.3.9 0 .3.3.1.7 0 1l-1 .8c-.8.8-.9 1.3-.3 2.2l.6 1Zm26-1.6.5.4 1 .7c.5.4 1 .4 1.5 0l.8-.6.5-.4c.3-.2.6-.3 1 0 .2.2.1.6 0 .9l-1 1c-.6.9-.6 1.3 0 2.1l.5.5c.4.5.5 1 .2 1.2-.4.3-.8 0-1.1-.2-.2 0-.4-.2-.5-.4-1-.7-1.5-.7-2.3.1l-1 .8c-.2.2-.6.3-.9 0-.2-.3-.1-.7 0-1l.8-.8c.8-1 .8-1.4 0-2.4l-.7-1c-.3-.5 0-.8.6-.8Zm-8-2-.4.6-.6.6c-.7.9-.7 1.4 0 2.2l.6.8c.1.3.2.6 0 .9-.3.3-.6.2-.9 0l-.7-.5c-1-.8-1.4-.8-2.4 0l-.6.6-.7.4c-.4 0-.7-.3-.6-.7 0-.3.2-.5.3-.7l.3-.3c1.2-1.4 1.2-1.5 0-2.8l-.5-.8c0-.2 0-.6.2-.8.1-.2.4-.2.7 0l1 .7c.8.7 1.4.7 2.2 0l1.2-.9c.5-.2.8 0 .8.6Zm-11.6 11.6-.6.8c-.6.4-.9 1-.8 1.8 0 .3-.1.6-.3.8-.3.3-.6 0-.8-.2-.2 0-.3-.2-.5-.3-.3-.4-.7-.5-1.1-.4h-.7c-.2 0-.6-.1-.7-.3l.2-.7c0-.2.2-.3.3-.4.6-.3.8-.8.7-1.5 0-.4-.2-1 .3-1.2.5-.2.8.3 1 .6.5.5 1 .7 1.7.5h.7c.2 0 .4.3.6.5Zm22.9 5.6c-.9-.5-1.8-.2-2.7.4-.5.3-1-.3-.8-.8.6-1 .5-1.8 0-2.7-.4-.5 0-.9.5-.8.3 0 .5 0 .7.2.6.3 1 .2 1.6-.1.4-.3.8-.7 1.2-.3.5.4.1.9 0 1.3-.3.5-.3 1 0 1.6l.2.4c.2.5 0 .8-.7.8ZM163 48.3c.8 0 1.4.6 1.4 1.5s-.7 1.6-1.6 1.5c-.8 0-1.5-.7-1.5-1.5 0-.9.7-1.6 1.6-1.5Z"/><path fill="#FF65BE" d="M127 241.5c-1.3-.2-2.7-.3-4-.6a7.1 7.1 0 0 1-5.8-7.3c0-3 1.2-5.7 3-8 1.3-2 2.9-3.5 4.8-4.7 1.5-.9 3-1.5 4.6-1.6l1.9.1a10 10 0 0 1 7.5 7.4c.7 3 .6 5.8-.6 8.5a9.5 9.5 0 0 1-7.1 5.8 20 20 0 0 1-4.2.4Zm1.9 1.8c-2.8 1-7.7.1-9.3-1.6 1 0 1.6.5 2.3.6l2.3.5 2.4.3 2.3.2Zm44.6 4.7c-.1 3.3-.8 6.1-2.8 8.5a8.8 8.8 0 0 1-7.1 3.5c-2.7 0-5.3-.4-7.7-1.7a8.6 8.6 0 0 1-3.6-3.3c-.9-1.6-1-3.2-.7-5 .9-4.7 4.4-9 9.5-10a13 13 0 0 1 7.6.4 7 7 0 0 1 4.7 6.4v1.2Z"/><path fill="#FF65BE" d="m161.3 261.8 3-.2c2.8-.2 5.3-1.5 7.3-3.6l1-.7c0 1-.6 1.7-1.2 2.4-2.2 2.5-5.1 3.2-8.3 2.7-.7 0-1.3 0-1.8-.6Zm-3.4-62.5c5.4-.1 8.1 2 9.9 5.7 1 2 1.6 4.3 2 6.5.2.7.2 1.5 0 2.2-.1 1.5-1 2.4-2.4 3-1.3.6-2.8.7-4.3.6-4.3-.3-8.3-1.6-12-3.9a12 12 0 0 1-4.4-4.5 7 7 0 0 1-1-2.9c0-1.4.6-2.5 1.6-3.4 1-.8 2.1-1.3 3.3-1.7a29 29 0 0 1 7.3-1.6Z"/><path fill="#FF65BE" d="m145 209.8.7.6c2.5 3.5 6 5.4 9.8 6.8 2.3.9 4.7 1.5 7 1.6l3.6-.1h1.2c.2.5 0 .8-.4 1-.8.7-1.8 1-2.8 1a16 16 0 0 1-5.6-.3c-3.3-.7-6.4-1.9-9.2-3.8a11 11 0 0 1-4.3-5c-.2-.6-.5-1.1 0-1.8Zm-19.2-14.6c0 2.4-.5 4.5-2 6.3-.8 1-2 1.8-3.2 2.3-3 1.2-6.2 1.4-9.4.9-2.1-.4-3.4-1.8-4.1-3.7-.8-2.3-.6-4.5 0-6.8.1-.9.4-1.7.8-2.5a5.7 5.7 0 0 1 3-3.3c3-1.4 6.3-1.6 9.5-.7a7 7 0 0 1 5.4 7.5Zm-15.6 11.2c3.4.4 6.8.2 10.1-.5v.2l-.5.3c-1.3.6-2.6.8-4 1-1.4 0-2.9 0-4.4-.2-.4-.1-1-.3-1.2-.8Zm82.8-12c0 3-1.3 5.4-3 7.7a11 11 0 0 1-4 3.6 1 1 0 0 1-.7.3c-1.2.3-2.2-.1-2.5-1.3-.3-.8-.5-1.6-.5-2.4a21 21 0 0 0-3.3-9.5l-2-3.2-.8-1.5a3 3 0 0 1 .8-3.7 7.5 7.5 0 0 1 9.5-1.2 13 13 0 0 1 6.3 9.7l.1 1.5Zm.3 6.6-.3 1c-1 2.4-2.5 4.5-4.7 6-.6.5-1.4.9-2.2.8-.2 0-.5 0-.7-.2a.5.5 0 0 1 0-.8l.4-.2c2.6-1 4.4-3 6-5l.7-1 .6-.7.2.1Zm4.2 37.5c-2 0-4-.7-5.5-2a15.9 15.9 0 0 1-5.3-7.4c-.9-2.3-1.3-4.8-1.1-7.3v-.8c.2-1.5 1-2.1 2.4-2l3.9 1c3.2 1.1 6.3 2.8 9.1 4.7a8 8 0 0 1 3.5 4.6c.7 2.6.3 5-1.5 7.1-1.3 1.5-3 2-5 2.1h-.5Zm-2.6 1.5c1.7 0 3.4.2 5-.2 1.7-.4 3.2-1.4 4.6-2.3.3.4.1.8 0 1-.6 1-1.4 1.7-2.4 2.1-2 1-4.2 1.1-6.3.3l-1-.6.1-.3Zm-71.4 29.4a20 20 0 0 1-1.3 7.3l-.6 1c-.9 1.1-2.1 1.4-3.5.8a9.7 9.7 0 0 1-3.6-3 26.5 26.5 0 0 1-5.4-12.5c-.2-1.7.3-2.7 1.9-3.5 1.6-.9 3.5-1.2 5.4-1.3 1.8-.2 3.3.5 4.4 1.9.8.9 1.3 2 1.7 3a23 23 0 0 1 1 5.1v1.2Zm-12.8 3.6c.5.8 1 1.6 1.7 2.3 1.2 1.6 2.5 3.1 4.2 4.1l1.8.9.6.2c.3.2.3.6 0 .8a2 2 0 0 1-1 .2c-1 0-1.7-.5-2.5-1-1.3-1-2.3-2.2-3.2-3.5l-1.6-3-.3-1h.3Zm59.5 19.8a10 10 0 0 1-4.2-.7 7.7 7.7 0 0 1-4.8-8.5 8.9 8.9 0 0 1 3-5.5c1.2-1 2.5-1.4 3.9-1.5 2.3-.2 4.7 0 6.8 1 2 1 3.6 2.4 4.7 4.5a7 7 0 0 1-3.6 9.6 13 13 0 0 1-5.8 1Zm-27.3 2.2c-3 0-5.5-.4-7.8-1.7a8 8 0 0 1-4.3-4.7c-.7-2.5-.6-5 1.2-7 .5-.6 1.1-1.1 1.8-1.5 2.3-1.1 4.7-1.4 7.1-1 1.4.4 2.7 1.2 3.9 2 2 1.4 3.6 3.1 4.5 5.4.5 1.4.7 3 .4 4.4-.4 2.1-2 3.6-4.4 4l-2.4.1Z"/><path fill="#FF65BE" d="M150.8 293.4c0 .4.2.7.1.9a4.1 4.1 0 0 1-2.6 3.1 10 10 0 0 1-3.8.7c-2.1 0-4.2-.2-6.2-1l-1.1-.7c.9-.3 1.5 0 2.1 0 2.4.2 4.7.3 7-.3 1.2-.2 2.2-.8 3.1-1.6l1.4-1.1ZM104 229.7l-.5 2.9-.8 6.3-.3 1.9c-.2 1-.7 1.4-1.7 1.4-2.2 0-4-.7-5.8-1.9a10 10 0 0 1-4.3-5.9c-.5-2-.2-4 .5-5.9.3-1 .8-2 1.3-2.9.7-1.4 2-2.5 4.1-2.2 1.2.1 2.4.3 3.6.7 2.6 1 3.8 2.8 3.9 5.6Z"/><path fill="#FF65BE" d="m88.8 234.8.7 1.3c1.8 4 5 6.4 9 7.4l1.4.4c.6.2.7.7.2 1a3 3 0 0 1-1.3.3 9 9 0 0 1-4.5-1 10.6 10.6 0 0 1-5.4-5.2 7.9 7.9 0 0 1-.6-3.4l.2-.8h.3Zm49.4 26.3c.1-1 .1-2 .4-2.9.4-2 1.8-2.6 3.6-1.5 2 1.2 3.5 3 4.8 4.9a10 10 0 0 1 1.9 4.2c.1.8 0 1.5-.7 2a7.2 7.2 0 0 1-6.5.8 4.7 4.7 0 0 1-2.7-2.8 12 12 0 0 1-.8-4.7Zm49 6.1c.3-4 1.3-7.6 4-10.5 2.7-3.1 7-4 10.4-2a6.5 6.5 0 0 1 3.5 5.7 13 13 0 0 1-3.3 8.7c-1.7 2-3.7 3.6-6.3 4.3-1.2.4-2.4.5-3.7.2a5.6 5.6 0 0 1-4.6-5.3v-1.1Z"/><path fill="#FFFDDF" d="m77 60.1-3.8-.4c-1.2-.1-2-.7-2.8-1.6a8.9 8.9 0 0 1-2.3-6.9c0-1.1.6-1.8 1.7-2.3 3.5-1.6 7-1.6 10.6-.1 1.3.5 2.7 1.1 4 1.8 1.3.6 1.5 1.1 1.4 2.5-.2 1.8-1 3.4-2 4.8-.6.7-1.4 1-2.2 1.4-1.5.5-3 .8-4.6.8Zm4-6.5c0-1.3-.8-2.1-2-2.2a2 2 0 0 0-2.1 2c0 1.2.8 2.1 2 2.1s2-.8 2-2Z"/><path fill="#000" d="M81 53.6c0 1.1-1 2-2.1 2a2 2 0 0 1-2-2.2c0-1.1 1-2 2.1-2 1.2 0 2 1 2 2.2ZM33.4 78.7c-9 .6-4.8 9.6-4.8 9.6s16.7-10.1 20.8 1.2c0 0-1.7-9.3-16-10.8ZM60 74.4c-6.8 9.6-1.1 24 28.6 24 16.6 0 28.2-3.5 37-22.8 1.3-3 5.3-5.6 8.2-3.9l-5-4 2.3.4 2.1-2.9h2.5s1.2 2.8 1.4 2.9l1.8 5.8 2.4 3-3.8.8c0 .2-7.3 2.4-9.9 5.8-2.6 3.4-9.7 20.3-41.8 20.3-32 0-31.7-14.9-30.6-19.3 0 0 1.5-7.7 4.8-10Zm93.2-7.7-.7-.6c-.6-.6-1-.5-1.3.4l-.2 1c-.3 2-.7 4-1.5 5.9l-.9 1.5c-.5 1-.3 1.4.7 1.7l1.1.2a17 17 0 0 1 11.6 8c1.2 1.7 2.3 3.5 3.6 5.1 1.8 2.4 4.1 4 7 4.8 2.6.9 5.4 1.1 8.2 1h2.6c3.6-.2 7-.8 10.3-2.4 2.7-1.3 4.8-3.3 6.2-6 1.2-2.2 1.6-4.7 1.7-7.2l-.1-3.5c0-1-.2-1.8-.4-2.7 1.4 8.2-1 18.2-17.6 18.2s-19.1-9.7-23.5-13.3c-4.4-3.6-6.8-6.3-3.7-12.4-.7 1.2-2 1.3-3.1.3Zm13.8-4.4c-7.8 1-10.2-6.9-10.2-6.9h-7.6l3.2 1.7.9 1.3 2.5 2.7.9 2.4 2.1.4 8.1-1.6ZM82 34.6c-2.8-3.7 13.9-3.5 22.1-2l-4-2.7-8-1.7-5-.5-7 1.7-3.7 1.7 5.7 3.5Zm45.5 1.4c-3.5-3.1-6.4-5.2-.8-5.8 5.7-.7 11.7-.4 21.1 6.7 9.5 7.2 15.4 5.2 15.4 5.2s-3.5 1.4-8.9-.2c-5.4-1.6-19.9-9.6-26.8-5.8Z"/><path fill="#000" d="M169.2 41c-4.2-.2-3.8-16.5-1.2-20.6 0 0-8.5 8.9-8.5 16.7 0 3.5-1.2 5.3 4.8 4.6 6-.7 4.9-.7 4.9-.7Zm-143.3-.2c6.6 6.5 10 5 12.2 12 2.3 7 9.3 2.3 4-6-5-8.3-3.1-16.4-15.9-21l2-.3 11 4.6 5.1 4.6 2.6 2.8 2.5 4.5.7 5-.4 6.6-1.4 4.6s-3 5.4-9.1 1.1c-6.2-4.2-6.4-3-6.7-6.4a30 30 0 0 0-6.6-12Zm14.3 110.6c3.6-10 5.3-14.4 8.1-13.3a9.4 9.4 0 0 1 5.5 6.6c-3 .7-6.6.9-13 6.7h-.6ZM28.1 131c.8-6.3.6-5.2-.4-8.6-1-3.5-4.3 4.1-8.9 3.2l9.3 5.3Zm-8.9-36.2c1.4 6.4-6.9 1.4-11.9 4.8l-.8 1 7.8.9 3.8 1.8 1.3-1.5.7-6.8-.9-.2ZM6.9 68.7c-.5.7 6 2.3 6 5.4-.2 3 3.7-.6 4.2-1.6l.3 1.6-5.9 5-1.9-3.5-4.2-7 1.5.1Z"/><path fill="#000" d="M29.5 126.2c-1.1 11.5-.2 9.8 7.5 3.4 7.8-6.4 11.3-3 19.6 12.6a129 129 0 0 0 24.5 32.7l-1.3 3.5s-16.3-13.6-25-33.3c-4.9-7.8-7.6-12-20.5-7.1-8.2 3.8-10.7 6.7-9 2.2 1.6-4.5 4.2-14 4.2-14Z"/><path fill="#000" d="M74 151.6c1.9 3 3.2-.6 4 2 .7 2.7 3.7 2.3 4.4 6.4.7 4 1 6.2 1 8.8 0 2.6-.3 5.2-1.9 8a16.4 16.4 0 0 0-1.1 9.6c.2.8-.5 1.7-1.3 1.7-.8.1-1.4.8-1.3 1.7l.3 2.5c0 .5-.1 1-.5 1.4-1.3 1-3.8 3.4-4 7.9 0 0-.4-13 5.3-21.3 5.6-8.2 4.6-15 .8-19.4-3.8-4.4-5.7-9.3-5.7-9.3ZM119.6 324c-4-3-13-10-13.5-17-.5-7.2-10.4-.6-13.4-9.7s-1.6 0-3-12.6c-1.4-12.8-8 2.5-8.1-4.8 0-7.4-7-4.8-9.5-10a123.8 123.8 0 0 0 14.7 24.4c3.1 4 6.4 7.7 10.1 11.2l5.4 4.9c4.4 3.9 9 7.4 13.7 11l3.6 2.6ZM70.4 223.4 67.2 234a39.8 39.8 0 0 0 1.2 26.3 130 130 0 0 0 3 8c-2-5-3-11.2-1.7-16.7 1.3-6.1.1-7-1.4-11-1.6-4 .4-4 3.4-22.1l-1.3 4.8ZM97 279.1c1.6 13.3 4.6 14.3 4.6 14.3s-2-5 1.5-3.4c0 0-6-6.3-6.1-10.9Zm-21-31.9c3.5 8 8.5 12.8 8.5 12.8s-2.9-5.8.4-4.4c0 0-6.1-2.5-8.9-8.4Zm80 95.2c-9.5 0-20-6.2-30.3-13.7l3.8 3c4.9 3.8 9.4 8.1 13.3 13a17 17 0 0 0 5 4.2c1.7 1 3.7 1.6 5.7 1.5a16 16 0 0 0 7-2.2 33 33 0 0 0 7.9-6c2.6-2.3 5-5 7.3-7.7a266.2 266.2 0 0 0 14.7-19.5c-2.6 3.7-7.5 2.8-8 5.5s-3.8 8.7-8.1 6.5c-4.4-2.2-2-6.4 3.1-17.1l-1.6 1.4a23.6 23.6 0 0 0-4 5.4 41.1 41.1 0 0 0-4.5 12.1c-.8 7.9-1.7 13.6-11.3 13.6Zm42.7-39.1c7.5-10.6 5.6-15.5 9.5-18.6 3.9-3.2 5.2-11.2 6.3-6.8 1.2 4.5 7.4-7.4 7.4-7.4s-7.4 13.3-11.2 17.1a70.9 70.9 0 0 0-8.1 11.8l-4 3.9Zm15.5-37.2c8.5-.4 4.6-14.5 4.6-14.5s-4 6-4.2-1.8l-1.1 10.2s0 6.1.7 6.1Zm0-55.7c2 13.1 3.2 18 4.3 22.4 1.2 4.3 1.3-3.6 3.4 2 2 5.6-.7 9 2.2 13.4 2.8 4.3 3.7 5.3 2.9 8.9 0 0 2.5-6.5.3-14.1-2.3-7.6-10.1-22-10.7-25.5-.6-3.5-2.4-7.1-2.4-7.1ZM80.6 152.6c-4-2.4-7-3.2-7-3.2s4.4.5 8.6 2.3l-1.6 1Z"/><path fill="#000" d="M79.4 152c-3-1.6-6.7-2.9-5.4-.4 0 0-2-2.6-1.4-3 .6-.4 3.4-.9 3.4-.9l.7 1.3c-2.1 0-.2.9 1.2 1.3 1.4.3 1.5 1.6 1.5 1.6Zm99.1.3c9.7 2 16 5.6 20.4 26.1 0 0-4.9-19.1-19.7-22.8l-.7-3.3Z"/><path fill="#FF65BE" d="M156 132.5c-1.8-7.9-6.3-10-10-9.3-4.2.7-7.5 1.7-6.2 5.2 1.3 3.3 4.7 7.8.9 8.1-6.5.5.1-12.8-10.9-12.1-8.1.4-9 5.6-6.5 13.4 4.2 12.5 37 12.9 32.7-5.3Z"/></svg>