<svg width="160" height="60" viewBox="0 0 160 60" fill="none" xmlns="http://www.w3.org/2000/svg">
<path d="M52.4057 12.6684V16.3211L51.369 16.347C51.369 16.347 49.9953 26.6593 49.394 32.9269C48.31 33.1894 47.2278 33.4732 46.1473 33.7783C45.5564 30.5712 45.1261 29.0272 44.5369 25.6991C44.1309 29.1981 43.7266 31.4934 43.3309 35.141C42.2596 35.4864 41.1929 35.8623 40.1308 36.2687C39.1874 29.6938 38.2526 24.1758 37.3334 17.1398C36.9878 17.176 36.0928 17.2434 36.0928 17.2434V12C37.8299 12.0864 39.567 12.1681 41.3041 12.2452V16.8047C41.3041 16.8047 40.6958 16.8358 40.4401 16.8565C40.7857 19.5611 41.3507 24.1102 41.6946 26.7526C42.1542 22.4349 42.8505 12.3091 42.8505 12.3109C43.7191 12.3466 44.5882 12.3817 45.4579 12.4162C46.0765 16.6763 46.6945 20.9266 47.3119 25.1672C47.5907 22.2542 47.8689 19.3446 48.1465 16.4386L47.2583 16.4679V12.4957C48.9747 12.5544 50.6905 12.612 52.4057 12.6684V12.6684ZM57.8261 30.7939V28.5108C57.8261 28.5108 58.5984 28.3795 58.7107 28.3381C58.6157 27.8666 58.2408 26.2051 58.2408 26.2051L55.7595 26.3778L55.5314 28.7957L56.423 28.6662V31.0496L52.0636 31.8785V29.148L52.7789 29.0254C53.4113 24.1977 54.0449 19.3815 54.6796 14.5768C55.9582 14.6102 57.2374 14.6407 58.5172 14.6683C59.4768 19.1668 60.4352 23.6531 61.3924 28.1274L62.2391 28.06V30.2154L57.8261 30.7939ZM56.1535 24.1482C56.6563 24.105 57.1574 24.0653 57.6619 24.0256C57.3578 22.5391 57.0549 21.0423 56.753 19.5352C56.5526 21.0596 56.3528 22.5973 56.1535 24.1482ZM63.1808 30.0668V27.965L63.7786 27.8994V17.537H62.8888V14.7391C64.3759 14.7645 65.8636 14.7858 67.3519 14.803V17.5335L66.557 17.5542V27.7094L68.8344 27.5367V26.4469L71.6975 26.345V29.4537C68.8569 29.6621 66.0179 29.8665 63.1808 30.0668V30.0668ZM82.1512 17.4489H81.384C80.489 18.8006 79.5939 20.1512 78.6989 21.5006L81.7486 27.5453L82.3343 27.5643V29.3812C81.0511 29.3536 79.7667 29.3242 78.4812 29.2931V27.5212H79.1481L77.225 23.7216C76.7792 24.4262 76.3328 25.1315 75.8859 25.8373V27.5212H76.9382V29.3087L72.5822 29.3985V27.5971L73.3804 27.5781V17.5042H72.5822V14.86C73.923 14.8681 75.2627 14.8733 76.6012 14.8756V17.4955H75.8841V21.5576L78.5416 17.4886H77.9386V14.8773C79.3439 14.8773 80.7487 14.8738 82.1529 14.8669C82.1518 15.7247 82.1512 16.5854 82.1512 17.4489V17.4489ZM94.2066 14.5198C92.5858 14.5497 90.9645 14.5751 89.3426 14.5958L87.6579 16.0914L87.6026 28.0721L89.2597 29.9252L94.0977 30.4002C94.6576 29.8579 95.2168 29.315 95.7755 28.7715C95.8089 24.5114 95.8406 20.2514 95.8706 15.9913C95.3199 15.5031 94.7653 15.0126 94.2066 14.5198V14.5198ZM92.8485 27.7094L92.7811 27.7837L90.7664 27.5678L90.4208 27.1343C90.4346 23.9473 90.449 20.7603 90.464 17.5732L90.5832 17.4558L92.8295 17.4264L92.9332 17.5301C92.8997 20.9232 92.8715 24.3163 92.8485 27.7094ZM103.083 31.7145C102.187 28.7382 101.293 25.7716 100.401 22.8149L100.36 28.9149L101.09 29.0272L101.07 31.2862L97.0818 30.5953V28.5229L97.8369 28.6109L97.9146 17.3677H97.0835V14.4645C98.2723 14.4392 99.4611 14.4116 100.65 14.3816C100.65 14.3816 102.442 20.5853 103.338 23.9807C103.352 21.8477 103.378 17.5802 103.378 17.5802L102.647 17.5663V14.3298C103.96 14.2941 105.274 14.255 106.587 14.2124V17.6821L105.853 17.6544L105.764 32.3811C104.873 32.1566 103.979 31.9344 103.083 31.7145V31.7145ZM120.272 34.4208L118.233 36.343C116.371 35.7201 114.51 35.103 112.65 34.4916C111.959 33.4991 111.263 32.5101 110.561 31.5245V27.8424L113.827 28.5073V30.433L117.087 31.3121V27.0203L112.688 26.1775L110.559 23.4435V14.6925C111.288 13.9879 112.018 13.2803 112.747 12.5699C114.59 12.4939 116.428 12.4122 118.262 12.3247C118.262 12.3247 119.605 14.05 120.272 15.0155V19.2226L117.099 18.8565V16.841L113.879 16.6406C113.872 18.4713 113.865 20.3014 113.86 22.131L118.257 22.7527C118.931 23.721 119.606 24.6939 120.282 25.6715C120.275 28.5925 120.272 31.5089 120.272 34.4208Z" fill="#828282"/>
<path d="M107.466 16.7347V16.0439C107.619 16.0421 107.769 16.0036 107.905 15.9316C107.99 15.8848 108.056 15.8096 108.091 15.7192C108.126 15.5728 108.141 15.4223 108.135 15.2719L107.466 15.322V14.0612C108.065 14.0111 108.663 13.9576 109.263 13.9023V15.0059C109.271 15.279 109.256 15.5522 109.22 15.8228C109.179 15.9932 109.092 16.1487 108.967 16.2719C108.83 16.4233 108.654 16.5359 108.459 16.5983C108.134 16.6814 107.801 16.7271 107.466 16.7347V16.7347Z" fill="#828282"/>
<path fill-rule="evenodd" clip-rule="evenodd" d="M120.58 36.2018L124.592 37.2968L121.822 40.7302L123.998 46.749L113.703 43.2638V36.5749L117.661 37.9185C117.821 37.963 117.989 37.9715 118.153 37.9435C118.317 37.9154 118.472 37.8514 118.608 37.7562L120.58 36.2018ZM39.4454 37.8026C39.5137 37.8124 39.5833 37.8072 39.6493 37.7873L42.9288 36.8771V43.2673L32.9071 46.7525L35.0756 40.7337L32 37.2968L38.7612 35.4592L39.0428 37.3918C39.0512 37.4602 39.0745 37.526 39.111 37.5845C39.1475 37.643 39.1963 37.6928 39.2541 37.7305C39.3118 37.7682 39.3771 37.7928 39.4454 37.8026ZM43.9639 45.0012C66.174 38.0429 90.4732 38.0429 112.682 45.0012V36.1362C90.4732 29.1796 66.174 29.1796 43.9639 36.1362V45.0012ZM84.417 21.4268L83.598 19.7947L82.7807 21.4268L80.9526 21.6876L82.2744 22.957L81.9651 24.7514L83.598 23.9034L85.2326 24.7514L84.9198 22.957L86.2451 21.6876L84.417 21.4268ZM61.8163 28.0863L62.2293 28.0535L62.6405 28.3333V30.4818L58.2396 31.0621L57.8249 30.7788V28.4957C57.8249 28.4957 58.5973 28.3696 58.7096 28.3229C58.6455 28.009 58.4491 27.1439 58.33 26.6191L58.3035 26.5026L56.1661 26.6477C56.1005 27.3385 56.036 28.0293 55.9726 28.7202L56.4167 28.6563L56.8297 28.9395V31.3229L52.4668 32.157L52.0521 31.8721V29.1416L52.7674 29.019C53.4021 24.1924 54.0357 19.3762 54.6681 14.5703C55.9479 14.6037 57.2271 14.6342 58.5057 14.6618L58.974 14.9503C59.4913 17.3787 60.0209 19.8114 60.5497 22.2407C60.9746 24.1928 61.3991 26.1426 61.8163 28.0863ZM56.6085 24.1124L57.6625 24.0277C57.5305 23.383 57.3998 22.733 57.2688 22.0814C57.1889 21.6839 57.1089 21.2858 57.0284 20.8879C56.8995 21.8601 56.7735 22.8352 56.6465 23.8183L56.6085 24.1124ZM55.2374 38.2779C55.2945 38.1717 55.3247 38.0531 55.3255 37.9325C55.327 37.8496 55.3061 37.7679 55.265 37.6959C55.2287 37.6276 55.1727 37.5716 55.1043 37.5353C55.0253 37.4953 54.9388 37.4718 54.8504 37.4662C54.7377 37.4588 54.6247 37.4646 54.5134 37.4835L53.8689 37.5888L53.4456 37.6579C53.3787 37.6754 53.3085 37.6754 53.2417 37.6579C53.2193 37.649 53.2005 37.6331 53.188 37.6125C53.1755 37.5919 53.1701 37.5679 53.1726 37.5439C53.1743 37.5184 53.1811 37.4934 53.1927 37.4706C53.2043 37.4477 53.2203 37.4274 53.24 37.4109C53.2954 37.3593 53.3583 37.3162 53.4266 37.2831C53.5169 37.2387 53.6105 37.2012 53.7065 37.1709C53.8199 37.1341 53.9353 37.1036 54.0521 37.0793C54.2267 37.0445 54.4045 37.0283 54.5825 37.031C54.6213 37.0318 54.662 37.0352 54.7026 37.0387C54.7488 37.0426 54.795 37.0465 54.8383 37.0465C54.9121 37.0538 54.9854 37.066 55.0577 37.0828L55.2305 36.594C55.0981 36.5574 54.9617 36.5371 54.8244 36.5336H54.4478C54.3171 36.5421 54.1873 36.5594 54.059 36.5854C53.859 36.6231 53.6633 36.6809 53.475 36.7581C53.3171 36.825 53.168 36.9108 53.0309 37.0137C52.9195 37.0966 52.824 37.199 52.7493 37.316C52.6873 37.4106 52.6532 37.5207 52.6508 37.6337C52.6473 37.7253 52.6688 37.816 52.713 37.8963C52.7547 37.9647 52.8145 38.0202 52.8858 38.0569C52.9692 38.0961 53.0597 38.1178 53.1518 38.1208C53.2633 38.1274 53.3752 38.1216 53.4853 38.1035L53.8309 38.0465L54.1385 37.9964L54.3717 37.9584L54.5013 37.9394C54.5746 37.9221 54.6509 37.9221 54.7242 37.9394C54.748 37.9482 54.7681 37.9647 54.7813 37.9864C54.7944 38.008 54.7999 38.0335 54.7968 38.0586C54.7968 38.1553 54.7208 38.2486 54.567 38.3401C54.3473 38.4543 54.1112 38.5335 53.8672 38.575C53.7616 38.5944 53.6548 38.6065 53.5475 38.6113C53.4428 38.6179 53.3378 38.6179 53.2331 38.6113C53.1155 38.6012 52.9995 38.5774 52.8875 38.5404L52.6957 39.0413C52.8253 39.0845 52.9601 39.1107 53.0966 39.119C53.2226 39.1267 53.3489 39.1267 53.475 39.119C53.6068 39.1135 53.738 39.0974 53.8672 39.0707C54.089 39.0276 54.3057 38.961 54.5134 38.872C54.6768 38.8025 54.8297 38.7107 54.9678 38.5992C55.0787 38.5116 55.1704 38.4023 55.2374 38.2779ZM58.6776 36.917C58.7358 36.7953 58.7642 36.6615 58.7605 36.5267C58.7678 36.3995 58.7397 36.2728 58.6793 36.1605C58.6343 36.0789 58.568 36.0108 58.4875 35.9637C58.4146 35.9212 58.3332 35.8952 58.2491 35.8877C58.1786 35.8779 58.1071 35.8779 58.0366 35.8877L56.053 36.2331V38.5387L56.6076 38.4437V37.6562L58.0366 37.4109C58.2024 37.3773 58.356 37.2991 58.4806 37.1847C58.5616 37.1078 58.6283 37.0172 58.6776 36.917ZM58.1783 36.4939C58.1992 36.5331 58.2088 36.5773 58.2059 36.6217H58.2094C58.2084 36.6662 58.1972 36.71 58.1765 36.7495C58.1574 36.7846 58.1322 36.8162 58.1022 36.8427C58.0775 36.8653 58.0496 36.8839 58.0193 36.898C58.0003 36.9084 57.9799 36.9159 57.9588 36.9205L56.6128 37.1519V36.6338L57.9588 36.4023C57.9812 36.3995 58.0038 36.3995 58.0262 36.4023C58.0552 36.4047 58.0834 36.413 58.1091 36.4265C58.1381 36.4419 58.1621 36.4653 58.1783 36.4939ZM62.2733 36.9032C62.3403 36.7495 62.375 36.5838 62.3753 36.4162C62.3767 36.2578 62.3419 36.1013 62.2733 35.9585C62.205 35.8211 62.1042 35.7026 61.9796 35.6131C61.8389 35.5145 61.6796 35.4457 61.5113 35.411C61.3053 35.3695 61.0935 35.3649 60.8858 35.3972C60.6687 35.4245 60.4575 35.4869 60.2603 35.582C60.0866 35.6644 59.9282 35.776 59.7921 35.9118C59.668 36.0355 59.5683 36.1814 59.4984 36.3419C59.4314 36.4956 59.3967 36.6613 59.3964 36.8289C59.3947 36.9878 59.4296 37.145 59.4984 37.2883C59.5667 37.4257 59.6675 37.5442 59.7921 37.6337C59.9327 37.7323 60.0921 37.8011 60.2603 37.8358C60.4663 37.8781 60.6782 37.8828 60.8858 37.8496C61.103 37.8223 61.3142 37.7599 61.5113 37.6648C61.6848 37.5812 61.8431 37.4691 61.9796 37.3332C62.1037 37.2096 62.2034 37.0637 62.2733 36.9032ZM61.7325 36.2227C61.7695 36.3095 61.7883 36.403 61.7878 36.4973V36.5025C61.7877 36.5996 61.7689 36.6957 61.7325 36.7857C61.693 36.8829 61.6342 36.971 61.5597 37.0448C61.4787 37.1281 61.3833 37.1959 61.2781 37.2451C61.153 37.3037 61.0195 37.3422 60.8824 37.3591C60.7521 37.3819 60.6188 37.3819 60.4884 37.3591C60.3864 37.3403 60.2901 37.2984 60.2068 37.2365C60.1315 37.1821 60.0719 37.1088 60.034 37.0241C59.997 36.9373 59.9782 36.8438 59.9787 36.7495C59.979 36.6507 59.9978 36.5529 60.034 36.4611C60.0735 36.3639 60.1323 36.2758 60.2068 36.202C60.2874 36.1184 60.3829 36.0504 60.4884 36.0017C60.6128 35.9428 60.7458 35.9044 60.8824 35.8877C61.0133 35.8649 61.1472 35.8649 61.2781 35.8877C61.3799 35.9072 61.476 35.9491 61.5597 36.0103C61.635 36.0647 61.6946 36.138 61.7325 36.2227ZM65.8259 35.9101C65.8529 35.8223 65.8657 35.7308 65.8639 35.639C65.8682 35.5133 65.8409 35.3886 65.7844 35.2763C65.7387 35.1908 65.6721 35.1184 65.5909 35.0656C65.518 35.0189 65.4362 34.9877 65.3507 34.9741C65.2801 34.9608 65.208 34.9573 65.1364 34.9637L63.1355 35.1744V37.4714L63.6954 37.4127V36.6251L64.8634 36.5025L65.2194 37.2555L65.8172 37.1916L65.4284 36.3799C65.4843 36.3502 65.537 36.3149 65.5857 36.2745C65.6393 36.2294 65.6864 36.1771 65.7256 36.1191C65.7692 36.0548 65.803 35.9844 65.8259 35.9101ZM65.2747 35.5682C65.296 35.6079 65.3062 35.6527 65.304 35.6977V35.7029C65.3049 35.7479 65.2929 35.7922 65.2695 35.8307C65.2509 35.8647 65.2256 35.8947 65.1952 35.9188C65.1695 35.9394 65.141 35.9563 65.1105 35.9688C65.091 35.9766 65.0707 35.9824 65.05 35.9861L63.6919 36.1295V35.6113L65.05 35.468C65.073 35.4657 65.0962 35.4657 65.1192 35.468C65.1491 35.472 65.1779 35.482 65.2038 35.4974C65.2335 35.514 65.258 35.5385 65.2747 35.5682ZM68.1412 37.0068V35.1986L69.1468 35.1209V34.6217L66.5775 34.8221V35.3195L67.5831 35.2417V37.05L68.1412 37.0068ZM72.4333 36.3246C72.4919 36.2252 72.523 36.1119 72.5231 35.9965C72.5251 35.9033 72.505 35.8109 72.4644 35.7271C72.4238 35.6515 72.3643 35.5878 72.2916 35.5423C72.213 35.4896 72.125 35.4527 72.0324 35.4335C71.9188 35.4094 71.8029 35.3978 71.6868 35.3989H70.5965C70.5253 35.4042 70.4539 35.3911 70.3892 35.3609C70.3667 35.3491 70.3482 35.3311 70.3356 35.3091C70.3231 35.287 70.3171 35.2619 70.3183 35.2366C70.3195 35.2122 70.3264 35.1884 70.3384 35.1671C70.3504 35.1458 70.3672 35.1276 70.3875 35.1139C70.4451 35.0711 70.5093 35.0379 70.5775 35.0155C70.671 34.9842 70.7669 34.9611 70.8644 34.9464C70.9823 34.9282 71.1011 34.9161 71.2203 34.9102C71.3089 34.9041 71.3978 34.9041 71.4864 34.9102C71.5785 34.9152 71.6702 34.9256 71.7611 34.9412C71.8492 34.9568 71.9391 34.9741 72.022 34.9965C72.105 35.019 72.1793 35.0431 72.2449 35.0673L72.4177 34.6045C72.2848 34.549 72.1464 34.5079 72.0048 34.4818C71.8631 34.4559 71.7352 34.4387 71.6194 34.4266C71.4877 34.4171 71.3555 34.4171 71.2238 34.4266C71.0224 34.4361 70.8226 34.4668 70.6276 34.5181C70.4682 34.5587 70.3152 34.6215 70.1732 34.7046C70.0606 34.7701 69.9629 34.8583 69.8864 34.9637C69.8217 35.0519 69.7866 35.1583 69.7862 35.2677C69.7833 35.3621 69.8054 35.4556 69.8501 35.5388C69.8919 35.6144 69.9511 35.6789 70.0229 35.7271C70.1048 35.7793 70.1956 35.8161 70.2907 35.8359C70.4043 35.8599 70.5202 35.8715 70.6363 35.8704H71.6782C71.7556 35.8655 71.833 35.8785 71.9045 35.9084C71.9286 35.9204 71.9485 35.9393 71.9618 35.9627C71.975 35.986 71.981 36.0129 71.9788 36.0397C71.9788 36.1364 71.9011 36.2193 71.7438 36.2866C71.5146 36.3677 71.2734 36.4103 71.0302 36.4127C70.9212 36.4163 70.8121 36.4123 70.7037 36.4006C70.5955 36.3882 70.4881 36.3692 70.3823 36.3436C70.2631 36.3141 70.1473 36.2725 70.0367 36.2193L69.8414 36.6908C69.9718 36.7537 70.1093 36.8007 70.251 36.8306C70.3788 36.8579 70.508 36.8787 70.638 36.8928C70.7705 36.908 70.904 36.912 71.0371 36.9049C71.2596 36.8968 71.4804 36.8638 71.6955 36.8065C71.8595 36.7638 72.0157 36.6956 72.1585 36.6044C72.27 36.533 72.3639 36.4374 72.4333 36.3246ZM78.5154 36.2676C78.5554 36.1756 78.5749 36.076 78.5724 35.9758C78.5682 35.912 78.5548 35.8492 78.5327 35.7892C78.511 35.727 78.4795 35.6687 78.4394 35.6165C78.3915 35.5529 78.3278 35.5028 78.2545 35.4714C78.3265 35.442 78.39 35.3951 78.4394 35.335C78.4802 35.2832 78.5117 35.2248 78.5327 35.1623C78.5561 35.098 78.5689 35.0304 78.5707 34.962C78.5737 34.8603 78.5555 34.7591 78.5171 34.6649C78.4836 34.5872 78.4321 34.5185 78.3668 34.4646C78.2991 34.4108 78.2208 34.3719 78.137 34.3506C78.0412 34.3252 77.9423 34.3136 77.8433 34.316L75.7439 34.3368V36.6424L77.8433 36.6217C77.9402 36.6204 78.0365 36.6071 78.1301 36.582C78.2137 36.5593 78.2919 36.5199 78.3599 36.4662C78.4267 36.4133 78.48 36.3452 78.5154 36.2676ZM78.0022 34.8981C78.0235 34.9359 78.0337 34.979 78.0316 35.0224C78.0355 35.0697 78.024 35.1169 77.9988 35.1571C77.9789 35.1854 77.9537 35.2095 77.9245 35.2279C77.8996 35.2437 77.8721 35.2548 77.8433 35.2607C77.8237 35.2625 77.8041 35.2625 77.7845 35.2607L76.3055 35.2746V34.8169L77.7845 34.8031C77.8069 34.8 77.8295 34.8 77.8519 34.8031C77.8802 34.8081 77.9076 34.8174 77.9331 34.8307C77.9621 34.8461 77.9861 34.8695 78.0022 34.8981ZM78.0022 35.7875C78.0237 35.8253 78.0339 35.8685 78.0316 35.9118C78.0351 35.9575 78.0236 36.003 77.9988 36.0414C77.9795 36.0701 77.9541 36.0943 77.9245 36.1122C77.8992 36.1267 77.8718 36.1372 77.8433 36.1433C77.8237 36.1451 77.8041 36.1451 77.7845 36.1433L76.3055 36.1571V35.7029L77.7845 35.6891C77.8069 35.686 77.8295 35.686 77.8519 35.6891C77.8805 35.6939 77.908 35.7038 77.9331 35.7184C77.9618 35.735 77.9857 35.7588 78.0022 35.7875ZM79.3603 34.3195V36.6251H79.9236V34.3195H79.3603ZM83.312 36.278C83.3713 36.1813 83.4024 36.0701 83.4019 35.9568C83.4038 35.8654 83.3824 35.775 83.3397 35.6942C83.2985 35.6154 83.2393 35.5474 83.1669 35.4956C83.0887 35.4381 83.0009 35.3949 82.9077 35.3678C82.7951 35.3347 82.6792 35.3139 82.5621 35.3057L81.9038 35.259L81.4718 35.2279C81.3993 35.2261 81.3283 35.2072 81.2645 35.1727C81.243 35.16 81.2252 35.1419 81.2128 35.1203C81.2004 35.0986 81.1939 35.0741 81.1939 35.0492C81.1939 35.0242 81.2004 34.9997 81.2128 34.9781C81.2252 34.9564 81.243 34.9384 81.2645 34.9257C81.322 34.8858 81.3864 34.8571 81.4545 34.8411C81.5485 34.8165 81.6445 34.8008 81.7414 34.7944C81.8605 34.7882 81.9799 34.7882 82.099 34.7944C82.1887 34.7962 82.2782 34.8037 82.3669 34.8169C82.4584 34.8307 82.5535 34.848 82.6416 34.8704C82.7297 34.8929 82.8196 34.9188 82.9025 34.9464C82.9791 34.9713 83.0541 35.0007 83.1271 35.0345L83.2999 34.5837C83.1676 34.5173 83.0286 34.4652 82.8852 34.4283C82.7435 34.3903 82.6157 34.3627 82.4999 34.3419C82.3685 34.3196 82.2357 34.3063 82.1025 34.3022C81.9028 34.2958 81.7029 34.3109 81.5064 34.3471C81.3485 34.3762 81.1955 34.4273 81.0519 34.4991C80.9388 34.5547 80.8401 34.6357 80.7634 34.7357C80.6985 34.8205 80.6633 34.9243 80.6632 35.031C80.6608 35.1271 80.6828 35.2221 80.7271 35.3074C80.7689 35.3867 80.828 35.4558 80.8999 35.5094C80.9818 35.5675 81.0729 35.6113 81.1694 35.639C81.2822 35.6713 81.398 35.6915 81.515 35.6994L81.8727 35.7253L82.1854 35.7461L82.4239 35.7633L82.5569 35.7754C82.6356 35.7764 82.713 35.7953 82.7833 35.8307C82.8073 35.844 82.8271 35.864 82.8402 35.8881C82.8534 35.9123 82.8594 35.9397 82.8576 35.9671C82.8576 36.0638 82.7798 36.1398 82.6226 36.1951C82.3899 36.2592 82.148 36.2831 81.9072 36.2659C81.7977 36.2605 81.6886 36.2478 81.5807 36.2279C81.4816 36.2083 81.3745 36.1807 81.2593 36.145C81.1393 36.1059 81.0236 36.055 80.9137 35.993L80.7185 36.449C80.8481 36.5216 80.9855 36.5795 81.128 36.6217C81.2554 36.6587 81.3845 36.6892 81.515 36.7132C81.6467 36.7383 81.7802 36.7527 81.9142 36.7564C82.1347 36.7644 82.3555 36.7482 82.5725 36.708C82.7358 36.6763 82.8928 36.6179 83.0373 36.5353C83.1489 36.4738 83.2434 36.3853 83.312 36.278ZM85.6187 36.8047V34.9965L86.6244 35.0466V34.5492L84.0515 34.4214V34.9188L85.0589 34.9689V36.7771L85.6187 36.8047ZM90.1009 35.8238C90.128 35.7384 90.1409 35.6491 90.1389 35.5595C90.1427 35.4295 90.1155 35.3004 90.0594 35.183C90.0116 35.0889 89.9451 35.0055 89.8641 34.9378C89.7932 34.8783 89.7117 34.8326 89.624 34.8031C89.554 34.7788 89.4816 34.7626 89.408 34.7547L87.4002 34.6027V36.9032L87.9617 36.9446V36.1571L89.135 36.2469L89.4926 37.0603L90.0922 37.1053L89.7034 36.2227C89.7585 36.2024 89.8112 36.1764 89.8607 36.145C89.9145 36.1103 89.9619 36.0665 90.0006 36.0155C90.0442 35.9574 90.0781 35.8927 90.1009 35.8238ZM89.5479 35.3816C89.5689 35.4234 89.579 35.4697 89.5773 35.5164C89.5807 35.5622 89.5686 35.6078 89.5428 35.6459C89.5239 35.6759 89.4985 35.7013 89.4685 35.7201C89.4424 35.7365 89.4138 35.7481 89.3838 35.7547C89.3637 35.7573 89.3434 35.7573 89.3233 35.7547L87.96 35.6528V35.1347L89.3233 35.2366C89.3468 35.2397 89.3699 35.2449 89.3924 35.2521C89.4231 35.2619 89.4518 35.2771 89.4771 35.297C89.5068 35.3195 89.531 35.3485 89.5479 35.3816ZM90.9475 34.8739V37.1795L93.7139 37.4628V36.9654L91.5074 36.7357V36.2884L93.3752 36.4835V36.0362L91.5074 35.8428V35.4283L93.6309 35.6493V35.1519L90.9475 34.8739ZM96.71 37.4006L96.9675 37.8963L97.5532 37.9757L96.278 35.4974L95.5644 35.4006L94.3048 37.5336L94.8975 37.6147L95.1549 37.1882L96.71 37.4006ZM95.4227 36.727L95.9307 35.8808L96.437 36.8652L95.4227 36.727ZM100.705 37.8237C100.767 37.6792 100.798 37.5233 100.796 37.366H100.809V36.2175L100.254 36.1226V37.2814C100.255 37.375 100.239 37.468 100.207 37.556C100.179 37.6372 100.132 37.7102 100.069 37.7684C100.002 37.8278 99.9212 37.8694 99.834 37.8893C99.7201 37.9132 99.6024 37.9132 99.4884 37.8893C99.3671 37.8713 99.25 37.8315 99.1429 37.7719C99.0525 37.7192 98.9724 37.6507 98.9061 37.5698C98.8448 37.4926 98.7979 37.4048 98.7679 37.3108C98.7384 37.2169 98.7233 37.1191 98.723 37.0206V35.8479L98.1683 35.753V36.9049C98.1686 37.0721 98.1997 37.2377 98.2599 37.3937C98.321 37.5531 98.4099 37.7005 98.5225 37.8289C98.6402 37.9667 98.7804 38.0835 98.9372 38.1743C99.1064 38.2701 99.2913 38.335 99.4833 38.366C99.6634 38.4026 99.8491 38.4026 100.029 38.366C100.18 38.3332 100.322 38.2658 100.442 38.1691C100.556 38.0768 100.646 37.9583 100.705 37.8237ZM102.892 38.1674L103.641 39.0931L104.38 39.2468L103.262 37.8652L104.38 36.9446L103.641 36.7909L102.892 37.4058L102.144 36.4801L101.405 36.3263L102.523 37.708L101.405 38.6285L102.144 38.7822L102.892 38.1674Z" fill="#828282"/>
</svg>
