<svg width="160" height="60" viewBox="0 0 160 60" fill="none" xmlns="http://www.w3.org/2000/svg">
<g clip-path="url(#clip0_992_12972)">
<path d="M42.6916 42.0009C42.5867 41.9724 42.4819 41.9439 42.3775 41.9154C42.0064 41.815 41.6992 41.6027 41.6158 41.2287C41.4808 40.6242 41.0354 40.4141 40.5244 40.291C40.1361 40.1975 39.7703 40.1202 39.425 39.8703C39.1931 39.7026 38.8188 39.7306 38.5079 39.672C37.098 39.406 35.8049 38.8574 34.6237 38.0498C34.4387 37.923 34.3074 37.9085 34.1073 38.0261C33.2607 38.5248 32.4156 39.0406 31.4393 39.2481C31.0999 39.3201 30.6976 39.463 30.4539 39.0229C30.4431 39.003 30.4028 38.9977 30.3748 38.9896C29.9741 38.8676 29.831 38.5699 30.0064 38.1846C30.1656 37.8348 30.4404 37.5984 30.7922 37.4431C31.463 37.1476 32.1311 36.8461 32.7523 36.5688C32.2516 35.8187 31.7137 35.1073 31.278 34.3383C30.5201 33.0019 30.1349 31.5463 30.0854 30.0068C29.9762 26.6215 31.2516 23.8558 33.8228 21.6634C33.9099 21.5887 33.9691 21.4732 34.0202 21.3668C34.117 21.1648 34.1794 20.9445 34.2907 20.7515C34.5699 20.2679 34.8383 20.2599 35.1299 20.6812C35.8329 20.3845 36.5171 20.0557 37.2287 19.8047C38.5321 19.3453 39.8881 19.2217 41.2641 19.2884C41.4147 19.2959 41.5357 19.3007 41.6481 19.1357C41.7955 18.9192 42.0365 18.9907 42.1806 19.1486C42.4205 19.4119 42.7271 19.4684 43.0467 19.5527C46.8437 20.5533 49.4191 22.8767 50.6918 26.6011C50.7209 26.686 50.7515 26.7698 50.765 26.8069C51.2464 26.5576 51.7219 26.3249 52.1807 26.0621C52.2711 26.0105 52.341 25.8434 52.3421 25.729C52.3523 24.0675 52.3491 22.406 52.3491 20.7446C52.3491 20.6231 52.3491 20.5017 52.3491 20.3512C52.4814 20.3453 52.5895 20.3362 52.6982 20.3362C55.6717 20.3356 58.6457 20.3125 61.6192 20.3442C63.3647 20.363 65.0838 20.5952 66.6314 21.4925C68.3521 22.4904 69.3365 23.9794 69.5608 25.96C69.6926 27.1245 69.6355 28.2712 69.2203 29.377C68.6813 30.8133 67.6765 31.8445 66.349 32.5839C66.2435 32.6425 66.1387 32.701 66.0085 32.7736C67.4302 34.8999 68.8394 37.0089 70.2724 39.1529C70.1363 39.1594 70.0486 39.1669 69.9604 39.1675C67.8201 39.168 65.6798 39.1648 63.5395 39.1734C63.3389 39.1739 63.2286 39.1121 63.1227 38.9455C62.0759 37.3039 61.0184 35.6693 59.9711 34.0283C59.8598 33.8536 59.7398 33.7725 59.5268 33.7843C59.1992 33.8026 58.8695 33.7892 58.5139 33.7892V39.1433H52.3545V31.8902C51.8623 31.815 51.4104 31.7462 50.936 31.6736C50.5493 33.4522 49.7564 35.0337 48.5316 36.3937C47.3073 37.7532 45.8201 38.7215 44.081 39.3276C44.4904 39.6215 44.5372 40.0068 44.1682 40.4243C43.9654 40.6538 43.6771 40.8074 43.4221 40.9993C43.4705 41.0906 43.5765 41.2185 43.6077 41.3625C43.676 41.6774 43.5447 41.815 43.0617 42.0014H42.6911L42.6916 42.0009ZM43.931 29.7387C44.436 29.6366 44.9089 29.5071 45.3903 29.4528C46.0756 29.3754 46.7393 29.2507 47.3644 28.9471C47.5607 28.8515 47.6769 28.7494 47.6376 28.5135C47.508 27.7317 47.466 26.9256 47.246 26.1701C46.8125 24.6817 45.9852 23.4243 44.6786 22.5377C44.2655 22.2572 43.7965 22.0594 43.407 21.8526C43.1279 22.3088 42.9143 22.7123 42.6486 23.0783C42.2925 23.5683 41.5954 23.6435 41.0844 23.2862C40.6309 22.9686 40.5497 22.4066 40.8762 21.8746C40.9919 21.6865 41.0995 21.4936 41.2323 21.2663C40.7907 21.2411 40.4029 21.1889 40.0172 21.2029C38.7612 21.2481 37.6133 21.6554 36.5558 22.3158C35.2568 23.1266 34.2628 24.1965 33.8179 25.6924C33.4737 26.8493 33.5597 28.0175 33.8292 29.1744C33.9427 29.6618 34.1148 30.1357 34.2606 30.6161C34.2972 30.6134 34.3338 30.6108 34.3698 30.6081C34.3865 30.5479 34.4343 30.4748 34.415 30.4297C34.1826 29.8746 34.2009 29.2953 34.2391 28.7155C34.2751 28.1701 34.4247 27.6683 34.8749 27.3077C35.0088 27.2008 35.1562 27.1105 35.2939 27.0154C35.1342 26.5393 34.8399 26.3647 34.0691 26.2765C34.1735 25.9891 34.2886 25.9278 34.5559 25.988C35.0583 26.1008 35.4149 26.3781 35.6441 26.845C35.9507 27.47 36.4837 27.5452 36.9754 27.0498C37.0873 26.9369 37.1857 26.8101 37.2997 26.679C37.4541 27.0713 37.4127 27.1605 36.9065 27.5726C37.2944 28.0487 37.6085 28.5517 37.5714 29.204C37.5525 29.5285 37.5606 29.8553 37.5692 30.1809C37.5714 30.2631 37.5983 30.3738 37.6553 30.4205C37.8263 30.5603 38.0184 30.6747 38.1986 30.7967C37.7473 29.7322 37.3912 28.6699 38.0216 27.5388C37.8473 27.4345 37.608 27.3399 37.7516 27.0116C37.9818 27.1169 38.1943 27.2115 38.404 27.3115C38.758 27.4796 39.1119 27.5226 39.447 27.2824C39.7526 27.0637 40.0393 26.8193 40.3432 26.5979C40.5809 26.4243 40.8154 26.2346 41.0801 26.1132C41.5104 25.916 41.9106 26.125 41.9703 26.5366C41.3388 26.2824 40.9687 26.3668 40.2689 27.1943C40.6987 27.4942 41.0505 27.8719 41.1468 28.3964C41.2377 28.8923 41.2581 29.4007 41.3087 29.8945C41.6304 30.1148 41.9854 30.3582 42.3485 30.607C42.7035 29.9756 43.2086 29.5119 44.0057 29.3797C43.9767 29.5194 43.9546 29.6247 43.931 29.7403V29.7387ZM43.3699 38.3061C43.3699 38.2083 43.3801 38.1546 43.3683 38.1067C43.2769 37.737 43.2161 37.3899 43.534 37.067C43.6459 36.9531 43.6814 36.7274 43.6835 36.5522C43.6884 36.1975 43.6529 35.8418 43.6222 35.4877C43.5738 34.9289 43.3559 34.4673 42.8353 34.19C42.7056 34.1212 42.5781 34.0476 42.4501 33.9762C42.811 33.8789 43.1532 33.8493 43.4953 33.8176C44.1413 33.7575 44.7986 33.6769 45.3021 33.2378C46.1186 32.5253 46.9405 31.8074 47.6726 31.0122C48.3154 30.3131 48.665 29.4265 48.8689 28.4469C48.0588 29.0643 47.217 29.5157 46.2617 29.7161C45.8034 29.8123 45.3247 29.8166 44.8701 29.9235C44.3511 30.0455 43.8481 30.2357 43.3221 30.4012C43.3538 30.2744 43.385 30.1476 43.4167 30.0202C43.3914 30.0036 43.3656 29.9869 43.3403 29.9708C43.1359 30.2196 42.9063 30.4522 42.7341 30.7215C42.5631 30.9891 42.4501 31.2932 42.2909 31.6247C42.0402 30.5307 41.278 30.1685 40.2948 30.1169C39.1948 30.0594 38.7171 30.859 38.1996 31.686C38.1459 31.161 37.7962 30.9369 37.4272 30.7301C37.1195 30.557 36.9705 30.5871 36.8129 30.9009C36.7064 31.1126 36.6413 31.3453 36.5913 31.4791C36.402 31.3249 36.2083 31.1196 35.9738 30.9848C35.331 30.6156 34.72 30.7553 34.1342 31.1519C33.3048 31.7139 33.2994 32.4001 33.9217 33.111C34.3241 33.5705 34.8916 33.6484 35.4564 33.6924C36.0663 33.7403 36.6822 33.7306 37.2546 34.003C37.5031 34.1212 37.7661 34.2083 38.0173 34.3201C38.3669 34.4759 38.7117 34.6414 39.0624 34.8047C38.9489 35.06 38.8457 35.2701 38.7644 35.4882C38.7327 35.5726 38.7182 35.6908 38.7526 35.7682C39.1453 36.6398 39.6111 37.4668 40.3512 38.0987C40.5535 38.2717 40.7993 38.3937 41.0241 38.5388C41.1274 38.1766 41.213 37.8773 41.3039 37.5581C40.7116 36.9337 40.3356 36.1922 40.4163 35.2857C40.4626 34.7628 40.5524 34.4232 41.1355 34.3195C41.1048 34.384 41.0822 34.434 41.0586 34.4823C40.6379 35.3346 40.7692 36.341 41.3926 37.0492C41.4953 37.1658 41.5712 37.2561 41.7713 37.1637C41.8939 37.1067 42.0881 37.2056 42.2506 37.2341C41.5244 37.7295 41.2366 38.6747 41.6341 39.283C42.3006 39.1126 42.5771 38.2792 43.371 38.3056L43.3699 38.3061ZM58.5145 25.6043V29.3125C59.3697 29.3125 60.2094 29.3233 61.0485 29.3072C61.3842 29.3007 61.7247 29.2636 62.0522 29.1922C63.0355 28.9783 63.5164 28.3324 63.5008 27.2894C63.4884 26.4807 62.9129 25.8515 61.9915 25.6983C61.5601 25.6269 61.1158 25.6167 60.6768 25.6081C59.9609 25.5941 59.2449 25.6043 58.5145 25.6043V25.6043ZM54.0392 25.9901C54.0359 25.9719 54.0327 25.9536 54.0289 25.9353C53.4109 26.1035 52.7659 26.2088 52.1802 26.4533C50.9037 26.9864 50.0157 27.8708 49.8887 29.3356C49.8672 29.5817 49.914 29.9042 49.7774 30.0514C49.6101 30.2319 49.2906 30.2996 49.0238 30.355C48.4934 30.4657 48.2573 30.859 47.9749 31.3502C48.4665 31.1583 48.8872 31.0073 49.2965 30.8316C49.7903 30.6199 50.2636 30.5312 50.8032 30.7322C51.2173 30.8864 51.6778 30.9477 52.1232 30.9821C53.4711 31.0863 54.725 30.7483 55.8841 30.0707C56.3376 29.8058 56.7631 29.4931 57.2015 29.2024C57.1853 29.1782 57.1697 29.1535 57.1536 29.1293C56.7975 29.3029 56.4463 29.4866 56.0842 29.6478C55.513 29.9025 54.9342 30.14 54.2887 30.1159C53.9692 30.104 53.6997 29.9896 53.5755 29.6779C53.4523 29.3679 53.5588 29.0981 53.7923 28.8751C53.9327 28.7408 54.08 28.614 54.1882 28.5162C53.8122 28.5162 53.4233 28.5328 53.037 28.5119C52.6325 28.4899 52.1947 28.4388 52.0457 27.9891C51.901 27.5522 52.2012 27.2384 52.518 27.0046C53.008 26.6435 53.5303 26.326 54.0392 25.9901V25.9901ZM44.8535 37.6758C44.9368 36.7145 44.8518 35.8241 43.9778 35.1626C43.9912 35.3238 44.0057 35.4431 44.0095 35.5624C44.0235 36.0154 44.2026 36.4711 44.0009 36.9208C43.8207 37.3227 43.6437 37.7043 43.7061 38.1841C43.7524 38.5393 43.8314 38.6855 44.1649 38.5511C47.0949 37.3711 49.0722 35.3034 50.0227 32.2851C50.1093 32.01 50.1609 31.7247 50.2298 31.4415C49.8258 31.4861 49.6816 31.6983 49.5757 32.0465C49.3879 32.6597 49.1077 33.2438 48.8662 33.8402C48.8038 33.9944 48.7172 34.0697 48.5225 34.0659C48.2008 34.06 48.126 34.219 48.275 34.4925C48.3089 34.5549 48.3573 34.6586 48.331 34.6973C48.1648 34.9428 47.9797 35.1755 47.7742 35.4474C47.6936 35.2153 47.6435 35.0498 47.579 34.8896C47.4015 34.4506 47.09 34.1551 46.614 34.0761C46.089 33.9891 45.5931 34.1202 45.1213 34.3416C45.0514 34.3743 45.0218 34.492 44.9734 34.5699C45.0783 34.6263 45.1805 34.6881 45.2897 34.736C45.3182 34.7483 45.3655 34.7118 45.4059 34.7032C45.6813 34.643 45.9938 34.7752 46.1525 35.0224C46.3058 35.2626 46.3106 35.5081 46.1444 35.7419C45.9691 35.988 45.7259 36.1003 45.4231 36.0363C45.294 36.0089 45.1719 35.9498 45.0896 35.9203C45.1396 36.355 45.1918 36.7897 45.2397 37.2244C45.2676 37.4786 45.1584 37.6323 44.854 37.6742L44.8535 37.6758ZM33.9814 36.0009C33.918 35.9289 33.8722 35.8735 33.8228 35.8219C30.5034 32.3593 30.4238 27.0788 33.656 23.5457C33.9083 23.2695 33.933 23.0304 33.8163 22.6973C33.7281 22.7714 33.6533 22.8241 33.5898 22.888C30.0134 26.4796 29.8627 32.1137 33.2413 35.9117C33.4443 36.1399 33.691 36.1698 33.9814 36.0014V36.0009ZM49.8043 28.1411C49.9839 27.7913 50.2152 27.5635 50.084 27.1331C49.1416 24.0396 47.1713 21.8977 44.1779 20.6817C43.8245 20.5382 43.4533 20.4388 43.0198 20.2959C43.1736 20.5882 43.1413 20.8515 43.4743 20.9552C45.5925 21.6172 47.2493 22.9004 48.4697 24.7429C49.1453 25.7628 49.5746 26.8848 49.8048 28.1411H49.8043ZM42.3043 40.8536L42.342 40.78C42.697 40.7102 43.059 40.6629 43.4054 40.5635C43.7594 40.4614 44.0945 40.1298 44.0154 39.6709C43.7701 39.8026 43.5356 39.9101 43.321 40.0487C43.0171 40.2454 42.725 40.2674 42.4039 40.0535C42.4533 40.0154 42.4942 39.9874 42.5313 39.9552C42.8143 39.7043 43.1128 39.4684 43.3699 39.1938C43.4689 39.0879 43.4721 38.8934 43.5189 38.7392C43.3667 38.7478 43.1935 38.7145 43.0666 38.7757C42.889 38.8606 42.7384 39.0089 42.5878 39.1427C41.8724 39.7752 41.4566 39.8816 40.7267 39.4501C40.5433 39.3416 40.3399 39.2663 40.1554 39.1594C39.9634 39.0482 39.7821 39.1014 39.7117 39.2647C39.6633 39.377 39.7267 39.571 39.8004 39.6914C39.8531 39.7779 40.0011 39.8203 40.1151 39.852C40.369 39.9235 40.6358 39.9557 40.8838 40.0417C41.3394 40.1997 41.767 40.4243 41.8789 40.9455C42.0155 41.5817 42.6147 41.6618 43.0467 41.6242C43.1214 41.6177 43.1876 41.513 43.2575 41.4533C43.1935 41.3888 43.1397 41.3061 43.0639 41.2626C42.8154 41.1191 42.5588 40.9891 42.3054 40.8542L42.3043 40.8536ZM41.9149 19.3888C41.9149 19.6688 41.9316 19.9015 41.9117 20.1314C41.8504 20.8493 41.5771 21.4909 41.1871 22.0922C40.9252 22.4958 41.0489 22.9004 41.4658 23.0815C41.7686 23.2131 42.0973 23.1309 42.3554 22.8574C43.2736 21.8859 43.0951 20.3152 41.9149 19.3894V19.3888ZM36.9646 28.255C36.7753 27.9445 36.637 27.657 36.2083 27.7231C36.0712 27.744 35.8673 27.6532 35.7683 27.5457C35.5101 27.2636 35.2896 27.3851 35.097 27.5812C34.9362 27.7451 34.7635 27.9407 34.7049 28.1524C34.543 28.7376 34.5027 29.3426 34.6361 29.9439C34.7571 30.492 34.7641 30.4904 35.3294 30.3501C35.1933 28.9493 35.6306 28.3765 36.9646 28.255V28.255ZM39.8063 38.1938C39.7542 38.1186 39.702 38.046 39.653 37.9724C39.3142 37.4635 38.9678 36.9595 38.6402 36.4431C38.4837 36.1965 38.2518 36.075 38.027 36.1169C37.9958 36.5044 38.0695 36.9208 37.9135 37.2185C37.6833 37.6586 37.2454 37.3845 36.8683 37.2728C37.5477 38.3862 38.7128 38.7472 39.8063 38.1938ZM34.9921 36.751C34.8523 36.6043 34.7517 36.535 34.7017 36.4399C34.5699 36.1895 34.4236 36.2018 34.1831 36.3147C33.3596 36.7 32.5189 37.0487 31.69 37.4227C31.3188 37.5903 30.9445 37.7612 30.6024 37.9788C30.4012 38.1067 30.2312 38.3174 30.3334 38.6881C31.8955 38.0385 33.4177 37.406 34.9921 36.751V36.751ZM35.5634 21.9332C36.4778 21.369 37.4208 20.9788 38.4272 20.7397C39.4416 20.499 40.4706 20.4512 41.5109 20.5307C41.5352 20.3571 41.554 20.2206 41.576 20.0621C39.3131 19.8649 37.2476 20.3313 35.3251 21.5114C35.4096 21.6613 35.4789 21.7838 35.5634 21.9332V21.9332ZM38.5003 30.5688C38.5767 30.4985 38.6176 30.4522 38.6671 30.4168C38.9269 30.2303 39.0129 30.0487 38.8962 29.6903C38.638 28.8972 39.049 27.6779 40.1952 27.6597C40.206 27.6597 40.2168 27.6339 40.227 27.6199C40.0038 27.4259 40.0027 27.4248 39.7671 27.5645C39.4476 27.7542 39.1055 27.8311 38.7343 27.7849C38.3174 27.7333 38.1281 27.8477 38.0743 28.2776C37.9764 29.0648 38.105 29.8214 38.4998 30.5688H38.5003ZM34.4311 23.6059C34.7931 23.2346 35.1616 22.8563 35.5247 22.4839C35.3854 22.2599 35.1847 21.996 35.0502 21.7026C34.9142 21.4071 34.8437 21.0815 34.7415 20.7601C34.1654 21.3303 34.0282 22.7043 34.4317 23.6059H34.4311ZM41.1452 38.8945C40.4335 38.6597 39.7536 38.6387 39.0511 38.7693C38.4993 38.8719 37.9726 38.7301 37.4918 38.4286C36.956 38.0928 36.3998 37.7881 35.8791 37.4313C35.5758 37.2233 35.3515 37.2545 35.1019 37.5092C35.1471 37.5468 35.1826 37.5823 35.224 37.6086C36.3799 38.3453 37.6311 38.8348 38.9871 39.06C39.212 39.0976 39.3895 39.0992 39.5648 38.916C39.759 38.7129 40.0048 38.6838 40.2689 38.8246C40.5465 38.9724 40.8353 39.0997 41.1452 39.2481V38.8945V38.8945ZM34.663 35.3964C34.6549 35.7897 34.9448 36.2636 35.2401 36.4119C35.4881 36.5361 35.728 36.3996 35.6419 36.1486C35.5134 35.7747 35.3143 35.4179 35.0976 35.0847C34.9873 34.9149 34.8071 34.974 34.7248 35.1701C34.6861 35.262 34.6716 35.3636 34.663 35.3964V35.3964ZM34.5747 37.3716L34.5376 37.3045L30.9133 38.9128L30.9509 38.996C32.315 38.8042 33.4059 38.0014 34.5747 37.3722V37.3716ZM50.5041 31.0718C51.5229 31.8703 54.6561 31.4759 55.7642 30.4313C54.9643 30.8687 54.1263 31.1895 53.2205 31.3249C52.2937 31.4635 51.4094 31.1755 50.5041 31.0718ZM36.4482 35.9004C36.5053 35.3985 36.2923 35.031 35.9921 34.7155C35.9265 34.6468 35.7016 34.6371 35.6258 34.6967C35.5559 34.7515 35.5392 34.9563 35.5838 35.0584C35.7081 35.3421 35.8765 35.607 36.0389 35.9004H36.4488H36.4482ZM37.6838 36.7274C37.6634 36.3571 37.524 36.0809 37.1873 35.9305C36.9383 35.8193 36.714 35.9364 36.778 36.1621C36.857 36.4415 37.0087 36.7102 37.1755 36.9509C37.233 37.0342 37.438 37.0611 37.5601 37.0369C37.6198 37.0251 37.6435 36.8359 37.6838 36.7274V36.7274ZM37.6644 35.5952C37.9544 35.3996 38.3669 35.3759 38.5778 35.0052C37.7247 34.5855 37.8715 34.6145 37.5047 34.8585C37.5536 35.0852 37.6031 35.312 37.6644 35.5946V35.5952ZM47.0755 32.211L47.1099 32.2937C48.1707 31.8639 49.2314 31.434 50.2921 31.0041C50.2744 30.9616 50.2566 30.9187 50.2389 30.8762C49.1523 31.2438 48.1266 31.758 47.0755 32.211ZM37.2691 35.5377C37.2459 35.1793 37.2147 34.8493 36.8802 34.6742C36.7871 34.6253 36.6419 34.6758 36.487 34.6822C36.5741 34.8827 36.6301 35.0025 36.6779 35.1255C36.7285 35.2561 36.771 35.3899 36.8119 35.5081C36.9662 35.5183 37.0959 35.5264 37.2696 35.5377H37.2691ZM45.2031 35.3797C45.1896 35.6097 45.3575 35.7032 45.5473 35.7112C45.7453 35.7198 45.904 35.6108 45.9077 35.3845C45.911 35.1567 45.7566 35.0557 45.5554 35.0471C45.3489 35.0385 45.1993 35.1293 45.2036 35.3797H45.2031ZM44.8045 35.5006C44.8411 35.4893 44.8771 35.4786 44.9137 35.4673C44.8346 35.2448 44.7916 34.9993 44.6663 34.8069C44.5173 34.5774 44.2709 34.506 43.9858 34.636C44.2645 34.9305 44.5345 35.2153 44.8045 35.5001V35.5006ZM35.8678 36.9042C35.8786 36.9498 35.8894 36.995 35.8996 37.0406C36.1933 37.1024 36.487 37.1648 36.8194 37.2346C36.665 36.959 36.5434 36.743 36.402 36.4904C36.2169 36.6339 36.0421 36.7687 35.8678 36.9042Z" fill="#828282"/>
<path d="M96.2236 26.9691H101.859V20.3555H107.994V39.1475H101.873V32.4081H101.539C99.8824 32.4081 98.2257 32.4151 96.5689 32.4011C96.2887 32.399 96.2284 32.4844 96.2301 32.7488C96.2408 34.7488 96.236 36.7493 96.236 38.7493V39.1427H90.1367V20.356H96.2241V26.9691H96.2236Z" fill="#828282"/>
<path d="M126.829 36.3411C127.93 34.9978 129.008 33.6807 130.074 32.3804C130.701 32.7522 131.299 33.1504 131.934 33.4739C133.384 34.2106 134.94 34.5442 136.563 34.5448C136.887 34.5448 137.219 34.4932 137.534 34.4126C137.845 34.3331 138.086 34.1461 138.114 33.7785C138.142 33.4169 137.961 33.1622 137.653 33.0563C136.997 32.8307 136.332 32.6195 135.656 32.4663C134.057 32.1042 132.455 31.7592 130.968 31.0397C129.816 30.4825 128.834 29.7345 128.269 28.5394C127.867 27.6893 127.783 26.7877 127.844 25.871C127.942 24.3976 128.491 23.1106 129.555 22.0682C130.52 21.123 131.704 20.5776 133.006 20.2756C134.463 19.9376 135.937 19.9473 137.417 20.08C139.269 20.246 141.026 20.7146 142.629 21.6791C143.067 21.9424 143.481 22.2449 143.935 22.5491C142.921 23.9892 141.933 25.3927 140.979 26.7474C140.195 26.3524 139.457 25.929 138.679 25.6012C137.622 25.1552 136.501 24.9516 135.348 24.9655C135.096 24.9687 134.837 25.0198 134.595 25.0934C134.317 25.1783 134.116 25.3637 134.076 25.6786C134.032 26.0219 134.191 26.2831 134.485 26.3997C134.995 26.6028 135.518 26.7968 136.054 26.9096C137.628 27.2406 139.22 27.5158 140.696 28.1746C141.392 28.4851 142.076 28.8715 142.676 29.3368C143.927 30.3073 144.387 31.6657 144.363 33.2127C144.332 35.1557 143.593 36.7506 142.014 37.9209C140.945 38.713 139.717 39.1541 138.416 39.3395C135.492 39.756 132.644 39.4352 129.911 38.2906C128.788 37.8204 127.761 37.1837 126.828 36.3401L126.829 36.3411Z" fill="#828282"/>
<path d="M88.7901 24.8318C87.0951 25.8484 85.4271 26.849 83.7403 27.8608C83.5886 27.6174 83.4514 27.3815 83.2992 27.1558C82.5494 26.0419 81.4935 25.4857 80.1563 25.5916C78.7599 25.7017 77.8255 26.5083 77.3264 27.7786C76.7271 29.3046 76.7653 30.8377 77.5872 32.2751C78.7367 34.2842 81.5101 34.5158 83.027 32.756C83.3331 32.4008 83.5859 32.0005 83.8925 31.5814C85.5417 32.5346 87.2135 33.5008 88.9417 34.4997C88.6314 34.9666 88.3533 35.4293 88.0327 35.8602C86.5347 37.8731 84.5407 39.066 82.048 39.4304C79.5775 39.7915 77.2371 39.4578 75.1081 38.0983C72.8091 36.6303 71.4084 34.5335 70.9071 31.8635C70.4219 29.2783 70.7409 26.799 72.1297 24.5298C73.6617 22.0268 75.9165 20.5427 78.8217 20.0859C81.0841 19.7302 83.2626 19.9999 85.2835 21.1429C86.8106 22.0064 87.9289 23.2643 88.7895 24.8323L88.7901 24.8318Z" fill="#828282"/>
<path d="M128.629 20.3543C128.117 21.25 127.625 22.1114 127.131 22.9711C125.363 26.0517 123.591 29.1313 121.829 32.2156C121.748 32.3575 121.708 32.5429 121.708 32.7078C121.7 34.7283 121.702 36.7492 121.702 38.7696V39.1501H115.553C115.553 39.0496 115.553 38.9421 115.553 38.8352C115.553 36.8148 115.557 34.7938 115.547 32.7734C115.546 32.5902 115.495 32.386 115.405 32.2269C113.216 28.3725 111.017 24.5225 108.822 20.6718C108.767 20.5762 108.719 20.4762 108.652 20.3489C108.77 20.3435 108.857 20.3365 108.944 20.3365C111.033 20.336 113.122 20.3403 115.211 20.3301C115.441 20.329 115.55 20.4037 115.651 20.6057C116.604 22.4967 117.568 24.3817 118.53 26.2678C118.566 26.3392 118.612 26.4064 118.672 26.508C119.102 25.674 119.518 24.869 119.933 24.0625C120.531 22.8975 121.129 21.732 121.722 20.5644C121.798 20.415 121.877 20.3306 122.068 20.3312C124.208 20.3387 126.348 20.336 128.488 20.3365C128.519 20.3365 128.549 20.3435 128.63 20.3543H128.629Z" fill="#828282"/>
<path d="M18.3887 39.1466V25.6748H13V20.3594H29.904V25.6555H24.5492V39.1466H18.3887Z" fill="#828282"/>
<path d="M144.84 37.6282C145.161 37.5245 145.324 37.6185 145.366 37.9393C145.397 38.1704 145.464 38.3971 145.568 38.6362C145.626 38.3977 145.689 38.1601 145.742 37.9205C145.823 37.5621 145.82 37.5615 146.231 37.6319V39.0177C146.067 39.0935 145.977 39.0629 145.983 38.8512C145.989 38.6056 145.984 38.36 145.927 38.0989C145.868 38.3294 145.789 38.5572 145.756 38.7915C145.725 39.0161 145.636 39.1048 145.393 39.0312C145.321 38.7287 145.246 38.4165 145.172 38.1037L145.136 38.1059V39.0285C145.031 39.0398 144.946 39.0484 144.84 39.0597V37.6276L144.84 37.6282Z" fill="#828282"/>
<path d="M144.161 39.0419H143.844V37.935C143.71 37.7663 143.354 38.0006 143.413 37.6094H144.549C144.556 37.7502 144.427 37.8437 144.161 37.8899V39.0419Z" fill="#828282"/>
<path d="M41.3733 31.462C41.2792 32.1396 41.0511 32.7027 40.638 33.1708C39.857 34.0547 38.8446 34.2481 37.7269 33.6442C37.0502 33.2788 36.4483 32.7758 35.8125 32.3347C35.8243 32.3089 35.8367 32.2836 35.8485 32.2578C36.2251 32.2035 36.6016 32.1493 36.9781 32.0955C37.0088 32.0912 37.0438 32.0998 37.0696 32.0875C37.8619 31.7113 38.6704 31.771 39.4933 31.972C40.0076 32.0977 40.4825 31.929 40.9338 31.6888C41.0672 31.6178 41.2023 31.5496 41.3728 31.4609L41.3733 31.462ZM40.2152 32.9951C40.0135 32.8951 39.8279 32.742 39.6262 32.7156C39.0372 32.6399 38.5208 32.8097 38.1206 33.4002C38.0754 33.1665 38.048 33.0273 38.0114 32.8392C37.8307 32.9021 37.657 32.9623 37.4316 33.0407C38.6214 33.8607 39.7311 33.663 40.2147 32.9951H40.2152Z" fill="#828282"/>
<path d="M48.5973 28.832C48.4607 29.4919 47.9992 29.903 47.4263 30.1405C46.7249 30.4312 45.988 30.6434 45.2554 30.8508C44.6319 31.0271 44.0515 31.2442 43.6766 31.8132C43.6712 31.8218 43.6632 31.8288 43.6578 31.8379C43.5104 32.0808 43.3421 32.4038 43.5319 32.601C43.6901 32.7659 44.0478 32.7971 44.3135 32.788C44.6637 32.7761 45.0112 32.6671 45.3613 32.5994C44.9552 33.2619 43.9144 33.3414 43.398 33.0491C43.1022 32.8815 42.9951 32.529 43.0973 32.162C43.3232 31.3495 43.8966 30.8675 44.6642 30.6219C45.2435 30.4365 45.8535 30.3463 46.4414 30.1845C47.2902 29.9508 48.0245 29.5231 48.5968 28.8331L48.5973 28.832Z" fill="#828282"/>
<path d="M47.7108 35.5583C47.5591 35.6545 47.4171 35.7722 47.2547 35.8426C46.7571 36.0575 46.3037 36.3063 46.1025 36.8593C46.0595 36.978 45.9379 37.0683 45.8266 37.2032C45.6738 36.3912 46.7114 35.4724 47.7114 35.5583H47.7108Z" fill="#828282"/>
</g>
<defs>
<clipPath id="clip0_992_12972">
<rect width="133.232" height="23" fill="white" transform="translate(13 19)"/>
</clipPath>
</defs>
</svg>
