<svg width="160" height="60" viewBox="0 0 160 60" fill="none" xmlns="http://www.w3.org/2000/svg">
<path d="M80.2148 15.0118C100.451 15.0118 120.687 15.0141 140.922 15C141.533 15 141.989 15.1673 142.418 15.5898C142.984 16.1453 143.601 16.6506 144.207 17.1627C144.481 17.3937 144.579 17.6652 144.578 18.0173C144.571 22.0137 144.575 26.01 144.576 30.0064C144.576 30.3596 144.509 30.6768 144.238 30.9427C143.581 31.586 142.942 32.2463 142.293 32.8969C142.204 32.9859 142.11 33.1009 141.998 33.1307C141.375 33.2986 141.273 33.7431 141.302 34.2996C141.329 34.823 141.311 35.348 141.309 35.8725C141.308 36.179 141.247 36.4685 140.891 36.5406C140.541 36.6122 140.167 36.6043 139.983 36.2421C139.822 35.9243 139.58 35.8325 139.264 35.761C137.218 35.2996 135.177 34.8157 133.133 34.3509C131.978 34.0878 130.802 33.9014 129.663 33.5808C128.318 33.2023 126.954 33.1825 125.581 33.1842C124.054 33.1859 122.527 33.1899 121 33.1989C120.437 33.2023 120.366 33.2625 120.377 33.8281C120.401 35.0748 120.441 36.3215 120.484 37.5682C120.5 38.0217 120.371 38.3935 120.072 38.7557C119.707 39.1946 119.399 39.6869 119.12 40.186C118.901 40.5776 118.604 40.7522 118.171 40.7877C117.378 40.853 116.574 40.8795 115.8 41.0412C114.871 41.235 113.942 41.3651 113 41.4739C111.804 41.6124 110.621 41.862 109.429 42.044C108.733 42.1499 108.029 42.2051 107.332 42.3048C106.478 42.427 105.628 42.5735 104.775 42.7053C104.276 42.7825 103.776 42.8574 103.275 42.9217C102.598 43.0084 101.918 43.0721 101.242 43.1678C100.403 43.2861 99.5668 43.4304 98.7287 43.5565C98.1753 43.6399 97.6212 43.7177 97.0655 43.7853C96.2946 43.8788 95.5198 43.9441 94.7511 44.0523C94.004 44.1576 93.263 44.3024 92.5187 44.4286C92.4294 44.4438 92.3385 44.4449 92.2487 44.459C91.397 44.5903 90.5454 44.7238 89.6937 44.8551C89.5864 44.8714 89.4763 44.8714 89.369 44.8872C88.4626 45.0201 87.5572 45.1559 86.6508 45.2871C86.5074 45.308 86.3617 45.308 86.2171 45.3232C85.3716 45.4133 84.5143 45.4443 83.6841 45.6099C82.2378 45.8984 80.7897 46.064 79.3152 45.9767C79.2067 45.9705 79.0932 45.9834 78.9916 45.9541C78.9164 45.9327 78.8622 45.8218 78.7899 45.8116C78.2438 45.7327 77.6966 45.7254 77.1448 45.6111C76.2417 45.4235 75.2992 45.433 74.3792 45.3142C73.6856 45.2246 73.0023 45.0635 72.3133 44.9379C72.189 44.9153 72.0608 44.9001 71.9349 44.9001C71.103 44.8984 70.2977 44.7413 69.5059 44.5013C69.4714 44.4911 69.4341 44.4889 69.398 44.4855C68.5943 44.4044 67.789 44.3334 66.987 44.2376C66.6352 44.1954 66.2918 44.0917 65.9411 44.0359C65.6102 43.983 65.2583 44.099 64.9454 43.8647C64.8477 43.7915 64.6625 43.823 64.5179 43.8258C63.4991 43.8467 62.5158 43.6191 61.5224 43.4365C60.7448 43.2935 59.9473 43.2619 59.1629 43.1504C58.4744 43.0529 57.7916 42.9132 57.1066 42.7921C57.071 42.7859 57.0366 42.7729 57.0004 42.7684C56.2916 42.6822 55.5823 42.6022 54.8741 42.5104C54.1145 42.4124 53.3481 42.3521 52.6105 42.1256C52.5767 42.1149 52.5383 42.1172 52.5021 42.1138C51.572 42.0254 50.639 41.9583 49.7122 41.8417C49.0757 41.7617 48.4477 41.6141 47.8163 41.4964C47.7807 41.4896 47.7457 41.4772 47.7101 41.4733C46.9093 41.382 46.109 41.293 45.3082 41.2012C44.6401 41.1246 43.9788 41.0305 43.3304 40.83C43.0447 40.7421 42.7171 40.7697 42.4093 40.7776C42.0417 40.7871 41.7943 40.6367 41.6051 40.3291C41.1612 39.6064 40.6845 38.9027 40.2604 38.1693C40.1435 37.9676 40.1249 37.6876 40.1271 37.4442C40.1373 36.3959 40.1723 35.348 40.1966 34.3002C40.2011 34.1014 40.1988 33.9025 40.2022 33.7036C40.2079 33.3437 40.0441 33.191 39.6702 33.1921C36.616 33.1983 33.5624 33.1921 30.5082 33.191C28.8173 33.191 27.1264 33.191 25.4355 33.1961C24.9492 33.1977 24.7911 33.3589 24.8549 33.8017C24.8719 33.9194 24.9724 34.0512 25.0724 34.1273C25.4824 34.4371 25.514 34.8675 25.4338 35.3035C25.3626 35.6889 25.0018 35.7328 24.6793 35.8139C23.2408 36.1745 21.8052 36.548 20.3685 36.9147C19.8111 37.0572 19.5236 36.98 19.3683 36.6533C19.1966 36.2928 19.3 35.7131 19.6507 35.4793C19.9251 35.2962 19.9816 35.0793 19.9669 34.7943C19.9477 34.4157 19.9483 34.0354 19.9172 33.658C19.8913 33.3425 19.7151 33.1549 19.3756 33.1949C18.8657 33.2552 18.5336 32.9882 18.2077 32.644C17.6158 32.0175 17.0076 31.4052 16.3796 30.8154C16.1175 30.5692 16.0074 30.3044 16.0091 29.9591C16.0136 28.7839 16.008 27.6082 16.0074 26.4331C16.0068 23.6648 16.0164 20.8982 16.0001 18.1311C15.9967 17.5869 16.1187 17.1847 16.5948 16.8382C17.1748 16.4163 17.683 15.8935 18.2038 15.3955C18.5149 15.0975 18.8645 15.0051 19.2887 15.0056C25.7433 15.0146 32.1973 15.0135 38.652 15.0135C52.5061 15.0135 66.3607 15.0135 80.2148 15.0135V15.0118V15.0118ZM134.393 17.6934V17.592C132.412 17.592 130.431 17.5914 128.45 17.5942C128.381 17.5942 128.314 17.6303 128.245 17.6494C128.287 17.6996 128.32 17.7587 128.37 17.7976C128.768 18.108 128.827 18.5226 128.826 18.9998C128.815 22.8694 128.82 26.739 128.828 30.6086C128.829 30.9123 128.855 31.2238 128.925 31.5179C129.056 32.0637 129.067 32.0711 128.568 32.3347C128.509 32.3657 128.466 32.426 128.416 32.4727C128.475 32.5341 128.523 32.6136 128.594 32.6513C128.671 32.6919 128.769 32.6913 128.857 32.7116C132.277 33.5065 135.697 34.2996 139.115 35.1002C139.482 35.1864 139.857 35.2748 140.196 35.4325C140.61 35.6258 140.615 35.6517 140.619 35.1723C140.626 34.232 140.601 33.2913 140.63 32.3516C140.643 31.9342 140.479 31.7877 140.088 31.724C138.711 31.4993 137.337 31.2508 135.963 31.0046C134.892 30.8125 133.825 30.6064 132.754 30.4159C132.366 30.3472 132.211 30.1461 132.223 29.7478C132.247 28.971 132.226 28.193 132.232 27.4156C132.237 26.8764 132.36 26.7914 132.89 26.8646C133.948 27.0111 135.01 27.1221 136.064 27.2883C136.493 27.3559 136.989 27.2759 137.315 27.6972C137.384 27.7857 137.51 27.8308 137.609 27.8955C137.631 27.7744 137.672 27.6533 137.672 27.5316C137.677 26.5734 137.677 25.6151 137.672 24.6563C137.671 24.3943 137.736 24.0231 137.269 24.3651C137.197 24.418 137.056 24.3859 136.948 24.3808C136.004 24.3358 135.059 24.3127 134.118 24.2304C133.689 24.1927 133.261 24.1746 132.827 24.0023C132.271 23.782 132.233 23.8671 132.23 23.2626C132.226 22.6119 132.227 21.9607 132.23 21.3095C132.232 20.6791 132.256 20.643 132.867 20.6588C133.556 20.6763 134.244 20.7315 134.933 20.7557C136.221 20.8008 137.51 20.8171 138.797 20.8841C139.276 20.9089 139.766 20.9901 140.218 21.1438C140.589 21.2712 140.61 21.3224 140.615 20.9275C140.626 20.078 140.621 19.2279 140.618 18.3778C140.615 17.5942 140.65 17.6973 139.952 17.6945C138.097 17.686 136.243 17.6917 134.39 17.6917L134.393 17.6934ZM26.4091 17.7564V17.7717C25.5004 17.7717 24.5923 17.7705 23.6836 17.7717C22.6846 17.7733 21.6849 17.7733 20.6859 17.7874C20.5537 17.7891 20.4221 17.868 20.29 17.9114C20.3589 18.0466 20.3922 18.2426 20.5023 18.3063C20.8451 18.5046 20.8785 18.8015 20.879 19.1412C20.8881 24.3459 20.8993 29.5506 20.9169 34.7548C20.9186 35.1926 20.8502 35.5756 20.4684 35.8573C20.3916 35.9142 20.3837 36.0629 20.3442 36.1694C20.4453 36.1716 20.5526 36.197 20.6469 36.1733C21.9458 35.8505 23.2442 35.5244 24.5398 35.188C24.6482 35.1599 24.7369 35.0557 24.8346 34.9864C24.7448 34.8883 24.6731 34.743 24.5618 34.7008C24.232 34.5757 24.1303 34.3199 24.1286 34.018C24.1207 32.3195 24.1247 30.6204 24.1241 28.922C24.1241 28.6138 24.2647 28.491 24.5867 28.4594C26.1889 28.3 27.7888 28.1164 29.3888 27.9355C29.6881 27.9017 29.9259 27.9812 30.0987 28.2302C30.1603 28.3186 30.2145 28.4116 30.2721 28.5028C30.3167 28.3851 30.3698 28.2696 30.4037 28.149C30.4274 28.0634 30.4325 27.9705 30.433 27.8809C30.4347 26.8325 30.428 25.7847 30.437 24.7363C30.4398 24.4073 30.319 24.2811 29.9801 24.3245C29.26 24.4163 28.5377 24.489 27.8154 24.5639C26.9304 24.6557 26.046 24.7538 25.1599 24.8281C24.3224 24.8985 24.1236 24.7109 24.123 23.9071C24.123 23.2744 24.1275 22.6418 24.123 22.0097C24.1207 21.6756 24.2563 21.514 24.6121 21.5207C25.0836 21.5292 25.5563 21.5072 26.0285 21.4926C27.9696 21.4317 29.9101 21.3635 31.8512 21.3162C32.0296 21.3117 32.2171 21.4227 32.3899 21.5016C32.4814 21.5433 32.5515 21.6323 32.6311 21.6999C32.6633 21.5833 32.7231 21.4672 32.7237 21.3506C32.7293 20.194 32.7299 19.0375 32.7203 17.8809C32.7181 17.5751 32.6785 17.2692 32.6508 16.9638C32.6463 16.9171 32.613 16.8726 32.5927 16.8269C32.5599 16.8635 32.5114 16.8957 32.4978 16.9379C32.4769 17.0055 32.4758 17.0799 32.4718 17.152C32.4396 17.7581 32.4402 17.7564 31.8043 17.7559C30.0055 17.7548 28.2068 17.7559 26.408 17.7559L26.4091 17.7564ZM46.6817 17.5401L46.6806 17.5841C46.1717 17.5841 45.6629 17.5818 45.154 17.5841C44.4091 17.5874 43.6642 17.592 42.9193 17.6032C42.8368 17.6043 42.7544 17.6534 42.6725 17.6804C42.7177 17.7463 42.7487 17.8319 42.8103 17.8742C43.1192 18.0866 43.1723 18.3902 43.1587 18.7322C43.1192 19.7248 43.0763 20.7174 43.0554 21.71C43.0125 23.7504 42.991 25.792 42.9385 27.8319C42.9328 28.0583 42.7928 28.2837 42.6996 28.5034C42.6697 28.5744 42.5889 28.6239 42.5313 28.6831C42.6109 28.7068 42.6917 28.7546 42.7702 28.7513C43.8912 28.6994 45.0117 28.6425 46.1322 28.5806C46.2531 28.5738 46.3717 28.5293 46.4914 28.5023C46.4061 28.424 46.3107 28.3535 46.2384 28.2651C46.1627 28.1733 46.0554 28.0645 46.0537 27.962C46.0401 26.9142 46.0345 25.8652 46.0593 24.818C46.0622 24.6969 46.2564 24.4867 46.3734 24.4783C46.8974 24.4405 47.4266 24.4439 47.9524 24.471C48.0925 24.4783 48.2636 24.5932 48.3551 24.7098C49.091 25.6484 49.8184 26.5936 50.526 27.5536C50.6068 27.6629 50.6209 27.9389 50.5413 28.0268C50.2222 28.3795 50.5029 28.3451 50.7231 28.3383C51.7561 28.3062 52.7884 28.2668 53.8214 28.2268C53.9112 28.2234 54.0015 28.2003 54.0885 28.1761C54.2229 28.1389 54.3551 28.0921 54.4884 28.0499C54.3833 27.9485 54.2777 27.8471 54.1727 27.7446C54.0823 27.6561 53.9812 27.5756 53.905 27.4758C53.2018 26.5582 52.4993 25.6399 51.8041 24.7166C51.516 24.3341 51.5245 24.3284 51.9622 24.147C53.3029 23.5927 54.3895 22.813 54.4918 21.212C54.5544 20.2335 54.411 19.3051 53.6554 18.5761C52.955 17.9007 52.0475 17.7486 51.145 17.6905C49.6602 17.5953 48.1699 17.5852 46.6817 17.539V17.5401ZM120.559 17.3982C120.052 17.4213 119.544 17.4376 119.037 17.4697C117.783 17.5486 116.653 17.9711 115.721 18.8088C114.56 19.8504 114.314 22.0193 115.989 22.9888C116.394 23.2226 116.809 23.4795 117.255 23.5933C118.39 23.884 119.543 24.1059 120.692 24.3448C121.47 24.5065 122.257 24.6264 123.027 24.8135C123.336 24.8884 123.637 25.0636 123.649 25.4737C123.661 25.8906 123.43 26.3272 123.084 26.4877C122.234 26.8832 121.351 26.9024 120.427 26.8156C118.982 26.6793 117.666 26.232 116.486 25.4056C116.289 25.2675 116.185 24.9932 116.048 24.7757C116.013 24.7194 116.012 24.6405 115.996 24.5718C115.935 24.631 115.85 24.6788 115.818 24.7504C115.569 25.312 115.33 25.8782 115.087 26.4427C114.909 26.8579 114.72 27.2691 114.557 27.6899C114.487 27.8702 114.366 28.1254 114.788 27.9643C114.953 27.9012 115.195 27.931 115.365 28.0031C116.908 28.6577 118.504 29.0977 120.177 29.265C121.372 29.3845 122.567 29.4656 123.748 29.2149C126.349 28.6617 127.086 26.7029 126.529 24.5808C126.196 23.311 125.176 22.63 123.951 22.3415C122.738 22.0559 121.493 21.9044 120.268 21.6683C119.595 21.5388 118.914 21.412 118.273 21.1827C117.677 20.9692 117.634 20.4453 118.143 20.0532C118.364 19.8831 118.644 19.762 118.917 19.6899C119.888 19.4313 120.866 19.6031 121.831 19.7372C122.673 19.8538 123.515 20.0172 124.261 20.4611C124.439 20.567 124.653 20.7151 124.716 20.8915C124.864 21.3106 125.004 21.1258 125.114 20.9101C125.475 20.2047 125.819 19.4916 126.155 18.7739C126.271 18.5249 126.07 18.4685 125.883 18.4212C125.498 18.3232 125.111 18.2308 124.729 18.1215C123.366 17.7305 121.991 17.4168 120.559 17.3993V17.3982ZM62.5057 17.5931C61.5608 17.5931 60.616 17.5925 59.6712 17.5931C58.8534 17.5936 58.0362 17.5942 57.219 17.6015C57.1393 17.6021 57.0603 17.6522 56.9806 17.6798C57.0236 17.7311 57.0806 17.7756 57.1072 17.8342C57.2201 18.0854 57.3952 18.3356 57.4161 18.5958C57.463 19.1885 57.433 19.7873 57.433 20.3839C57.433 22.5888 57.4375 24.7932 57.4234 26.9981C57.4217 27.2556 57.3302 27.5187 57.2433 27.7665C57.2122 27.855 57.071 27.9057 56.9801 27.9733C57.1151 28.0223 57.2466 28.095 57.3856 28.1136C57.6002 28.1423 57.8199 28.1406 58.0379 28.1406C61.1994 28.1423 64.3609 28.1372 67.5224 28.1496C67.7777 28.1507 68.0465 28.2307 68.2832 28.3327C68.4814 28.4183 68.5921 28.3614 68.5887 28.1947C68.5701 27.2781 68.5277 26.3621 68.4853 25.4461C68.4848 25.4292 68.3487 25.3977 68.3453 25.405C68.1663 25.7898 67.8139 25.7312 67.4931 25.7317C65.5672 25.7368 63.6414 25.7362 61.715 25.7362C61.5337 25.7362 61.3524 25.7205 61.1706 25.7154C60.8159 25.7053 60.6375 25.5436 60.6601 25.1729C60.6764 24.903 60.6584 24.631 60.664 24.36C60.6747 23.8552 60.7182 23.8085 61.2355 23.8062C62.3984 23.8011 63.5618 23.7876 64.7235 23.8175C64.9889 23.8242 65.2651 23.9662 65.5085 24.0963C65.6712 24.1837 65.7818 24.2558 65.7835 24.0118C65.7875 23.1809 65.7756 22.35 65.7604 21.5196C65.7576 21.3613 65.7423 21.2419 65.5029 21.3821C65.2521 21.5286 64.9432 21.6418 64.6557 21.6509C63.6392 21.6824 62.6209 21.6706 61.6038 21.6599C60.7233 21.6509 60.6617 21.5776 60.6623 20.6881C60.6623 20.598 60.6685 20.5067 60.6623 20.4171C60.6346 20.0583 60.7713 19.891 61.1604 19.8927C63.359 19.9034 65.5576 19.8938 67.7557 19.9062C67.9172 19.9073 68.0838 20.011 68.2374 20.0876C68.3221 20.1298 68.3854 20.2149 68.4577 20.2802C68.5074 20.167 68.6034 20.0526 68.6 19.9411C68.5757 19.0781 68.5334 18.215 68.4933 17.352C68.491 17.3018 68.4599 17.2528 68.4424 17.2032C68.4046 17.2325 68.3498 17.2539 68.3312 17.2923C68.1691 17.6235 67.8635 17.5897 67.575 17.5897C65.8852 17.592 64.1954 17.5908 62.5057 17.5914V17.5931ZM98.8643 22.6328C98.8372 22.3105 98.8406 21.9821 98.7784 21.6666C98.426 19.8684 97.3236 18.6753 95.6519 18.0049C93.8927 17.2996 92.0668 17.1683 90.2048 17.5339C88.8206 17.806 87.5623 18.3254 86.6017 19.3975C84.4917 21.7523 85.0943 25.6765 88.4191 27.1074C90.8261 28.1434 93.3415 28.0758 95.779 27.135C97.4484 26.4911 98.9817 24.7307 98.8637 22.6328H98.8643ZM100.752 21.4007C100.752 22.2863 100.744 23.1713 100.753 24.0569C100.775 26.0816 101.966 27.6533 103.933 28.1214C105.625 28.5242 107.36 28.5524 109.058 28.2003C111.28 27.7395 112.64 26.2066 112.594 23.8192C112.56 22.1032 112.589 20.3861 112.585 18.6696C112.585 18.3187 112.56 17.9688 112.982 17.8133C113.021 17.7987 113.044 17.7379 113.074 17.6984C113.02 17.6652 112.966 17.6038 112.912 17.6038C111.677 17.5965 110.442 17.5942 109.207 17.5976C109.126 17.5976 109.045 17.6556 108.963 17.6866C109.014 17.7491 109.077 17.8055 109.113 17.8753C109.2 18.0438 109.341 18.2184 109.343 18.3919C109.36 20.1805 109.376 21.9697 109.342 23.7578C109.328 24.4794 109.115 25.1875 108.386 25.5244C107.151 26.0945 105.905 26.1492 104.698 25.4179C104.227 25.1329 103.983 24.6828 103.976 24.1572C103.952 22.2243 103.953 20.2904 103.969 18.3575C103.971 18.1829 104.146 18.0054 104.257 17.8393C104.3 17.7756 104.384 17.7401 104.45 17.6917C104.361 17.6556 104.271 17.5891 104.181 17.588C103.364 17.5773 102.547 17.5762 101.729 17.5767C101.348 17.5767 100.966 17.5801 100.585 17.5948C100.507 17.5976 100.43 17.6584 100.352 17.6922C100.393 17.7452 100.448 17.7919 100.471 17.8517C100.57 18.1114 100.73 18.3722 100.739 18.6375C100.773 19.558 100.752 20.4802 100.752 21.4019V21.4007ZM77.5362 23.3713C78.2992 23.3713 79.0627 23.3826 79.8251 23.3662C80.2013 23.3584 80.3492 23.5127 80.3458 23.8789C80.3368 24.7825 80.3425 25.6861 80.3436 26.5897C80.3436 26.8376 80.3159 27.0618 80.0172 27.139C79.9612 27.1536 79.9211 27.2297 79.8737 27.2775C79.9511 27.3052 80.0284 27.3559 80.1064 27.3564C81.3234 27.3688 82.5405 27.3761 83.7576 27.3773C83.831 27.3773 83.9044 27.3159 83.9778 27.2826C83.9304 27.2336 83.892 27.1615 83.8344 27.1401C83.5294 27.0252 83.4543 26.7993 83.4554 26.4968C83.4616 23.7859 83.4605 21.0757 83.4571 18.3649C83.4571 18.1153 83.4842 17.8973 83.7434 17.7756C83.8022 17.748 83.8445 17.6849 83.8948 17.6381C83.8174 17.6122 83.7395 17.5649 83.6621 17.5643C82.4631 17.557 81.2641 17.5553 80.0652 17.5559C79.9765 17.5559 79.8884 17.5835 79.7997 17.5981C79.8794 17.6489 79.9878 17.681 80.0324 17.7531C80.1504 17.9412 80.3182 18.1435 80.3278 18.3463C80.3634 19.0854 80.3334 19.8273 80.347 20.5681C80.3543 20.9523 80.1634 21.0757 79.8105 21.0712C79.2293 21.0638 78.6476 21.0757 78.0665 21.0712C77.1222 21.065 76.1779 21.052 75.2336 21.043C74.8767 21.0396 74.7141 20.887 74.7259 20.5084C74.748 19.7862 74.7163 19.0623 74.7429 18.3406C74.7502 18.1497 74.8846 17.9615 74.9682 17.7756C74.9948 17.7165 75.0473 17.6691 75.0874 17.6162C75.0207 17.5987 74.9541 17.5666 74.8869 17.566C74.251 17.5627 73.615 17.5649 72.9791 17.5649C72.4341 17.5649 71.8891 17.5621 71.3442 17.5666C71.2798 17.5666 71.2154 17.6043 71.151 17.6246C71.1838 17.6612 71.2092 17.7114 71.2498 17.7328C71.5966 17.9159 71.6181 18.2297 71.6169 18.5694C71.6118 20.3766 71.6164 22.1832 71.6169 23.9904C71.6169 24.84 71.6147 25.6889 71.6169 26.5384C71.6169 26.8043 71.5955 27.0483 71.2803 27.1429C71.2216 27.1604 71.1798 27.2314 71.1295 27.2775C71.2064 27.3046 71.2832 27.3542 71.3605 27.3553C72.5414 27.3682 73.7218 27.3761 74.9027 27.379C74.9846 27.379 75.0665 27.3322 75.1489 27.3074C75.0992 27.2421 75.0637 27.144 74.9981 27.117C74.7429 27.0105 74.7316 26.8038 74.7321 26.5784C74.7344 25.6748 74.744 24.7712 74.7276 23.8682C74.7208 23.4868 74.8795 23.3584 75.2483 23.3662C76.0113 23.3826 76.7743 23.3713 77.5373 23.3713H77.5362ZM82.9262 36.9519H82.8833C82.8833 38.1428 82.8906 39.3337 82.8799 40.5246C82.8754 41.0221 82.8726 41.0502 83.3758 41.0536C84.5561 41.0615 85.7365 41.0344 86.9157 41.0649C87.8103 41.0874 88.6591 40.9449 89.4983 40.6378C90.3246 40.3359 90.8052 39.7596 90.956 38.9303C91.1118 38.0735 90.8182 37.3457 90.067 36.8854C89.6988 36.6595 89.2442 36.5722 88.828 36.424C88.7314 36.3897 88.632 36.3632 88.5343 36.3328C88.6173 36.2505 88.6918 36.1559 88.7873 36.0917C88.8404 36.0562 88.9285 36.0748 88.9996 36.064C89.7158 35.9581 90.2511 35.5818 90.5109 34.9171C90.8057 34.1616 90.7673 33.4039 90.2703 32.7212C89.7135 31.9561 88.8556 31.724 88.004 31.6745C86.4695 31.5855 84.9277 31.6266 83.3893 31.6114C83.0668 31.608 82.9093 31.6987 82.9149 32.0818C82.9398 33.7048 82.9257 35.3283 82.9257 36.9519H82.9262ZM78.9853 35.5441C78.9853 34.387 78.9774 33.2299 78.9904 32.0727C78.9938 31.7556 78.9057 31.6102 78.5618 31.6215C78.0185 31.6395 77.4735 31.6373 76.9307 31.6108C76.5891 31.5939 76.4964 31.7173 76.4993 32.0474C76.5123 33.4935 76.51 34.9396 76.4942 36.3857C76.4852 37.2341 76.4518 38.0831 76.4072 38.9309C76.3812 39.4278 76.2225 39.8869 75.6527 39.9765C75.1049 40.0621 74.5458 40.0959 73.9906 40.1094C73.1943 40.128 72.6177 39.4509 72.6295 38.7478C72.6617 36.7778 72.6369 34.8072 72.6341 32.8366C72.6341 32.6017 72.6403 32.3662 72.6279 32.1319C72.612 31.8192 72.4771 31.6305 72.1213 31.6384C71.5763 31.6508 71.0302 31.6502 70.4857 31.6328C70.1028 31.6204 69.9678 31.7973 69.9808 32.1544C69.9921 32.4609 69.9786 32.7685 69.9786 33.0761C69.9797 34.8838 69.9582 36.6922 69.9927 38.5C70.0102 39.4131 70.2649 40.2818 71.1894 40.6959C71.7694 40.9556 72.407 41.2006 73.03 41.2322C74.4842 41.3054 75.9498 41.4074 77.3735 40.8745C78.4996 40.4531 78.9808 39.8807 78.9853 38.6909C78.9893 37.6425 78.9859 36.5936 78.9853 35.5452V35.5441ZM35.4961 29.6571L35.4938 29.6261C36.3958 29.5574 37.2982 29.4909 38.1996 29.4194C38.6322 29.385 39.0659 29.3529 39.4957 29.2938C39.5968 29.2797 39.6838 29.1597 39.777 29.0887C39.7052 29.0172 39.6459 28.9135 39.5595 28.8797C39.2015 28.7411 39.1636 28.4634 39.1642 28.1327C39.1699 25.0264 39.1699 21.9201 39.1653 18.8133C39.1653 18.446 39.2162 18.1418 39.6262 17.9947C39.8526 17.9131 39.7561 17.7852 39.5946 17.7091C39.4997 17.6646 39.3969 17.601 39.2998 17.6043C37.9443 17.6466 36.5895 17.6984 35.2341 17.7508C35.168 17.7536 35.103 17.7846 35.0381 17.8026C35.0804 17.8511 35.116 17.9091 35.1663 17.9469C35.5492 18.2336 35.6554 18.6133 35.6537 19.0831C35.6401 22.3156 35.6458 25.5486 35.6542 28.7817C35.6548 29.0712 35.6175 29.2791 35.2753 29.3157C35.2098 29.3225 35.1544 29.4228 35.0946 29.4797C35.1742 29.536 35.2493 29.6008 35.3357 29.6453C35.3798 29.6678 35.4424 29.6543 35.4967 29.6571H35.4961ZM98.4548 31.435C98.0917 31.435 97.7257 31.408 97.3654 31.4424C96.9944 31.4784 96.6318 31.6012 96.2613 31.6384C95.4989 31.715 94.9432 32.1302 94.401 32.6243C93.6939 33.2682 93.8046 34.5588 94.4592 35.183C95.0866 35.7812 95.8569 36.0978 96.5911 36.4978C97.3423 36.9068 98.1244 37.2741 98.8236 37.7586C99.6979 38.3648 99.6171 39.3123 98.6717 39.7748C98.2662 39.9731 97.7833 40.0514 97.3264 40.1021C96.5821 40.1844 95.8795 39.9117 95.1617 39.7652C94.9804 39.728 94.6851 39.7483 94.5941 39.8621C94.3106 40.2165 94.5642 40.9257 94.9985 41.0164C95.5587 41.1342 96.1308 41.2446 96.7007 41.2581C97.5264 41.2778 98.3487 41.3167 99.1783 41.0851C99.8616 40.8947 100.509 40.7009 101.068 40.2553C102.168 39.3782 102.249 38.1557 101.228 37.2031C100.904 36.9017 100.517 36.6527 100.127 36.4387C99.1574 35.9074 98.1685 35.41 97.1869 34.8991C96.7702 34.6822 96.4912 34.3194 96.4731 33.88C96.455 33.4501 96.7374 33.1313 97.1587 32.9318C98.0674 32.5015 98.9902 32.4744 99.9447 32.7347C100.269 32.8231 100.603 32.8766 100.932 32.9459C100.96 32.6096 100.998 32.2739 101.006 31.937C101.009 31.8519 100.931 31.7071 100.861 31.688C100.5 31.586 100.134 31.479 99.7634 31.4435C99.3313 31.4024 98.8925 31.4339 98.4565 31.4345L98.4548 31.435ZM63.0422 31.4339C62.4633 31.4812 61.7551 31.3838 61.0356 31.6232C60.3658 31.8463 59.7355 32.0575 59.1719 32.5144C58.4654 33.0868 58.4688 34.5993 59.1482 35.1864C59.7948 35.7452 60.5285 36.1373 61.2881 36.5006C62.1437 36.9096 63.0253 37.2775 63.7284 37.94C64.2745 38.4543 64.1875 39.3658 63.5121 39.6621C62.9998 39.8875 62.4221 40.0852 61.8748 40.083C61.1909 40.0796 60.5093 39.8497 59.8231 39.7371C59.6599 39.7106 59.4261 39.6982 59.3244 39.7895C59.0127 40.0694 59.2453 40.9156 59.6644 41.017C60.1535 41.1353 60.6578 41.2508 61.157 41.2575C62.0753 41.2699 62.9925 41.3381 63.9114 41.0784C64.7212 40.8497 65.4853 40.5917 66.075 39.9765C66.4618 39.5731 66.655 39.1151 66.5945 38.514C66.5172 37.7468 66.0795 37.2471 65.4989 36.8764C64.7342 36.388 63.9114 35.9891 63.1151 35.5491C62.5983 35.2635 62.0578 35.0106 61.5778 34.6731C61.0424 34.2963 61.0062 33.4518 61.5207 33.1352C61.9364 32.8795 62.4283 32.693 62.9095 32.6096C63.6826 32.4755 64.4552 32.6451 65.2109 32.8355C65.6542 32.9471 65.6548 32.9549 65.6745 32.502C65.6825 32.3217 65.7017 32.137 65.6695 31.9623C65.6497 31.8575 65.5571 31.7054 65.4695 31.6835C65.0556 31.5798 64.6348 31.4891 64.2113 31.4418C63.8701 31.4035 63.5217 31.4339 63.0422 31.4339V31.4339ZM45.7837 36.4184L45.8973 36.4156C45.6759 37.1812 46.1299 37.5299 46.7099 37.8037C46.7743 37.8341 46.8319 37.8775 46.8924 37.9158C47.1702 38.0932 47.4831 38.1766 47.7474 37.9575C48.1614 37.6138 48.8724 37.5518 48.9628 36.9068C49.0689 36.1474 49.1666 35.3323 48.1377 35.0343C48.023 35.001 47.9383 34.8743 47.8242 34.8269C47.6949 34.7734 47.5176 34.6951 47.4148 34.7424C46.946 34.9593 46.4411 35.1537 46.061 35.4838C45.8538 35.6641 45.8696 36.0978 45.7843 36.4173L45.7837 36.4184ZM111.657 36.5491C111.479 37.0989 111.808 37.4516 112.324 37.7051C112.389 37.7366 112.451 37.7732 112.509 37.8155C112.895 38.0943 113.215 38.0696 113.684 37.8521C114.558 37.4465 114.889 36.882 114.759 35.9525C114.711 35.61 114.587 35.3869 114.3 35.2252C114.037 35.0776 113.792 34.8833 113.512 34.7858C113.335 34.7238 113.085 34.7486 112.91 34.8264C112.601 34.9627 112.304 35.1464 112.04 35.3565C111.876 35.4866 111.739 35.6883 111.67 35.8855C111.608 36.0624 111.657 36.277 111.657 36.5497V36.5491Z" fill="#828282"/>
<path d="M129.027 24.8519C129.027 26.7684 129.028 28.6849 129.024 30.6014C129.024 30.7603 128.995 30.9186 128.979 31.0769C128.956 30.9107 128.91 30.7451 128.91 30.5789C128.908 27.4872 128.91 24.3956 128.912 21.304C128.912 20.5085 128.91 19.7131 128.915 18.9176C128.915 18.8207 128.954 18.7238 128.975 18.627C128.991 18.7312 129.02 18.8354 129.021 18.9396C129.024 20.9102 129.023 22.8808 129.023 24.8519H129.027V24.8519Z" fill="#828282"/>
<path d="M48.2866 22.2287C47.7427 22.2287 47.1983 22.2231 46.6545 22.231C46.2919 22.236 46.1258 22.0907 46.1439 21.7121C46.1665 21.244 46.1524 20.7742 46.1501 20.3049C46.149 20.0384 46.2727 19.9015 46.5432 19.9015C47.7405 19.9027 48.9389 19.8734 50.1345 19.9151C50.8952 19.9415 51.3832 20.4846 51.3233 21.1082C51.2793 21.5662 50.9127 22.0321 50.3943 22.1115C49.7008 22.2174 48.992 22.227 48.29 22.2783L48.2872 22.2287H48.2866Z" fill="#828282"/>
<path d="M92.1453 19.6786C93.0777 19.6589 93.9378 19.9637 94.7448 20.5704C95.9675 21.4887 96.0872 23.2271 94.969 24.4434C93.5396 25.9982 90.5154 26.0377 89.0493 24.1195C88.2247 23.0412 88.3716 21.229 89.8151 20.291C90.5086 19.8409 91.2676 19.6707 92.1447 19.6786H92.1453Z" fill="#828282"/>
<path d="M85.3186 38.3678C85.3186 38.0253 85.313 37.6822 85.3203 37.3397C85.3316 36.8305 85.4604 36.6738 85.9201 36.751C86.4617 36.8423 87.0033 36.9741 87.5206 37.1561C88.0035 37.3256 88.3525 38.0766 88.2825 38.6304C88.187 39.3835 87.8493 39.7796 87.1829 39.903C86.7621 39.9807 86.3414 40.0821 85.9167 40.1058C85.4107 40.1334 85.3293 40.0258 85.3192 39.5041C85.3118 39.1255 85.3175 38.7464 85.318 38.3678H85.3186Z" fill="#828282"/>
<path d="M85.3213 34.1674C85.3213 33.8074 85.3235 33.4474 85.3207 33.0874C85.3179 32.7567 85.4675 32.6058 85.8109 32.5866C86.4395 32.5528 87.0133 32.7077 87.5594 32.9995C87.5752 33.008 87.5938 33.0114 87.6091 33.0209C88.28 33.4266 88.084 34.0919 88.0705 34.6744C88.0592 35.1363 87.7536 35.4033 87.2985 35.5875C86.8049 35.7875 86.3175 35.7644 85.8177 35.7791C85.4737 35.7892 85.3145 35.6411 85.3184 35.3008C85.3229 34.9228 85.3196 34.5448 85.3196 34.1668H85.3218L85.3213 34.1674Z" fill="#828282"/>
<path d="M35.8481 23.309C35.8481 24.6458 35.8486 25.9826 35.847 27.3189C35.847 27.4067 35.8272 27.4952 35.817 27.5831C35.8006 27.5053 35.7696 27.427 35.7696 27.3493C35.7662 24.7303 35.7656 22.1107 35.7656 19.4917C35.7656 19.4196 35.7668 19.347 35.7764 19.2754C35.7831 19.2241 35.8052 19.1751 35.821 19.125C35.8357 19.183 35.8622 19.241 35.8628 19.2991C35.865 20.6359 35.8645 21.9721 35.8645 23.309H35.8486H35.8481Z" fill="#828282"/>
</svg>
