<svg width="160" height="60" viewBox="0 0 160 60" fill="none" xmlns="http://www.w3.org/2000/svg">
<path d="M79.0942 12C83.5374 12.1755 87.5419 12.2872 91.5463 12.5065C93.752 12.6302 95.9457 12.9293 98.1433 13.1607C99.4237 13.2963 100.708 13.404 101.98 13.6034C106.001 14.2296 110.045 14.7281 114.022 15.5737C120.335 16.9178 126.514 18.7486 132.173 21.9912C134.076 23.0801 135.823 24.3684 137.231 26.0795C139.819 29.2144 139.476 32.7084 136.796 35.5602C134.391 38.1168 131.348 39.6843 128.209 41.1282C124.687 42.7475 120.97 43.7606 117.264 44.7976C115.274 45.356 113.228 45.7349 111.19 46.0819C107.576 46.7001 103.959 47.3024 100.325 47.785C97.6966 48.136 95.0483 48.2995 92.4039 48.5069C90.984 48.6186 89.5561 48.6744 88.1322 48.7063C84.2154 48.7901 80.2947 48.9935 76.386 48.8739C71.3206 48.7183 66.2591 48.3553 61.2057 47.9605C57.9072 47.7012 54.6087 47.3024 51.3341 46.8118C49.0367 46.4688 46.7632 45.9303 44.5018 45.3759C41.6181 44.666 38.7144 43.976 35.8945 43.0506C31.0046 41.4472 26.2503 39.5288 22.4652 35.8194C20.5308 33.9209 19.5257 31.6594 20.2197 29.027C20.5627 27.7307 21.4441 26.4823 22.3535 25.4453C24.3637 23.1479 27.0041 21.6482 29.7682 20.4676C32.6718 19.2272 35.6393 18.0984 38.6506 17.1611C41.3109 16.3315 44.059 15.7692 46.7952 15.2028C49.5791 14.6284 52.3871 14.1578 55.191 13.7071C56.6269 13.4758 58.0827 13.396 59.5305 13.2404C61.792 13.0011 64.0535 12.71 66.319 12.5305C67.8745 12.4068 69.442 12.4667 71.0015 12.4028C73.8453 12.2792 76.6891 12.1197 79.1061 12H79.0942ZM78.9745 14.1578C76.5655 14.2854 73.6499 14.5048 70.7343 14.5766C64.9988 14.7162 59.3032 15.2068 53.6434 16.1401C51.3062 16.527 48.9689 16.8939 46.6316 17.2768C41.8693 18.0625 37.2546 19.4107 32.7715 21.1616C29.6525 22.3821 26.6731 23.8978 24.3637 26.4225C22.0065 29.0031 22.0344 32.2098 24.4355 34.7744C27.1517 37.6741 30.6815 39.2655 34.327 40.5259C37.4301 41.5988 40.6369 42.3805 43.8237 43.1942C46.1211 43.7805 48.4424 44.3509 50.7877 44.658C56.0605 45.352 61.3533 45.9463 66.646 46.4448C69.6733 46.728 72.7285 46.8277 75.7717 46.8437C78.9785 46.8597 82.1853 46.6084 85.396 46.6044C89.7355 46.6004 94.0551 46.381 98.3627 45.8107C102.004 45.3281 105.674 44.997 109.291 44.3628C112.845 43.7406 116.351 42.8273 119.873 42.0296C123.49 41.2119 126.901 39.8319 130.163 38.0929C132.133 37.0439 133.924 35.7117 135.225 33.877C136.214 32.4771 136.732 30.9415 136.154 29.1387C135.38 26.7296 133.601 25.2339 131.647 23.9217C128.309 21.6801 124.535 20.348 120.718 19.2591C117.264 18.2779 113.711 17.6198 110.177 16.9338C107.145 16.3475 104.094 15.8489 101.035 15.4541C98.2111 15.0911 95.3673 14.8398 92.5235 14.6843C88.184 14.449 83.8365 14.3413 78.9825 14.1578H78.9745Z" fill="#828282"/>
<path d="M79.4688 15.7285C81.7941 15.7285 84.1393 15.8322 86.4606 15.896C88.9056 15.9638 91.3506 16.0915 93.7875 16.2829C96.3482 16.4823 98.9088 16.7256 101.453 17.0687C104.393 17.4675 107.325 17.9621 110.248 18.4926C112.749 18.9472 115.266 19.394 117.715 20.0561C122.732 21.4082 127.746 22.84 131.966 26.0747C132.763 26.685 133.445 27.4946 134.044 28.3123C135.093 29.7442 135.017 31.2638 134.092 32.7555C132.911 34.658 131.096 35.8107 129.194 36.8318C125.42 38.8659 121.364 40.1303 117.216 41.1394C115.174 41.6339 113.152 42.2203 111.09 42.6032C108.557 43.0698 106 43.4208 103.44 43.7199C99.8501 44.1427 96.2564 44.5176 92.6588 44.8287C90.6127 45.0082 88.5506 45.0521 86.4925 45.104C83.2419 45.1837 79.9833 45.3273 76.7366 45.2396C72.6604 45.1279 68.5881 44.8806 64.5198 44.5655C60.6868 44.2664 56.8579 43.8835 53.0488 43.3809C50.4802 43.0419 47.9196 42.5314 45.3988 41.9291C42.0325 41.1274 38.6622 40.3018 35.3717 39.2329C31.8658 38.0921 28.4875 36.6124 25.7793 33.9521C23.6814 31.894 23.7133 29.1579 25.8431 27.0719C28.1206 24.8423 30.9165 23.5181 33.8162 22.4013C38.5306 20.5825 43.4046 19.3341 48.3942 18.5404C51.2939 18.0817 54.1816 17.5273 57.0852 17.0886C58.6168 16.8573 60.1723 16.7496 61.7199 16.6459C64.6913 16.4504 67.6628 16.2909 70.6342 16.1393C73.5777 15.9878 76.5252 15.8641 79.4688 15.7285ZM117.866 32.58C117.814 32.1094 117.822 31.7663 117.739 31.4513C117.041 28.9225 116.319 26.4018 115.621 23.8731C115.405 23.0953 114.983 22.9238 114.364 23.4264C114.089 23.6497 113.858 24.0845 113.575 24.1084C112.486 24.2081 112.793 24.8582 112.956 25.4605C113.144 26.1505 113.371 26.8326 113.551 27.5266C113.591 27.6901 113.499 27.8855 113.467 28.069C113.323 27.9414 113.16 27.8337 113.048 27.6861C112.713 27.2394 112.398 26.7727 112.075 26.314C110.958 24.7466 110.962 24.7625 109.064 25.3089C108.386 25.5044 108.039 25.8035 108.222 26.5813C108.681 28.4998 109.072 30.4342 109.522 32.3527C109.71 33.1464 109.993 33.9122 110.188 34.7019C110.296 35.1366 110.376 35.4836 110.95 35.2443C111.333 35.0848 111.728 34.9053 112.131 34.8654C113.056 34.7777 112.964 34.2512 112.753 33.625C112.554 33.0307 112.342 32.4404 112.191 31.8381C112.135 31.6108 112.226 31.3476 112.25 31.1003C112.414 31.2439 112.601 31.3635 112.729 31.531C113.271 32.233 113.79 32.9589 114.336 33.6569C114.464 33.8204 114.699 34.0518 114.851 34.0278C115.585 33.9122 116.299 33.6888 117.033 33.5692C117.723 33.4575 118.054 33.1663 117.862 32.584L117.866 32.58ZM61.66 35.4836C63.0241 35.4398 64.46 34.9651 65.489 33.5612C66.6736 31.9418 66.8531 30.0832 66.7653 28.1926C66.6896 26.5653 65.505 25.3408 63.9813 24.8542C61.8555 24.1722 59.2988 25.7198 58.3735 27.4149C57.6117 28.8109 57.3684 30.2866 57.516 31.878C57.6994 33.8324 59.4065 35.4916 61.66 35.4797V35.4836ZM97.4769 26.8206C97.3972 25.7876 97.2296 24.942 96.3322 24.595C94.7767 23.9927 93.3089 24.4753 91.8651 25.0816C91.4224 25.2651 90.9876 25.4844 90.5249 25.5881C89.9107 25.7237 89.6754 25.975 89.8628 26.6291C90.4651 28.6992 91.0434 30.7732 91.6138 32.8552C92.3038 35.376 92.3038 35.4158 94.7727 34.7179C95.8057 34.4267 96.8946 34.1076 97.7641 33.5133C99.4592 32.3567 99.5749 30.7692 98.4382 29.4331C98.0672 28.9983 97.0621 28.8946 96.9584 28.4878C96.8268 27.9613 97.3134 27.2793 97.4769 26.8166V26.8206ZM88.6065 28.2724C88.6065 28.2724 88.6424 28.2724 88.6583 28.2684C88.6583 27.3391 88.6304 26.4098 88.6703 25.4844C88.6982 24.8622 88.4629 24.7825 87.8965 24.8542C86.9632 24.9779 86.0099 24.95 85.0766 25.0616C84.7575 25.1015 84.2909 25.297 84.1952 25.5443C83.1262 28.1926 82.1092 30.8649 81.1001 33.5373C81.0004 33.8005 81.0482 34.1276 81.0642 34.4227C81.0682 34.5105 81.2078 34.5902 81.2835 34.674C81.7382 34.0159 82.0812 34.7019 82.4801 34.7378C82.9946 34.7817 83.7165 34.9572 83.7923 33.984C83.8123 33.7447 84.4185 33.3019 84.606 33.3657C85.2003 33.5731 86.1775 33.1424 86.3569 34.0438C86.5165 34.8455 86.9712 35.2124 87.6213 35.4717C87.7769 35.5315 88.0241 35.376 88.1677 35.4438C89.105 35.8865 89.129 35.8945 89.0612 34.7817C88.9295 32.6079 88.758 30.4382 88.6025 28.2684L88.6065 28.2724ZM107.7 34.9612C107.576 34.3509 107.384 33.5851 107.273 32.8034C106.978 30.7932 106.718 28.775 106.431 26.7647C106.355 26.2502 106.252 25.7357 106.1 25.2371C106.056 25.0896 105.797 24.8862 105.657 24.9021C104.612 25.0138 103.563 25.1374 102.534 25.3488C102.263 25.4047 101.932 25.7357 101.836 26.0149C101.434 27.1915 101.087 28.3921 100.763 29.5926C100.309 31.2837 99.882 32.9828 99.4672 34.6859C99.4233 34.8654 99.531 35.0848 99.5669 35.2882C99.7265 35.2164 99.882 35.1127 100.054 35.0808C100.249 35.0449 100.52 34.9851 100.652 35.0808C101.318 35.5674 102.167 35.2842 102.275 34.4666C102.403 33.4894 103.101 33.5851 103.759 33.609C104.325 33.629 105.003 33.4655 104.967 34.4586C104.955 34.7737 105.314 35.1047 105.502 35.4238C106.064 35.001 106.587 35.4438 106.99 35.6472C107.763 36.0381 107.668 35.5993 107.7 34.9612ZM126.402 28.2006C126.442 28.2006 126.477 28.1966 126.517 28.1926C126.517 27.1676 126.497 26.1425 126.525 25.1175C126.537 24.591 126.302 24.4953 125.847 24.5671C125.177 24.6788 124.503 24.7466 123.837 24.8622C123.039 24.9978 122.114 24.7785 121.719 25.8913C120.778 28.5516 119.757 31.18 118.784 33.8284C118.7 34.0518 118.752 34.323 118.74 34.5743C118.939 34.5065 119.139 34.4067 119.342 34.3748C119.521 34.3469 119.741 34.3389 119.896 34.4147C120.945 34.9532 121.081 34.8854 121.599 33.8244C121.735 33.5492 122.166 33.2222 122.429 33.2501C123.059 33.3139 123.997 32.915 124.248 33.8005C124.503 34.6899 124.723 35.2523 125.807 35.4478C126.844 35.6352 126.94 35.7549 126.864 34.6341C126.721 32.4883 126.553 30.3464 126.398 28.2006H126.402ZM44.8963 25.1813C43.612 25.1973 42.7731 25.8341 42.3795 27.0918C42.3317 27.2434 42.2479 27.387 42.1841 27.5345C41.2827 29.6165 40.3773 31.6985 39.4918 33.7885C39.4041 33.9919 39.4081 34.2432 39.4201 34.4666C39.4201 34.5424 39.5796 34.6102 39.6634 34.682C40.15 34.0239 40.5129 34.5583 40.9835 34.7458C41.522 34.9612 42.1482 34.8096 42.3357 34.1714C42.5191 33.5373 42.8462 33.3937 43.4245 33.5333C43.8992 33.6449 44.7966 33.7526 44.7926 33.8164C44.7008 35.3161 45.8416 35.4438 46.8227 35.8865C47.2934 36.1019 47.3931 36.0779 47.4689 35.6711C47.5287 35.348 47.5008 35.009 47.4928 34.678C47.445 31.8342 47.3851 28.9903 47.3492 26.1505C47.3373 24.9859 47.3652 25.0098 46.2803 25.1733C45.8256 25.2411 45.355 25.1853 44.8923 25.1853L44.8963 25.1813ZM38.2554 24.4953C38.2554 24.4953 38.2554 24.4674 38.2514 24.4554C36.4406 24.6508 34.6219 24.8104 32.8151 25.0497C31.9336 25.1654 31.5986 25.9431 31.8179 27.1915C31.9655 28.0371 32.6156 27.4627 33.0185 27.5624C33.3296 27.6382 33.6846 27.5266 34.0076 27.5824C34.1712 27.6103 34.4145 27.8097 34.4344 27.9573C34.5979 29.098 34.7096 30.2427 34.8492 31.3874C34.9489 32.2011 35.1683 33.0148 35.1563 33.8284C35.1404 34.9811 35.8065 34.8535 36.5762 34.8295C36.9153 34.8176 37.2742 35.0848 37.6053 35.2643C37.8127 35.376 37.9842 35.5554 38.1716 35.703C38.2554 35.4597 38.4389 35.2084 38.4149 34.9811C38.1916 32.9111 37.9922 30.837 37.6611 28.7869C37.354 26.8884 37.3301 26.8565 39.2525 26.7488C39.5716 26.7328 40.0582 26.5932 40.1699 26.3659C40.844 24.9659 40.5169 24.4993 38.9574 24.5033C38.726 24.5033 38.4907 24.5033 38.2594 24.5033L38.2554 24.4953ZM53.4716 35.5754C53.8346 35.5554 54.2055 35.5594 54.5645 35.5076C56.1519 35.2723 56.7781 34.2991 56.3114 32.935C56.104 32.3327 55.9166 32.1772 55.2744 32.4723C53.9143 33.0905 52.6181 32.4723 52.1793 31.0245C51.9919 30.4023 51.9121 29.7282 51.9161 29.0741C51.9201 27.8377 52.5702 27.2234 53.8027 27.1357C54.018 27.1197 54.3969 27.0759 54.4129 26.9921C54.5286 26.314 54.6004 25.628 54.6243 24.942C54.6283 24.8024 54.389 24.5631 54.2254 24.5232C52.6859 24.1483 50.915 24.934 49.9617 26.2542C48.6335 28.0929 48.5936 30.0353 49.3036 32.0814C50.197 34.654 51.6329 35.6631 53.4716 35.5754ZM77.3907 35.5036C77.8654 35.2802 78.8785 34.9612 79.6522 34.3429C79.9235 34.1276 79.6203 33.1783 79.5725 32.5641C79.5087 31.7384 79.0619 32.1333 78.683 32.2849C77.0717 32.943 75.5361 32.0256 75.3845 30.2986C75.3566 29.9675 75.3486 29.6365 75.3446 29.3054C75.3127 27.5425 75.6837 27.1038 77.4187 26.8286C77.5862 26.8006 77.8614 26.7089 77.8773 26.6052C77.9771 26.0867 78.005 25.5522 78.0688 25.0258C78.1326 24.5072 77.9611 24.1283 77.3947 24.1682C75.8512 24.2799 74.3515 24.5352 73.3982 25.971C72.6564 27.0918 72.098 28.2804 72.3014 29.6724C72.4131 30.4501 72.5686 31.2199 72.7322 31.9897C73.139 33.9201 74.9777 35.4757 77.3907 35.5036ZM130.769 33.956C130.777 33.0666 130.195 32.4962 129.269 32.4843C128.376 32.4723 127.61 33.1703 127.63 33.98C127.646 34.6461 128.619 35.5554 129.297 35.5355C130.091 35.5076 130.761 34.7896 130.769 33.956Z" fill="#828282"/>
<path d="M60.6159 31.1061C60.5521 29.8696 60.935 28.9523 61.7048 28.1466C62.1555 27.6759 62.7218 27.2532 63.2164 27.644C63.6192 27.9671 63.8905 28.7169 63.8586 29.2554C63.8107 30.0172 63.4637 30.775 63.1765 31.5089C62.8894 32.2508 62.4426 32.9328 61.4974 32.7174C60.58 32.506 60.5361 31.7442 60.6159 31.1021V31.1061Z" fill="#828282"/>
<path d="M96.2609 31.1864C95.7344 31.5254 95.2079 31.8604 94.6814 32.1994C94.4421 31.8165 93.9874 31.4057 94.0313 31.0587C94.0712 30.7436 94.6375 30.2929 95.0005 30.269C95.3954 30.2411 95.8181 30.632 96.229 30.8394C96.2409 30.955 96.2529 31.0707 96.2649 31.1864H96.2609Z" fill="#828282"/>
<path d="M93.9119 26.4121C94.3785 26.791 94.6817 27.0383 94.9848 27.2856C94.5102 27.6964 94.0315 28.1112 93.5569 28.522C93.3575 28.1312 92.9945 27.7363 93.0145 27.3574C93.0304 27.0622 93.525 26.795 93.9119 26.4121Z" fill="#828282"/>
<path d="M86.3256 30.3593C86.2618 30.5946 86.2738 31.0653 86.0544 31.2328C85.8191 31.4123 85.3684 31.3126 85.0094 31.3325C84.9975 31.0533 84.9177 30.7542 84.9815 30.4949C85.149 29.8249 85.3764 29.1707 85.5918 28.5126C85.6396 28.3611 85.7393 28.2294 85.8151 28.0898C85.9068 28.2494 86.0544 28.397 86.0823 28.5645C86.1781 29.1189 86.2339 29.6773 86.3177 30.3593H86.3256Z" fill="#828282"/>
<path d="M103.014 31.1045C103.05 30.7814 103.038 30.6059 103.097 30.4583C103.341 29.8321 103.608 29.2139 103.863 28.5957C103.955 29.17 104.039 29.7484 104.138 30.3227C104.166 30.4823 104.262 30.6338 104.27 30.7934C104.286 31.0606 104.33 31.5233 104.23 31.5632C103.915 31.6868 103.524 31.7107 103.189 31.6429C103.074 31.619 103.042 31.2002 103.014 31.1005V31.1045Z" fill="#828282"/>
<path d="M123.833 29.5365C123.853 29.6961 123.889 30.087 123.944 30.4738C124.036 31.116 123.761 31.3713 123.123 31.3553C122.704 31.3433 122.493 31.2716 122.66 30.7889C122.947 29.9553 123.203 29.1098 123.474 28.2722C123.502 28.1884 123.577 28.1246 123.629 28.0488C123.697 28.1406 123.817 28.2243 123.821 28.32C123.845 28.6471 123.829 28.9742 123.829 29.5365H123.833Z" fill="#828282"/>
<path d="M44.701 29.5658C44.7409 29.9926 44.8087 30.4194 44.8087 30.8461C44.8087 31.237 44.8366 31.7077 44.1905 31.592C43.7119 31.5042 43.3569 31.3487 43.5683 30.7464C43.8315 30.0006 44.0708 29.2467 44.3301 28.4969C44.37 28.3812 44.4657 28.2815 44.5335 28.1738C44.6093 28.3054 44.7369 28.4331 44.7489 28.5687C44.7808 28.8958 44.7608 29.2308 44.7608 29.5618C44.7409 29.5618 44.721 29.5618 44.701 29.5658Z" fill="#828282"/>
</svg>
