<svg width="160" height="60" viewBox="0 0 160 60" fill="none" xmlns="http://www.w3.org/2000/svg">
<path fill-rule="evenodd" clip-rule="evenodd" d="M70.3484 31.4298C68.8479 31.4298 67.0524 32.5357 66.5802 33.9872C66.0233 35.6992 67.6384 36.6472 69.1707 36.5319C70.4727 36.4342 71.1711 35.4434 71.4348 34.2507C71.6702 33.1845 71.9409 31.4298 70.3484 31.4298ZM73.1357 39.0455C72.6426 39.0447 72.1177 38.9745 71.6938 38.7048C71.3894 38.5112 71.1858 38.3758 70.8382 38.2689C70.4141 38.1384 70.3261 38.6705 68.5111 39.0455C66.1523 39.5328 63.4421 38.1786 63.1105 35.6122C62.8428 33.5388 63.6455 31.9837 65.1495 30.8123C67.9363 28.6418 70.8838 29.2841 71.3544 28.756C72.0137 28.017 71.6393 26.6386 70.3826 26.4934C69.0412 26.3384 67.1985 27.5669 66.7008 27.8323C66.1697 28.1157 65.4745 28.3017 64.8964 27.8968C63.7783 27.1136 64.8706 25.7608 65.6244 25.2956C68.2377 23.6823 73.244 22.8325 74.7025 26.4042C75.1168 27.419 75.138 28.5102 75.182 29.5892C75.236 30.9099 75.3099 32.2306 75.3075 33.5527C75.3045 35.0937 75.4432 38.9925 73.1357 39.0455Z" fill="#828282"/>
<path fill-rule="evenodd" clip-rule="evenodd" d="M22.1701 44.8095C20.2925 44.8095 20.1513 42.9017 20.0291 41.4622C19.877 39.6719 19.8561 37.8685 19.8623 36.0724C19.8748 32.4962 19.8501 28.7349 20.5309 25.209C20.8133 23.7463 21.6504 22.4392 23.272 22.49C24.6604 22.5335 24.4166 23.7167 24.3753 24.7703C24.3308 25.9179 24.1553 27.1676 24.2762 28.3118C24.4934 30.3727 27.1738 31.5142 28.9789 31.2312C30.6942 30.9622 32.1334 29.6736 32.8147 28.1087C33.7517 25.957 33.4723 23.1326 32.2355 21.1549C30.8523 18.9434 28.3074 18.111 25.8109 18.5716C23.5026 18.9975 21.4696 20.2962 19.6041 21.6615C18.7376 22.2953 17.5505 23.0942 16.5539 22.1493C15.7776 21.4132 15.8642 20.2994 16.5222 19.5315C17.4459 18.4531 18.8093 17.6107 20.0282 16.9249C22.1579 15.7265 24.5138 14.9842 26.9698 15.0003C29.3105 15.016 31.7543 15.4753 33.6866 16.8721C35.4673 18.1591 36.5288 20.1181 37.0045 22.235C37.9215 26.3143 37.061 30.3939 33.6442 33.1594C31.53 34.8703 26.9869 36.1195 23.9878 33.1702C23.9875 35.2393 24.1168 36.8931 24.1822 38.9627C24.2205 40.1703 24.2675 41.3782 24.3489 42.5839C24.3807 43.0505 24.5249 43.5519 24.2365 43.9535C23.8086 44.5493 22.8617 44.8095 22.1701 44.8095Z" fill="#828282"/>
<path fill-rule="evenodd" clip-rule="evenodd" d="M54.1964 29.0879C54.0727 30.741 53.9594 32.1659 54.0432 33.8228C54.1224 35.3931 55.2836 36.5676 57.0136 35.8865C58.9877 35.1093 58.9607 32.4678 58.8921 30.7522C58.8389 29.4187 58.6581 27.4297 57.2987 26.7259C56.741 26.4372 56.0001 26.4358 55.4258 26.671C54.4591 27.0674 54.201 28.1337 54.1964 29.0879ZM52.4342 44.8102C50.7905 44.8102 50.7279 43.1148 50.6113 41.8554C50.4469 40.0821 50.4516 38.2916 50.4865 36.5129C50.5239 34.6183 50.6162 32.7251 50.7402 30.8347C50.8306 29.4518 50.7577 27.8588 51.1004 26.5126C51.5532 24.7344 54.3512 23.8389 55.8906 23.7129C58.1245 23.5301 60.3127 24.7849 61.369 26.8161C62.4297 28.856 62.4264 31.3912 61.9933 33.5958C61.5921 35.6368 60.689 37.418 58.707 38.4482C56.7874 39.4459 54.354 37.9261 54.0077 38.9C53.8564 39.3248 53.9902 39.9923 54.0047 40.4351C54.0254 41.0574 54.3633 43.6358 54.047 44.1242C53.7256 44.6206 52.9877 44.8102 52.4342 44.8102Z" fill="#828282"/>
<path fill-rule="evenodd" clip-rule="evenodd" d="M44.3207 31.5174C42.8369 31.5174 41.062 32.6216 40.5952 34.0708C40.0443 35.7801 41.6414 36.7265 43.1563 36.6114C44.4434 36.5139 45.1341 35.5246 45.3946 34.3339C45.6273 33.2694 45.8952 31.5174 44.3207 31.5174ZM47.0765 39.121C46.589 39.1202 46.0698 39.0501 45.6507 38.7808C45.3497 38.5875 45.1484 38.4523 44.8047 38.3456C44.3854 38.2153 44.2984 38.7466 42.5042 39.121C40.1718 39.6075 37.4925 38.2555 37.1647 35.6932C36.9 33.6231 37.6933 32.0705 39.1806 30.9009C41.9356 28.7339 44.8498 29.3751 45.3154 28.8479C45.9669 28.11 45.5967 26.7338 44.3545 26.5889C43.028 26.4341 41.2062 27.6607 40.7144 27.9257C40.1892 28.2086 39.5017 28.3943 38.9301 27.99C37.8248 27.2081 38.9049 25.8575 39.6499 25.393C42.2339 23.7822 47.1834 22.9338 48.6253 26.4998C49.0353 27.513 49.0559 28.6025 49.0997 29.6798C49.1528 30.9984 49.2261 32.317 49.2234 33.6369C49.2208 35.1755 49.3577 39.0681 47.0765 39.121Z" fill="#828282"/>
<path fill-rule="evenodd" clip-rule="evenodd" d="M127.198 18.5171C129.247 18.2018 131.401 18.629 133.177 19.7292C133.384 19.8577 133.438 20.1418 133.287 20.3361L129.352 25.4038C129.151 25.6621 128.749 25.5818 128.658 25.2651L126.869 19.0376C126.8 18.7979 126.956 18.5542 127.198 18.5171Z" fill="#828282"/>
<path fill-rule="evenodd" clip-rule="evenodd" d="M100.305 22.7632C97.5982 22.7632 97.6307 18.416 100.305 18.416C102.977 18.416 103.016 22.7632 100.305 22.7632Z" fill="#828282"/>
<path fill-rule="evenodd" clip-rule="evenodd" d="M100.043 39.2211C97.8266 39.2208 98.0411 36.0142 97.9978 34.4707C97.9333 32.1695 98.0111 29.8539 98.2062 27.5604C98.2599 26.9304 98.2092 25.9978 98.4765 25.4131C99.1039 24.0402 101.531 24.5951 101.532 26.0786C101.533 28.2677 101.385 30.4577 101.414 32.6517C101.431 33.9542 101.46 35.2594 101.556 36.5586C101.59 37.0298 101.733 37.5639 101.696 38.0337C101.631 38.8534 100.756 39.2211 100.043 39.2211Z" fill="#828282"/>
<path fill-rule="evenodd" clip-rule="evenodd" d="M105.564 39.223C103.496 39.223 103.648 36.7952 103.514 35.3359C103.31 33.104 103.2 30.8477 103.283 28.6072C103.35 26.8026 103.642 24.0375 106.149 24.7106C106.674 24.8515 106.938 25.2154 107.162 25.3522C107.823 25.7565 108.758 24.9737 109.277 24.6932C110.604 23.9763 112.298 24.3404 113.445 25.3378C115.086 26.7647 115.036 29.4778 115.052 31.4522C115.069 33.5565 115.008 35.8 114.475 37.8501C114.236 38.7656 113.659 39.275 112.625 38.9995C110.912 38.5437 111.256 36.5977 111.336 35.3115C111.42 33.9469 111.741 32.5778 111.732 31.2105C111.725 30.2703 111.789 29.1694 111.231 28.3541C110.446 27.2047 108.634 27.0736 107.579 27.9303C106.557 28.7606 106.608 30.0565 106.623 31.239C106.641 32.7515 106.985 34.2648 107.089 35.7737C107.179 37.0795 107.583 39.223 105.564 39.223Z" fill="#828282"/>
<path fill-rule="evenodd" clip-rule="evenodd" d="M122.512 27.2401C120.177 27.2401 119.404 29.4967 119.404 31.4517C119.404 33.4064 120.177 35.663 122.512 35.663C124.847 35.663 125.62 33.4064 125.62 31.4517C125.62 29.4967 124.847 27.2401 122.512 27.2401ZM122.512 38.9085C115.994 38.9085 114.055 29.9316 118.073 25.8331C120.143 23.7209 123.62 23.394 126.06 25.0821C128.516 26.7812 129.327 30.0085 128.93 32.8156C128.468 36.0901 126.042 38.9085 122.512 38.9085Z" fill="#828282"/>
<path fill-rule="evenodd" clip-rule="evenodd" d="M136.651 39.221C134.311 39.221 132.073 38.784 131.032 36.9165C130.432 35.8397 131.856 34.5467 132.925 34.9387C133.534 35.1619 133.98 35.6702 134.628 35.8663C135.178 36.0326 135.761 36.0784 136.332 36.0738C137.327 36.0657 138.265 35.6162 138.344 34.5028C138.421 33.4103 137.687 32.6842 136.68 32.455C134.711 32.0069 132.177 32.0302 131.22 29.8451C130.297 27.7395 131.626 25.2349 133.582 24.2739C135.532 23.3156 138.852 23.534 140.506 25.0312C141.447 25.8832 141.117 27.3858 139.752 27.4873C139.201 27.5282 138.795 27.1707 138.313 26.9584C137.769 26.7183 137.185 26.5648 136.594 26.5024C135.645 26.4026 134.408 26.6291 134.192 27.7474C133.962 28.9351 135.172 29.5885 136.11 29.8842C137.333 30.2693 138.675 30.3114 139.817 30.9507C140.877 31.5447 141.532 32.6402 141.711 33.8329C142.12 36.5658 139.794 39.221 136.651 39.221Z" fill="#828282"/>
<path fill-rule="evenodd" clip-rule="evenodd" d="M87.1368 45.1199C85.2611 45.1199 82.8214 44.7887 81.382 43.4015C79.3511 41.4446 81.1977 39.5546 82.3808 40.4442C84.2979 41.8849 87.069 42.5433 89.3013 41.3505C90.1542 40.8948 90.8746 40.1913 91.3509 39.3504C91.6729 38.7818 92.3685 37.2878 91.4132 36.9511C90.888 36.7659 90.108 37.1724 89.5775 37.2714C88.8381 37.4093 88.0866 37.4876 87.3338 37.4874C86.0928 37.4871 84.8444 37.2747 83.7027 36.7784C81.5853 35.8579 80.1279 34.0269 79.4118 31.8639C78.0491 27.747 78.6582 22.3644 81.6781 19.0935C83.1489 17.5005 85.2684 16.3328 87.4672 16.2501C89.6535 16.1677 92.2839 16.7157 93.8246 18.4015C94.5648 19.2113 94.7094 20.4157 93.6768 21.0257C92.777 21.5568 91.7523 21.5989 90.944 20.977C89.0136 19.4917 86.2485 19.2472 84.5197 21.1905C82.9085 23.0013 82.6881 25.7267 82.8383 28.0322C82.9733 30.1025 83.4784 31.9245 85.3803 33.0996C87.2911 34.2801 90.4884 33.9804 91.721 31.9079C92.8197 30.0612 92.3976 28.0592 92.4447 25.9954C92.4692 24.9201 93.3344 24.3877 94.3716 24.4268C95.6782 24.4758 96.0133 25.3705 96.1425 26.514C96.4381 29.1276 96.5287 32.2606 96.2694 34.8832C95.8919 38.7029 94.5082 42.9566 90.6229 44.5023C89.5179 44.9421 88.3221 45.1199 87.1368 45.1199Z" fill="#828282"/>
<path fill-rule="evenodd" clip-rule="evenodd" d="M142.447 37.6389C142.561 37.7053 142.652 37.7963 142.719 37.9114C142.785 38.0268 142.819 38.1525 142.819 38.2888C142.819 38.4245 142.785 38.55 142.719 38.6651C142.652 38.7802 142.562 38.8715 142.449 38.9385C142.334 39.0055 142.209 39.0389 142.072 39.0389C141.938 39.0389 141.813 39.0058 141.698 38.9391C141.583 38.8726 141.491 38.7814 141.424 38.6657C141.356 38.5502 141.322 38.4245 141.322 38.2888C141.322 38.1534 141.356 38.028 141.423 37.9128C141.49 37.7974 141.581 37.7065 141.696 37.6394C141.811 37.5724 141.935 37.539 142.071 37.539C142.207 37.539 142.332 37.5721 142.447 37.6389ZM141.601 37.482C141.457 37.5652 141.345 37.6784 141.261 37.8213C141.178 37.9645 141.137 38.1203 141.137 38.2888C141.137 38.4576 141.178 38.6134 141.261 38.7566C141.345 38.8996 141.457 39.0128 141.601 39.0959C141.744 39.1788 141.899 39.2205 142.068 39.2205C142.237 39.2205 142.393 39.1788 142.536 39.0959C142.679 39.0128 142.792 38.8996 142.875 38.7566C142.958 38.6134 143 38.4576 143 38.2888C143 38.1617 142.976 38.0413 142.928 37.9284C142.881 37.8152 142.814 37.7156 142.728 37.6291C142.642 37.5429 142.542 37.4759 142.429 37.4286C142.316 37.3811 142.195 37.3574 142.068 37.3574C141.899 37.3574 141.744 37.3989 141.601 37.482ZM141.853 38.382H141.904C141.942 38.382 141.975 38.3878 142.001 38.4001C142.027 38.4123 142.054 38.4357 142.08 38.4702C142.106 38.5046 142.138 38.5575 142.176 38.6287L142.257 38.7883H142.507L142.39 38.5889C142.346 38.5124 142.311 38.4582 142.284 38.4259C142.258 38.3937 142.223 38.3698 142.18 38.3533C142.264 38.3419 142.329 38.3108 142.377 38.2593C142.424 38.2084 142.448 38.1475 142.448 38.0775C142.448 38.021 142.435 37.9712 142.41 37.9281C142.385 37.8853 142.348 37.8522 142.299 37.8288C142.25 37.8055 142.189 37.7941 142.116 37.7941H141.65V38.7883H141.853V38.382ZM142.031 37.954C142.099 37.954 142.15 37.9651 142.183 37.9879C142.216 38.0104 142.232 38.0413 142.232 38.08C142.232 38.1364 142.213 38.1742 142.176 38.1934C142.138 38.2123 142.084 38.2218 142.012 38.2218H141.853V37.954H142.031Z" fill="#828282"/>
</svg>
